<svg width="44" height="49" viewBox="0 0 44 49" fill="none" xmlns="http://www.w3.org/2000/svg">
<g id="css" clip-path="url(#clip0_668_899)">
<path id="Vector" d="M39.0125 43.7319L21.5241 48.4419L4.03562 43.7319L0 0L43.0486 -1.41742e-06L39.0125 43.7319Z" fill="white"/>
<path id="Vector_2" d="M21.5244 3.54199L21.5244 44.6851L21.5639 44.6959L35.7165 40.8839L38.9832 3.54199L21.5244 3.54199Z" fill="white"/>
<path id="Vector_3" d="M21.5082 14.4768L8.99121 19.6911L9.40628 24.8536L21.5082 19.678L34.3814 14.1726L34.9151 8.8916L21.5082 14.4768Z" fill="#101010"/>
<path id="Vector_4" d="M8.99121 19.6914L9.40628 24.8539L21.5082 19.6782L21.5082 14.4771L8.99121 19.6914Z" fill="#101010"/>
<path id="Vector_5" d="M34.9157 8.89209L21.5088 14.4772L21.5088 19.6784L34.382 14.1731L34.9157 8.89209Z" fill="#101010"/>
<path id="Vector_6" d="M9.01074 19.6912L9.42597 24.8537L27.9947 24.9129L27.5793 31.7962L21.4691 33.5168L15.5954 32.0334L15.2395 27.761L9.78185 27.761L10.4938 36.009L21.5284 39.2726L32.5033 36.0682L33.9271 19.6912L9.01074 19.6912Z" fill="#101010"/>
<path id="Vector_7" opacity="0.05" d="M21.5082 19.6914L8.99121 19.6914L9.40628 24.854L21.5082 24.8926L21.5082 19.6914ZM21.5082 33.5007L21.4488 33.5172L15.5759 32.0337L15.22 27.7613L9.7624 27.7613L10.4742 36.0094L21.5082 39.273L21.5082 33.5007Z" fill="#101010"/>
<path id="Vector_8" d="M7.86426 8.89185L34.9154 8.89184L34.3817 14.1729L8.51675 14.1729L7.86426 8.89185Z" fill="#101010"/>
<path id="Vector_9" opacity="0.05" d="M21.5085 8.89185L7.86426 8.89185L8.51675 14.1729L21.5085 14.1729L21.5085 8.89185Z" fill="#101010"/>
</g>
<defs>
<clipPath id="clip0_668_899">
<rect width="43.115" height="48.4867" fill="white"/>
</clipPath>
</defs>
</svg>
