<svg width="34" height="49" viewBox="0 0 34 49" fill="none" xmlns="http://www.w3.org/2000/svg">
<path id="Vector" fill-rule="evenodd" clip-rule="evenodd" d="M15.09 3.81323H9.45511C6.34306 3.81323 3.82025 6.3314 3.82025 9.43774C3.82025 12.5441 6.34306 15.0622 9.45511 15.0622H15.09V3.81323ZM15.09 0H18.9102H24.5451C29.7672 0 34 4.2254 34 9.43774C34 12.5136 32.5261 15.2459 30.2443 16.9689C32.5261 18.6919 34 21.4241 34 24.5C34 29.7123 29.7672 33.9378 24.5451 33.9378C22.4337 33.9378 20.4839 33.247 18.9102 32.0794V33.9378V39.5623C18.9102 44.7746 14.677 49 9.45511 49C4.23318 49 0 44.7746 0 39.5623C0 36.4861 1.47416 33.7541 3.75576 32.0311C1.47416 30.3081 0 27.5759 0 24.5C0 21.4241 1.47419 18.6919 3.75584 16.9689C1.47419 15.2459 0 12.5136 0 9.43774C0 4.2254 4.23318 0 9.45511 0H15.09ZM18.9102 3.81323V15.0622H24.5451C27.6572 15.0622 30.1798 12.5441 30.1798 9.43774C30.1798 6.3314 27.6572 3.81323 24.5451 3.81323H18.9102ZM9.45511 30.1245H15.09V24.5145V24.5V24.4855V18.8755H9.45511C6.34306 18.8755 3.82025 21.3937 3.82025 24.5C3.82025 27.5989 6.33099 30.1125 9.43276 30.1245L9.45511 30.1245ZM3.82025 39.5623C3.82025 36.4633 6.33099 33.9498 9.43276 33.9377L9.45511 33.9378H15.09V39.5623C15.09 42.6685 12.5672 45.1868 9.45511 45.1868C6.34306 45.1868 3.82025 42.6685 3.82025 39.5623ZM18.9102 24.4888C18.9163 21.3876 21.4368 18.8755 24.5451 18.8755C27.6572 18.8755 30.1798 21.3937 30.1798 24.5C30.1798 27.6063 27.6572 30.1245 24.5451 30.1245C21.4368 30.1245 18.9163 27.6124 18.9102 24.5112V24.4888Z" fill="white"/>
</svg>
