<svg width="41" height="57" viewBox="0 0 41 57" fill="none" xmlns="http://www.w3.org/2000/svg">
<g id="Group 16">
<path id="Vector" d="M26.5523 20.2262L20.9471 25.4412L15.7461 14.9499L18.4376 8.91595C19.1376 7.69095 20.2296 7.70495 20.9121 8.91595L26.5523 20.2262Z" fill="white"/>
<path id="Vector_2" d="M15.7465 14.9497L20.9475 25.441L0 44.9272L15.7465 14.9497Z" fill="white"/>
<path id="Vector_3" d="M20.0761 55.5142L20.0606 55.5157L20.0515 55.5145C20.0108 55.5092 19.9513 55.5011 19.8779 55.4903C19.7307 55.4686 19.5291 55.4364 19.3109 55.394C18.8464 55.3038 18.4015 55.1845 18.1947 55.0629C18.1947 55.0629 18.1947 55.0629 18.1946 55.0628L0.810298 44.8242L33.0329 12.6119C33.4614 12.2014 33.7854 12.1691 33.9587 12.224C34.1321 12.2791 34.3784 12.4925 34.4924 13.0747L39.8864 44.4157L22.1141 55.0846C22.0125 55.1397 21.8413 55.2008 21.6119 55.2599C21.3856 55.3181 21.1325 55.3669 20.8915 55.4063C20.6515 55.4454 20.4296 55.4742 20.2675 55.4931C20.1866 55.5026 20.121 55.5096 20.0761 55.5142Z" fill="white" stroke="#101010"/>
<path id="Vector_4" d="M15.1854 14.9432L0.977809 41.994L7.50674 1.20241C7.56432 0.90232 7.6436 0.708555 7.71585 0.596987C7.75687 0.533648 7.78643 0.509502 7.79955 0.501227C7.81466 0.504732 7.8505 0.517824 7.91003 0.564151C8.01399 0.645055 8.151 0.79996 8.30236 1.06025L15.1854 14.9432ZM7.80712 0.497384C7.80713 0.49746 7.80631 0.497862 7.8046 0.498362C7.80624 0.497558 7.8071 0.497308 7.80712 0.497384ZM7.79384 0.50018C7.79206 0.50027 7.79115 0.50016 7.79114 0.500083C7.79113 0.500005 7.79202 0.49996 7.79384 0.50018Z" fill="white" stroke="#101010"/>
</g>
</svg>
