<svg width="43" height="64" viewBox="0 0 43 64" fill="none" xmlns="http://www.w3.org/2000/svg">
<g clip-path="url(#clip0_923_45)">
<path d="M25.645 0.23903C26.131 0.572042 26.4918 1.00504 26.8118 1.4927C26.8465 1.54533 26.8811 1.59795 26.9169 1.65218C28.9136 4.73565 29.9162 8.64045 30.1944 12.2768C30.1982 12.3254 30.202 12.374 30.2059 12.4241C30.2674 13.247 30.2691 14.0683 30.2618 14.8931C30.3271 14.8558 30.3924 14.8184 30.4598 14.7799C32.2164 13.7814 34.0228 13.0481 36.0075 12.629C36.1018 12.609 36.1018 12.609 36.198 12.5886C37.1566 12.3954 38.0984 12.3161 39.0741 12.3187C39.1269 12.3187 39.1798 12.3188 39.2342 12.3188C40.3701 12.3224 41.6613 12.3495 42.5796 13.1135C43.0416 13.6076 43.0178 14.408 43.0098 15.0433C42.8979 17.9411 41.9035 20.796 40.7085 23.413C40.6835 23.4685 40.6585 23.524 40.6327 23.5811C40.1083 24.7415 39.491 25.8608 38.7539 26.9015C38.7281 26.9385 38.7022 26.9756 38.6756 27.0137C38.0159 27.9585 37.2914 28.848 36.4624 29.652C36.5496 29.9327 36.6566 30.1838 36.7954 30.4429C36.8345 30.5164 36.8735 30.59 36.9137 30.6657C36.976 30.7824 36.976 30.7824 37.0395 30.9015C39.2696 35.1303 40.5709 40.0353 40.5874 44.8279C40.5876 44.8719 40.5878 44.916 40.5879 44.9614C40.5889 45.1955 40.5896 45.4297 40.5899 45.6639C40.5902 45.8524 40.5911 46.0409 40.5926 46.2294C40.6307 50.9663 39.6308 55.716 36.2602 59.2369C36.2113 59.2892 36.1624 59.3414 36.112 59.3952C35.684 59.8394 35.2064 60.2138 34.71 60.5786C34.6724 60.6064 34.6347 60.6341 34.5959 60.6627C33.3894 61.5378 32.0104 62.1875 30.5988 62.6583C30.5084 62.6886 30.5084 62.6886 30.4163 62.7195C28.969 63.1973 27.495 63.5081 25.9862 63.7149C25.9377 63.7217 25.8892 63.7285 25.8392 63.7355C24.1158 63.973 22.3911 64.0239 20.6541 64.0212C20.4356 64.0209 20.2171 64.0214 19.9986 64.0226C18.7912 64.0293 17.5927 64.0067 16.3888 63.9078C16.3385 63.9037 16.2882 63.8996 16.2363 63.8953C12.301 63.5661 8.06541 62.6112 5.05487 59.9078C4.96226 59.8295 4.86959 59.7512 4.77685 59.673C1.50781 56.7875 0.255733 52.3822 1.14044e-05 48.1677C-0.0100438 47.8514 -0.0125438 47.5353 -0.0136788 47.2188C-0.0141516 47.1306 -0.0146233 47.0423 -0.0151104 46.9513C-0.0164188 46.6678 -0.0167582 46.3842 -0.0168381 46.1007C-0.0168679 46.0524 -0.0168979 46.0041 -0.0169286 45.9544C-0.0173882 44.5352 -0.000180636 43.1353 0.202206 41.7275C0.213413 41.6435 0.224621 41.5595 0.236168 41.4729C0.698513 38.035 1.65354 34.727 3.16772 31.5975C3.19576 31.5389 3.2238 31.4802 3.25269 31.4197C4.10175 29.6488 5.17653 27.8399 6.49788 26.3724C6.55073 26.3135 6.55073 26.3135 6.60465 26.2535C6.67035 26.1817 6.73729 26.111 6.80563 26.0417C6.90683 25.9378 6.90683 25.9378 7.00942 25.761C6.96318 25.4914 6.83333 25.2678 6.70533 25.0269C5.40706 22.5819 4.78918 19.8325 4.44829 17.107C4.44029 17.0453 4.4323 16.9836 4.42407 16.92C4.17559 14.9157 4.16083 12.7249 4.51569 10.7338C4.52543 10.6782 4.53517 10.6227 4.54521 10.5655C4.67242 9.87475 4.84713 9.08602 5.37501 8.58285C6.45657 7.94106 7.86799 8.24879 9.02372 8.53227C11.6863 9.22035 14.0202 10.6646 16.0711 12.4549C16.2385 12.5995 16.4092 12.7399 16.5799 12.8805C16.5918 12.8368 16.6036 12.793 16.6158 12.7479C17.1261 10.8688 17.7545 9.03897 18.6669 7.31152C18.7416 7.16883 18.8142 7.02516 18.8868 6.88133C19.7328 5.22028 20.8015 3.67667 22.0392 2.28096C22.1204 2.18899 22.1204 2.18899 22.2032 2.09516C22.3491 1.93186 22.4967 1.77048 22.6458 1.6101C22.701 1.54965 22.701 1.54965 22.7574 1.48798C23.4024 0.811318 24.668 -0.383883 25.645 0.23903Z" fill="white"/>
<path d="M25.645 0.23903C26.131 0.572042 26.4918 1.00504 26.8118 1.4927C26.8465 1.54533 26.8811 1.59795 26.9169 1.65218C28.9136 4.73565 29.9162 8.64045 30.1944 12.2768C30.1982 12.3254 30.202 12.374 30.2059 12.4241C30.2674 13.247 30.2691 14.0683 30.2618 14.8931C30.3271 14.8558 30.3924 14.8184 30.4597 14.7799C32.2164 13.7814 34.0228 13.0481 36.0075 12.629C36.1018 12.609 36.1018 12.609 36.198 12.5886C37.1566 12.3954 38.0984 12.3161 39.0741 12.3187C39.1269 12.3187 39.1798 12.3188 39.2342 12.3188C40.3701 12.3224 41.6613 12.3495 42.5796 13.1135C43.0416 13.6076 43.0178 14.408 43.0098 15.0433C42.8979 17.9411 41.9035 20.796 40.7085 23.413C40.6835 23.4685 40.6585 23.524 40.6327 23.5811C40.1083 24.7415 39.491 25.8608 38.7539 26.9015C38.7281 26.9385 38.7022 26.9756 38.6756 27.0137C37.9972 27.9852 37.2487 28.894 36.395 29.7191C36.1433 29.4937 35.9858 29.2418 35.8137 28.956C35.4912 28.4322 35.1457 27.931 34.7774 27.4382C34.75 27.4015 34.7226 27.3647 34.6943 27.3269C33.6917 25.9928 32.5647 24.6791 31.2727 23.6143C31.2395 23.5866 31.2062 23.5589 31.1719 23.5303C28.5371 21.3466 25.45 19.89 22.0392 19.455C21.9664 19.4453 21.9664 19.4453 21.8921 19.4355C17.3994 18.9105 13.2064 20.5991 9.70955 23.2975C8.84618 23.9842 7.8547 24.792 7.21161 25.694C6.87499 25.5823 6.78349 25.2565 6.6303 24.9557C5.42226 22.477 4.81414 19.8223 4.44829 17.107C4.43924 17.0399 4.43019 16.9729 4.42087 16.9039C4.16819 14.9087 4.16248 12.7156 4.51569 10.7338C4.52543 10.6782 4.53517 10.6227 4.54521 10.5655C4.67242 9.87475 4.84713 9.08602 5.37501 8.58285C6.45656 7.94106 7.86799 8.24879 9.02372 8.53227C11.6863 9.22035 14.0202 10.6646 16.0711 12.4549C16.2385 12.5995 16.4092 12.7399 16.5799 12.8805C16.5918 12.8368 16.6036 12.793 16.6158 12.7479C17.1261 10.8688 17.7545 9.03897 18.6669 7.31152C18.7416 7.16883 18.8142 7.02516 18.8868 6.88133C19.7328 5.22028 20.8015 3.67667 22.0392 2.28096C22.1204 2.18899 22.1204 2.18899 22.2032 2.09516C22.3491 1.93186 22.4967 1.77048 22.6458 1.6101C22.701 1.54965 22.701 1.54965 22.7574 1.48798C23.4024 0.811318 24.668 -0.383883 25.645 0.23903Z" fill="white"/>
<path d="M42.5795 13.1134C43.0416 13.6076 43.0177 14.4079 43.0097 15.0432C42.8979 17.941 41.9034 20.796 40.7085 23.413C40.6835 23.4685 40.6585 23.5239 40.6327 23.5811C40.1083 24.7414 39.491 25.8608 38.7539 26.9014C38.7281 26.9385 38.7022 26.9755 38.6756 27.0137C37.9972 27.9851 37.2487 28.8939 36.395 29.7191C36.1433 29.4937 35.9858 29.2417 35.8137 28.956C35.4912 28.4322 35.1457 27.931 34.7774 27.4381C34.75 27.4014 34.7225 27.3647 34.6943 27.3268C33.6919 25.9931 32.5651 24.678 31.2727 23.6142C31.2217 23.5721 31.2217 23.5721 31.1697 23.5292C30.6233 23.0804 30.0628 22.6595 29.478 22.2613C29.4317 22.2296 29.3854 22.1978 29.3377 22.1651C29.2964 22.1372 29.2552 22.1093 29.2128 22.0805C29.116 22.0042 29.116 22.0042 29.0486 21.87C29.0716 21.733 29.0716 21.733 29.1162 21.5603C29.1326 21.4944 29.149 21.4286 29.1659 21.3608C29.1842 21.2881 29.2025 21.2154 29.2213 21.1404C29.6774 19.249 30.0715 17.2217 30.0864 15.2736C30.152 14.9836 30.3365 14.8458 30.5771 14.6817C30.71 14.5996 30.8449 14.5234 30.9821 14.4486C31.0341 14.4202 31.0861 14.3917 31.1397 14.3625C32.7863 13.4865 34.5656 12.8973 36.395 12.5451C36.4792 12.5284 36.4792 12.5284 36.5651 12.5115C38.2952 12.1841 41.1283 11.9059 42.5795 13.1134Z" fill="white"/>
<path d="M14.4316 11.1323C14.999 11.5454 15.5503 11.9812 16.0711 12.4515C16.1431 12.516 16.2169 12.5785 16.2921 12.6392C16.5068 12.8246 16.5742 12.9044 16.6129 13.1945C16.6051 13.2914 16.5938 13.388 16.58 13.4843C16.5722 13.5396 16.5644 13.5949 16.5564 13.6518C16.5261 13.8453 16.4921 14.0378 16.4578 14.2306C16.142 16.1181 16.0527 18.0158 15.9734 19.9245C15.9257 19.9413 15.8779 19.9582 15.8288 19.9755C12.7068 21.0823 10.1229 22.7357 7.77607 25.0566C7.74257 25.0896 7.70907 25.1227 7.67456 25.1567C7.50474 25.3265 7.35009 25.4978 7.21161 25.6939C6.87499 25.5822 6.78349 25.2565 6.6303 24.9557C5.42226 22.477 4.81414 19.8223 4.44829 17.1069C4.43924 17.0399 4.43019 16.9729 4.42087 16.9038C4.16819 14.9087 4.16248 12.7156 4.51569 10.7338C4.52543 10.6782 4.53517 10.6227 4.54521 10.5655C4.67242 9.87472 4.84713 9.086 5.37501 8.58282C7.96196 7.04775 12.3673 9.65509 14.4316 11.1323Z" fill="white"/>
<path d="M30.628 35.0203C31.4057 35.6166 31.9446 36.3872 32.0815 37.3668C32.1777 38.5285 31.8908 39.4208 31.1379 40.3186C31.2576 40.349 31.2576 40.349 31.3796 40.3801C32.9445 40.7886 32.9445 40.7886 33.3621 41.3919C33.4587 41.5842 33.4501 41.7148 33.4295 41.9286C33.1732 42.4286 32.8021 42.639 32.2896 42.806C31.0268 43.199 29.6244 43.2408 28.4041 42.6791C28.0443 42.4877 27.8177 42.2959 27.6332 41.9286C27.6154 41.657 27.6377 41.4946 27.768 41.2578C27.6408 41.2391 27.6408 41.2391 27.5111 41.22C26.7519 41.0513 26.051 40.462 25.6281 39.828C25.121 38.9902 24.9151 38.0679 25.0979 37.0955C25.3448 36.141 25.9767 35.3434 26.8118 34.8301C28.0292 34.1691 29.4792 34.2381 30.628 35.0203Z" fill="white"/>
<path d="M10.9733 33.6561C11.0333 33.6565 11.0932 33.6568 11.155 33.6572C11.5774 33.665 11.9468 33.6986 12.3339 33.8783C12.4246 33.92 12.4246 33.92 12.5171 33.9624C13.4039 34.4074 14.0481 35.092 14.3895 36.0293C14.6207 36.8732 14.6127 37.9569 14.1831 38.7379C13.6263 39.7007 12.8696 40.1897 11.8621 40.5869C11.9056 40.6493 11.9491 40.7118 11.994 40.7761C12.1317 40.9894 12.1317 40.9894 12.178 41.1823C12.1045 41.5148 11.9236 41.7171 11.6599 41.9286C11.4193 42.0463 11.1768 42.1273 10.9185 42.197C10.8775 42.2087 10.8366 42.2205 10.7944 42.2326C9.54851 42.5023 8.06797 42.2468 6.98513 41.6004C6.70023 41.4089 6.48833 41.1596 6.33544 40.8553C6.29337 40.6354 6.30232 40.5031 6.42653 40.3141C6.87633 39.7786 7.39446 39.602 8.08357 39.5387C8.19727 39.5299 8.311 39.5213 8.42478 39.5135C8.3372 39.4243 8.3372 39.4243 8.24786 39.3332C7.53559 38.5098 7.47637 37.5264 7.5486 36.4947C7.68385 35.6646 8.14417 34.9376 8.79152 34.4027C9.47865 33.9171 10.132 33.6506 10.9733 33.6561Z" fill="white"/>
<path d="M5.18966 46.6918C5.39896 46.818 5.55856 46.9879 5.72885 47.1614C5.79445 47.2254 5.86019 47.2893 5.92604 47.353C6.21399 47.6339 6.49566 47.9158 6.75851 48.2204C7.03958 48.5432 7.34395 48.841 7.64969 49.1405C7.99487 49.4786 8.33016 49.8183 8.64556 50.1842C8.89411 50.4629 9.16764 50.7183 9.4364 50.9775C9.47989 51.02 9.52337 51.0626 9.56817 51.1064C9.60752 51.1444 9.64687 51.1825 9.68742 51.2217C9.77273 51.3208 9.77273 51.3208 9.77273 51.4549C10.0381 51.2628 10.2385 51.0444 10.4499 50.798C10.5891 50.6413 10.7351 50.4947 10.8848 50.348C11.0726 50.1636 11.2523 49.9771 11.424 49.7778C11.643 49.5234 11.8791 49.29 12.1188 49.055C12.2548 48.9175 12.3813 48.7761 12.5066 48.6289C13.0999 47.9513 13.0999 47.9513 13.4172 47.8585C13.6778 47.8407 13.8501 47.9014 14.0483 48.0587C14.2495 48.2639 14.2793 48.3193 14.3305 48.5996C14.3158 49.2784 13.4135 49.9184 12.9562 50.3661C12.7506 50.5685 12.5592 50.7798 12.3723 50.9995C12.211 51.1824 12.0352 51.3503 11.861 51.521C11.6854 51.6985 11.5227 51.8856 11.3595 52.0744C11.2408 52.2096 11.116 52.3369 10.9859 52.4612C11.0859 52.6951 11.2192 52.8397 11.4029 53.0147C11.594 53.1972 11.7731 53.3841 11.9455 53.5839C12.2172 53.896 12.51 54.1844 12.8056 54.4738C13.383 55.0388 13.383 55.0388 13.646 55.3441C13.9715 55.7211 14.3334 56.0624 14.691 56.4089C15.658 57.3584 15.658 57.3584 15.6869 57.7736C15.6232 58.0959 15.5329 58.205 15.2994 58.4319C15.0761 58.543 14.865 58.5482 14.6254 58.499C14.4161 58.3728 14.2565 58.2029 14.0862 58.0294C14.0206 57.9654 13.9549 57.9015 13.889 57.8378C13.6025 57.5583 13.322 57.278 13.0608 56.9746C12.7577 56.6265 12.4273 56.3065 12.098 55.9832C11.7299 55.6221 11.3686 55.2615 11.0323 54.8707C10.8268 54.6385 10.6047 54.4228 10.3835 54.2055C10.3374 54.1599 10.2913 54.1143 10.2439 54.0674C10.1319 53.9567 10.0198 53.8462 9.90753 53.7359C9.69279 53.8368 9.57021 53.9297 9.41889 54.1132C9.25216 54.3097 9.08105 54.495 8.89656 54.6751C8.71995 54.8481 8.55261 55.0246 8.39107 55.2117C7.65097 56.067 7.65097 56.067 7.22846 56.109C7.00263 56.1074 6.8848 56.0675 6.71033 55.9245C6.50911 55.7194 6.47931 55.664 6.4281 55.3837C6.44126 54.7216 7.30161 54.1079 7.74921 53.6698C7.98812 53.4348 8.20995 53.1878 8.42477 52.9308C8.45874 52.8906 8.49271 52.8504 8.52771 52.809C8.60614 52.7158 8.68403 52.6221 8.76176 52.5283C8.72831 52.4958 8.69486 52.4633 8.6604 52.4298C8.61462 52.3848 8.56883 52.3398 8.52166 52.2935C8.47709 52.2499 8.43252 52.2063 8.3866 52.1614C8.25316 52.0233 8.12723 51.883 8.00169 51.738C7.75131 51.451 7.48409 51.1843 7.21161 50.9182C6.94551 50.6585 6.68379 50.3989 6.44074 50.1174C6.17416 49.8093 5.88517 49.526 5.59405 49.2411C5.2553 48.9096 4.92533 48.5764 4.61689 48.2165C4.55115 48.1412 4.48297 48.068 4.41223 47.9974C4.23868 47.8175 4.15387 47.6755 4.13657 47.4298C4.15575 47.1188 4.29645 46.9719 4.51568 46.7589C4.73897 46.6478 4.95005 46.6426 5.18966 46.6918Z" fill="white"/>
<path d="M35.7884 46.6918C35.9923 46.8083 36.1535 46.9492 36.2602 47.1614C36.3223 47.6095 36.3223 47.6095 36.1704 47.8262C36.1313 47.868 36.0922 47.9098 36.0519 47.9529C36.009 47.9994 35.966 48.0459 35.9218 48.0939C35.8557 48.1636 35.8557 48.1636 35.7884 48.2348C35.7298 48.2985 35.7298 48.2985 35.67 48.3635C35.5517 48.4919 35.4322 48.6193 35.3124 48.7464C35.2691 48.7923 35.2258 48.8383 35.1813 48.8856C34.8478 49.238 34.5072 49.5824 34.1595 49.9208C33.9658 50.1106 33.7817 50.3044 33.6043 50.5095C33.3153 50.8423 33.0007 51.1471 32.6854 51.4549C32.3228 51.8117 31.9607 52.1719 31.6771 52.5954C31.7251 52.6425 31.7732 52.6895 31.8227 52.738C32.152 53.0621 32.4724 53.3875 32.7728 53.7388C32.9069 53.8887 33.0492 54.0276 33.1936 54.1677C33.991 54.9602 33.991 54.9602 34.0192 55.3585C33.9555 55.6808 33.8652 55.7899 33.6316 56.0168C33.4087 56.1277 33.1967 56.1347 32.9577 56.0839C32.7516 55.9527 32.5885 55.7883 32.4185 55.6143C32.3782 55.5757 32.3378 55.5371 32.2963 55.4974C32.0933 55.3017 31.9036 55.0978 31.7192 54.8847C31.4512 54.5753 31.1607 54.2906 30.8683 54.0042C30.7559 53.8925 30.6436 53.7807 30.5313 53.6688C30.5052 53.6968 30.4791 53.7248 30.4522 53.7537C30.3312 53.8834 30.2101 54.013 30.089 54.1426C30.048 54.1866 30.0069 54.2307 29.9646 54.2761C29.7634 54.4912 29.5605 54.7034 29.35 54.9096C29.1877 55.0696 29.0353 55.2343 28.8864 55.4067C28.5843 55.755 28.2537 56.0733 27.9241 56.3955C27.6528 56.6626 27.3956 56.9356 27.1467 57.2235C26.9301 57.4671 26.698 57.6952 26.4664 57.9246C26.3941 57.9969 26.3941 57.9969 26.3204 58.0706C26.2743 58.1164 26.2282 58.1622 26.1807 58.2094C26.1393 58.2506 26.0978 58.2918 26.0551 58.3343C25.8583 58.5141 25.6804 58.525 25.4162 58.5231C25.1654 58.4805 25.0449 58.342 24.8699 58.1635C24.7584 57.9416 24.752 57.7308 24.8025 57.4927C24.9334 57.2884 25.103 57.1271 25.2743 56.956C25.3602 56.8584 25.4459 56.7606 25.5312 56.6625C25.8891 56.2663 26.2705 55.8937 26.6519 55.5201C26.8854 55.2903 27.1134 55.0599 27.3273 54.8119C27.654 54.4336 28.0158 54.09 28.3727 53.7403C28.9927 53.161 28.9927 53.161 29.453 52.4612C29.4146 52.4239 29.3763 52.3865 29.3369 52.348C29.0428 52.0587 28.7613 51.7649 28.4923 51.4526C28.3681 51.3135 28.2382 51.183 28.105 51.0524C27.9298 50.8807 27.7638 50.7057 27.6037 50.5199C27.4306 50.3193 27.2495 50.1313 27.0603 49.9455C26.1693 49.0692 26.1693 49.0692 26.121 48.6499C26.1276 48.3257 26.2591 48.1884 26.4874 47.9665C26.7102 47.8556 26.9225 47.8485 27.1614 47.8994C27.5596 48.1687 27.8866 48.5542 28.2103 48.9057C28.4953 49.2132 28.7832 49.5156 29.0818 49.8101C29.1974 49.9261 29.3052 50.0468 29.4108 50.1719C29.6788 50.4813 29.9694 50.7661 30.2617 51.0524C30.3741 51.1642 30.4864 51.276 30.5987 51.3879C30.8303 51.1591 31.0616 50.93 31.2927 50.7008C31.3711 50.6231 31.4496 50.5454 31.5282 50.4678C31.9121 50.0884 32.2921 49.7107 32.6432 49.3006C32.9183 48.9905 33.2227 48.7066 33.519 48.4167C33.8027 48.1371 34.0739 47.8524 34.3342 47.5511C34.4824 47.3818 34.6387 47.2236 34.7985 47.065C34.8552 47.0084 34.9119 46.9517 34.9704 46.8934C35.2164 46.6637 35.4604 46.6361 35.7884 46.6918Z" fill="white"/>
<path d="M16.7147 23.9497C17.1802 24.273 17.5711 24.7262 17.97 25.1255C18.0372 25.1925 18.1045 25.2595 18.1717 25.3265C18.3469 25.5012 18.5219 25.676 18.6969 25.8509C18.8762 26.0301 19.0556 26.209 19.2351 26.3879C19.5859 26.7378 19.9364 27.0879 20.2868 27.4381C20.538 27.3339 20.6958 27.1807 20.8859 26.9891C20.9337 26.9413 20.9337 26.9413 20.9823 26.8925C21.0512 26.8235 21.1198 26.7544 21.1883 26.6851C21.2968 26.5754 21.4057 26.4661 21.5147 26.3569C21.7461 26.1251 21.9769 25.8928 22.2077 25.6604C22.4751 25.391 22.7428 25.1218 23.011 24.8532C23.1182 24.7457 23.225 24.6377 23.3318 24.5297C23.3977 24.4636 23.4636 24.3976 23.5295 24.3316C23.5867 24.2739 23.644 24.2162 23.703 24.1568C23.9472 23.9375 24.0613 23.8815 24.3939 23.8868C24.608 23.9214 24.6813 23.9594 24.8657 24.0922C25.0349 24.3269 25.0721 24.4664 25.0721 24.7547C24.9431 25.0665 24.7769 25.2745 24.5376 25.5108C24.5047 25.5436 24.4718 25.5764 24.4379 25.6101C24.3301 25.7173 24.2216 25.8238 24.113 25.9303C24.0377 26.0049 23.9624 26.0795 23.8872 26.1542C23.6899 26.3498 23.4919 26.5449 23.2939 26.7398C23.0916 26.9391 22.8898 27.139 22.688 27.3388C22.2926 27.7303 21.8965 28.1211 21.5 28.5115C21.5869 28.702 21.677 28.8379 21.8274 28.9836C21.8661 29.0214 21.9048 29.0593 21.9446 29.0983C21.9863 29.1384 22.0279 29.1785 22.0708 29.2198C22.1588 29.3061 22.2468 29.3923 22.3349 29.4786C22.4736 29.6138 22.6125 29.7488 22.7515 29.8836C22.8859 30.0141 23.0197 30.1452 23.1534 30.2764C23.195 30.3164 23.2366 30.3564 23.2795 30.3976C23.4888 30.6034 23.6488 30.7691 23.7242 31.0608C23.719 31.3455 23.6852 31.4908 23.5177 31.7232C23.3077 31.8745 23.1762 31.9189 22.9262 31.9562C22.5124 31.8899 22.1896 31.4967 21.9091 31.2128C21.8663 31.17 21.8235 31.1272 21.7794 31.0831C21.6438 30.9474 21.5087 30.8112 21.3736 30.675C21.2814 30.5825 21.189 30.49 21.0967 30.3975C20.8713 30.1717 20.6464 29.9455 20.4216 29.7191C20.2303 29.8055 20.0937 29.8952 19.9474 30.0449C19.9093 30.0834 19.8713 30.1219 19.8321 30.1616C19.7918 30.203 19.7515 30.2445 19.71 30.2872C19.6234 30.3748 19.5367 30.4624 19.45 30.55C19.3142 30.6881 19.1786 30.8263 19.0432 30.9648C18.9121 31.0985 18.7803 31.2317 18.6485 31.3648C18.6083 31.4062 18.5682 31.4476 18.5268 31.4903C18.32 31.6986 18.1536 31.8579 17.8605 31.9329C17.5744 31.9278 17.4284 31.8942 17.195 31.7274C17.043 31.5184 16.9984 31.3875 16.9609 31.1386C17.0275 30.7267 17.4226 30.4054 17.7078 30.1263C17.7508 30.0837 17.7938 30.0411 17.8381 29.9972C17.9745 29.8622 18.1112 29.7277 18.2481 29.5933C18.341 29.5014 18.434 29.4095 18.5269 29.3176C18.7537 29.0933 18.981 28.8694 19.2085 28.6457C19.1038 28.3957 18.9501 28.2393 18.7574 28.0504C18.7093 28.0031 18.7093 28.0031 18.6603 27.9548C18.591 27.8865 18.5215 27.8184 18.4519 27.7504C18.3417 27.6427 18.2319 27.5346 18.1222 27.4263C17.8104 27.1186 17.4978 26.8118 17.1849 26.5051C16.9934 26.3173 16.8023 26.1291 16.6115 25.9405C16.5389 25.8688 16.466 25.7974 16.3929 25.7262C16.2906 25.6265 16.189 25.5262 16.0875 25.4257C16.0295 25.3689 15.9716 25.312 15.9119 25.2534C15.7027 25.0107 15.6349 24.839 15.6406 24.5199C15.7157 24.2407 15.8197 24.1321 16.0408 23.9497C16.2666 23.8373 16.4821 23.8775 16.7147 23.9497Z" fill="white"/>
<path d="M29.5912 35.8069C29.6562 35.8486 29.6562 35.8486 29.7225 35.8911C29.7694 35.9195 29.8162 35.948 29.8645 35.9773C30.3512 36.3036 30.6731 36.7774 30.8365 37.3373C30.9531 37.9372 30.8933 38.505 30.5987 39.0441C30.1733 39.637 29.6416 40.0472 28.9138 40.1846C28.2262 40.2533 27.6358 40.0817 27.094 39.6479C26.5903 39.1886 26.3426 38.7086 26.26 38.0323C26.2334 37.3891 26.433 36.8543 26.8355 36.3531C27.5307 35.6419 28.6708 35.3061 29.5912 35.8069Z" fill="black"/>
<path d="M12.3807 35.2771C12.8374 35.6509 13.2088 36.1016 13.298 36.6996C13.3492 37.2684 13.3301 37.8166 13.0078 38.3062C12.9792 38.3527 12.9507 38.3992 12.9212 38.4472C12.594 38.9316 12.1172 39.2533 11.5546 39.4147C10.897 39.5426 10.3552 39.436 9.77272 39.1112C9.28761 38.7813 8.94208 38.3275 8.76175 37.7695C8.66257 37.0327 8.72458 36.3753 9.16614 35.7569C9.94009 34.7664 11.341 34.5676 12.3807 35.2771Z" fill="black"/>
<path d="M31.4146 40.4102C32.1573 40.5728 32.869 40.7451 33.3621 41.3586C33.4471 41.5703 33.462 41.7023 33.4295 41.9288C33.1732 42.4288 32.8021 42.6392 32.2895 42.8062C31.0268 43.1992 29.6244 43.241 28.4041 42.6793C28.0443 42.4879 27.8177 42.2961 27.6332 41.9288C27.6158 41.6635 27.6269 41.4863 27.768 41.258C27.8266 41.2685 27.8851 41.2791 27.9455 41.2899C28.834 41.4274 29.7222 41.2767 30.4808 40.78C30.6139 40.6819 30.7415 40.5804 30.8683 40.4744C31.0539 40.3525 31.2008 40.3774 31.4146 40.4102Z" fill="white"/>
<path d="M8.71227 39.674C8.79926 39.7549 8.88397 39.8383 8.96633 39.924C9.44676 40.3822 10.2109 40.5909 10.8631 40.5858C10.9116 40.5837 10.9601 40.5816 11.0101 40.5794C11.0589 40.5773 11.1076 40.5753 11.1578 40.5732C11.2578 40.5683 11.3576 40.5622 11.4574 40.5549C11.6041 40.55 11.6041 40.55 11.8621 40.587C12.0354 40.7851 12.1169 40.9278 12.178 41.1823C12.1045 41.5149 11.9236 41.7171 11.6599 41.9287C11.4193 42.0464 11.1768 42.1273 10.9185 42.197C10.8775 42.2088 10.8366 42.2205 10.7944 42.2326C9.54851 42.5024 8.06797 42.2468 6.98513 41.6004C6.70023 41.409 6.48833 41.1597 6.33544 40.8553C6.29337 40.6355 6.30232 40.5032 6.42653 40.3142C6.65813 40.0384 6.8682 39.843 7.21161 39.7148C7.27973 39.6886 7.34784 39.6623 7.41802 39.6352C7.82357 39.5329 8.34289 39.4483 8.71227 39.674Z" fill="white"/>
<path d="M16.7821 40.3186C16.9359 40.4635 16.9359 40.4635 17.0854 40.6582C17.5668 41.219 18.2563 41.6 19.0063 41.6603C20.0508 41.7298 20.886 41.5837 21.7696 40.9895C21.9718 40.8553 21.9718 40.8553 22.2161 40.8721C22.2912 40.8887 22.3662 40.9053 22.4436 40.9224C22.5441 41.1224 22.5453 41.2367 22.511 41.4591C21.9305 42.1056 20.9324 42.4849 20.0794 42.5418C18.8269 42.598 17.7273 42.3999 16.7526 41.5597C16.2065 41.0446 16.2065 41.0446 16.1461 40.675C16.1755 40.5199 16.1755 40.5199 16.2514 40.3983C16.4392 40.2799 16.5634 40.2917 16.7821 40.3186Z" fill="black"/>
<path d="M28.0287 36.5408C28.3224 36.6914 28.4964 36.8653 28.6442 37.1655C28.6882 37.516 28.6338 37.7415 28.442 38.0377C28.1441 38.312 27.9122 38.3984 27.5027 38.3917C27.2676 38.3602 27.1342 38.2586 26.9593 38.1047C26.7674 37.831 26.7136 37.5776 26.7242 37.2494C26.7829 36.98 26.9521 36.8014 27.1615 36.6289C27.444 36.4643 27.713 36.4251 28.0287 36.5408Z" fill="white"/>
<path d="M10.5141 35.8238C10.7599 35.9643 10.9739 36.1511 11.0533 36.4276C11.0957 36.8568 11.0438 37.0864 10.7837 37.4338C10.5122 37.6286 10.2532 37.6784 9.92436 37.6679C9.65375 37.6094 9.47425 37.4409 9.30093 37.2326C9.1509 36.9774 9.13581 36.7914 9.16613 36.4946C9.27959 36.1714 9.46411 35.9493 9.77324 35.7968C10.0304 35.72 10.2603 35.7439 10.5141 35.8238Z" fill="white"/>
</g>
<defs>
<clipPath id="clip0_923_45">
<rect width="43" height="64" fill="white"/>
</clipPath>
</defs>
</svg>
