<svg width="64" height="64" viewBox="0 0 64 64" fill="none" xmlns="http://www.w3.org/2000/svg">
<mask id="mask0_922_9" style="mask-type:luminance" maskUnits="userSpaceOnUse" x="0" y="13" width="64" height="39">
<path d="M0 13H64V51.4H0V13Z" fill="white"/>
</mask>
<g mask="url(#mask0_922_9)">
<path fill-rule="evenodd" clip-rule="evenodd" d="M32 13C23.4667 13 18.1333 17.2667 16 25.8C19.2 21.5333 22.9333 19.9333 27.2 21C29.6344 21.608 31.3742 23.3751 33.3001 25.3295C36.4373 28.5141 40.0687 32.2 48 32.2C56.5333 32.2 61.8667 27.9333 64 19.4C60.8 23.6667 57.0667 25.2667 52.8 24.2C50.3656 23.592 48.6258 21.8249 46.6999 19.8705C43.5627 16.6859 39.9313 13 32 13ZM16 32.2C7.46667 32.2 2.13333 36.4667 0 45C3.2 40.7333 6.93333 39.1333 11.2 40.2C13.6344 40.8092 15.3742 42.5751 17.3001 44.5295C20.4373 47.7141 24.0687 51.4 32 51.4C40.5333 51.4 45.8667 47.1333 48 38.6C44.8 42.8667 41.0667 44.4667 36.8 43.4C34.3656 42.792 32.6258 41.0249 30.6999 39.0705C27.5627 35.8859 23.9313 32.2 16 32.2Z" fill="white"/>
</g>
</svg>
