<svg width="64" height="64" viewBox="0 0 64 64" fill="none" xmlns="http://www.w3.org/2000/svg">
<g clip-path="url(#clip0_916_17)">
<path fill-rule="evenodd" clip-rule="evenodd" d="M51.0132 36.6019C50.4618 39.2628 48.0069 46.0879 40.183 49.7849L37.0433 46.2527L31.7449 51.5825C28.7281 51.5419 25.7616 50.8043 23.0771 49.4273C20.3926 48.0503 18.0628 46.0713 16.2699 43.6448C16.8336 43.8201 17.4157 43.9294 18.0046 43.9705C18.8719 43.9862 19.8119 43.6683 19.8119 42.2044V27.8302C19.8249 27.4603 19.7509 27.0925 19.5959 26.7564C19.441 26.4203 19.2093 26.1252 18.9196 25.8949C18.6299 25.6645 18.2903 25.5054 17.9279 25.4301C17.5655 25.3549 17.1905 25.3657 16.8331 25.4617C14.3801 26.0229 12.4178 32.1474 12.4178 32.1474C12.3905 29.3191 12.9795 26.5189 14.1439 23.9414C15.3084 21.3638 17.0202 19.0708 19.1604 17.2218C22.8143 14.1252 26.3838 13.0537 29.0958 12.6338C26.4172 14.1605 24.9101 16.6527 24.9101 18.7445C24.9101 22.0982 26.9352 21.7018 27.5357 21.2073V40.6188C27.6372 40.8627 27.7691 41.0928 27.9282 41.3037C28.1964 41.6746 28.5497 41.9759 28.9584 42.1821C29.3671 42.3883 29.8193 42.4936 30.2771 42.4889C32.3062 42.4889 34.9377 40.1734 34.9377 40.1734V24.455C34.9377 22.8557 33.7328 20.9227 32.5259 20.2634C32.5259 20.2634 34.7591 19.8709 36.486 21.1877C36.8098 20.791 37.1544 20.4118 37.5182 20.0515C41.5331 16.1071 45.3224 14.9886 48.4779 14.4274C48.4779 14.4274 42.7341 18.9408 42.7341 24.9848C42.7341 29.4845 42.8499 40.4559 42.8499 40.4559C44.9868 42.5086 48.1521 39.5454 51.0132 36.6019Z" fill="white"/>
<path fill-rule="evenodd" clip-rule="evenodd" d="M31.998 2.40712e-07C25.669 0.000388368 19.4823 1.87754 14.2201 5.39406C8.95797 8.91059 4.85676 13.9086 2.43512 19.7559C0.0134716 25.6033 -0.619839 32.0375 0.615269 38.2448C1.85038 44.4521 4.89843 50.1538 9.37398 54.6288C13.8495 59.1038 19.5516 62.1512 25.759 63.3855C31.9665 64.6198 38.4006 63.9857 44.2477 61.5634C50.0948 59.141 55.0922 55.0392 58.6081 49.7766C62.124 44.514 64.0004 38.327 64 31.998C64 27.7957 63.1722 23.6344 61.5639 19.752C59.9556 15.8696 57.5983 12.342 54.6266 9.37062C51.6549 6.39928 48.127 4.0424 44.2444 2.43458C40.3617 0.826758 36.2004 -0.000515198 31.998 2.40712e-07ZM31.998 62.7186C25.922 62.719 19.9823 60.9176 14.9301 57.5422C9.87786 54.1668 5.94003 49.369 3.61456 43.7556C1.2891 38.1422 0.680451 31.9653 1.86559 26.006C3.05073 20.0466 5.97642 14.5726 10.2727 10.276C14.569 5.97948 20.0428 3.05344 26.0021 1.86792C31.9613 0.6824 38.1383 1.29066 43.7519 3.61576C49.3654 5.94087 54.1634 9.8784 57.5391 14.9304C60.9148 19.9824 62.7166 25.922 62.7166 31.998C62.7166 40.1453 59.4803 47.9589 53.7195 53.72C47.9587 59.4812 40.1453 62.7181 31.998 62.7186Z" fill="white"/>
</g>
<defs>
<clipPath id="clip0_916_17">
<rect width="64" height="64" fill="white"/>
</clipPath>
</defs>
</svg>
