<svg width="64" height="64" viewBox="0 0 64 64" fill="none" xmlns="http://www.w3.org/2000/svg">
<path d="M1.74359 2.07049C2.14867 2.06613 2.14867 2.06613 2.56194 2.06167C2.85504 2.05999 3.14814 2.05832 3.45011 2.05659C3.75 2.05476 4.04989 2.05293 4.35887 2.05104C4.99435 2.04763 5.62983 2.0454 6.26532 2.04369C7.07907 2.04118 7.89268 2.03337 8.70638 2.02437C9.33228 2.01843 9.95815 2.01654 10.5841 2.01572C11.0298 2.01408 11.4755 2.00808 11.9211 2.00202C12.3284 2.00302 12.3284 2.00302 12.7438 2.00403C12.9827 2.0027 13.2216 2.00137 13.4677 2C14.2514 2.13898 14.5058 2.40986 15.0008 3.01806C15.3456 3.56891 15.3456 3.56891 15.6738 4.18955C15.798 4.42239 15.9223 4.65524 16.0503 4.89514C16.1821 5.14597 16.3139 5.3968 16.4497 5.65524C16.6622 6.05434 16.8747 6.45345 17.0873 6.85248C17.3075 7.26625 17.527 7.68038 17.7464 8.09458C18.4249 9.37403 19.1139 10.6478 19.8022 11.9221C19.9341 12.1668 20.066 12.4116 20.2019 12.6637C21.0469 14.2303 21.9 15.7922 22.7569 17.3524C23.7954 19.2446 24.8007 21.1524 25.7954 23.0679C26.6983 24.802 27.63 26.5191 28.5717 28.2324C29.2531 29.4729 29.9244 30.718 30.584 31.9703C31.3608 33.4404 32.1467 34.9054 32.9421 36.3655C33.0496 36.5652 33.1572 36.7648 33.268 36.9705C33.3688 37.1545 33.4695 37.3385 33.5734 37.5282C33.6627 37.6925 33.752 37.8569 33.8441 38.0262C34.071 38.4442 34.071 38.4442 34.5473 38.6341C34.6772 38.3918 34.6772 38.3918 34.8098 38.1446C36.3858 35.2057 37.9631 32.2675 39.5476 29.3331C41.0732 26.5074 42.5922 23.6782 44.11 20.8483C44.7888 19.5827 45.4679 18.3172 46.147 17.0518C46.3575 16.6595 46.568 16.2672 46.7785 15.8748C46.9096 15.6305 47.0407 15.3861 47.1758 15.1343C47.3666 14.7782 47.3666 14.7782 47.5611 14.4149C47.8419 13.8939 48.1246 13.3744 48.4099 12.856C48.4839 12.7209 48.5578 12.5858 48.634 12.4466C48.8407 12.0695 49.0483 11.6929 49.256 11.3163C49.5819 10.7724 49.5819 10.7724 49.5481 10.2774C49.0339 9.92635 48.5198 9.60308 47.9855 9.28489C46.4148 8.32901 44.8799 7.33079 43.3552 6.30362C42.5 5.73027 41.6401 5.1701 40.7612 4.63351C40.5088 4.47932 40.5088 4.47932 40.2512 4.32203C39.9315 4.12825 39.6107 3.93616 39.2888 3.74603C38.2086 3.09203 38.2086 3.09203 37.9566 2.3375C38.1839 2.11065 38.1839 2.11065 38.6129 2.08273C38.8021 2.08294 38.9913 2.08315 39.1862 2.08337C39.4026 2.08306 39.6191 2.08274 39.842 2.08242C40.0814 2.08324 40.3207 2.08405 40.5673 2.08489C40.9431 2.08484 40.9431 2.08484 41.3265 2.08479C42.1591 2.08495 42.9917 2.08672 43.8243 2.08849C44.3998 2.08892 44.9753 2.08924 45.5508 2.08947C46.9135 2.09025 48.2763 2.09204 49.6391 2.09431C51.1902 2.09684 52.7413 2.09809 54.2924 2.09923C57.484 2.1016 60.6755 2.1056 63.8671 2.11065C64.142 3.14328 63.9853 3.60025 63.445 4.53094C63.3452 4.69609 63.2454 4.86123 63.1426 5.03139C62.9297 5.39786 62.7175 5.76474 62.506 6.13198C62.3374 6.42335 62.3374 6.42335 62.1654 6.72061C61.5776 7.75923 61.0335 8.82012 60.4862 9.88038C59.4995 11.782 58.4883 13.6679 57.4555 15.5449C56.7791 16.7762 56.1108 18.0115 55.4504 19.2514C55.3711 19.4002 55.2918 19.5491 55.2101 19.7025C54.8207 20.4336 54.4321 21.1651 54.0443 21.897C53.1695 23.5441 52.2654 25.1696 51.3267 26.7813C50.8909 27.5554 50.494 28.3375 50.1021 29.1346C49.496 30.3664 48.831 31.5433 48.1276 32.7217C47.6993 33.4698 47.3149 34.2312 46.9343 35.0044C46.4384 36.0122 45.919 36.989 45.3433 37.9535C44.7199 39.0002 44.1651 40.0649 43.6284 41.1579C43.0294 42.3668 42.386 43.549 41.7352 44.7308C40.67 46.6665 39.6228 48.611 38.5865 50.5622C38.3403 51.0256 38.0939 51.4889 37.8473 51.9521C37.1067 53.3441 36.3672 54.7366 35.6321 56.1315C35.3217 56.7199 35.0099 57.3076 34.6979 57.8952C34.5516 58.1714 34.406 58.4478 34.2609 58.7247C34.0605 59.1071 33.8578 59.4885 33.655 59.8697C33.4848 60.1924 33.4848 60.1924 33.3112 60.5217C32.9482 61.1056 32.5524 61.5361 32.0472 62C30.9209 60.4172 30.0271 58.7531 29.1493 57.0234C28.2461 55.2608 27.3381 53.5029 26.365 51.7774C24.8881 49.1558 23.4703 46.5024 22.0466 43.8517C21.9079 43.5935 21.7692 43.3353 21.6262 43.0692C20.5573 41.0793 19.4895 39.0888 18.4219 37.0981C17.9209 36.1639 17.4197 35.2297 16.9185 34.2955C16.7772 34.032 16.6358 33.7685 16.4901 33.4971C15.4169 31.4977 14.3393 29.5007 13.2607 27.5042C12.1559 25.4573 11.0606 23.4054 9.96622 21.3528C8.98466 19.5124 7.99395 17.6773 6.98901 15.8495C5.96058 13.9786 4.96519 12.0923 3.98276 10.197C3.04465 8.39256 2.07127 6.60866 1.07827 4.83378C0.915885 4.54076 0.915885 4.54076 0.750218 4.24183C0.654503 4.07071 0.558789 3.89958 0.460174 3.72327C0.235268 3.26131 0.103745 2.83906 0 2.3375C0.603673 2.03624 1.06757 2.07682 1.74359 2.07049Z" fill="#F5F5F5"/>
</svg>
