<svg width="32" height="32" viewBox="0 0 32 32" fill="none" xmlns="http://www.w3.org/2000/svg">
<path d="M16.4299 16.0001C16.4299 14.7625 16.9267 13.5755 17.8109 12.7003C18.6951 11.8252 19.8944 11.3335 21.1449 11.3335C22.3954 11.3335 23.5946 11.8252 24.4788 12.7003C25.3631 13.5755 25.8598 14.7625 25.8598 16.0001C25.8598 17.2378 25.3631 18.4248 24.4788 19.3C23.5946 20.1751 22.3954 20.6668 21.1449 20.6668C19.8944 20.6668 18.6951 20.1751 17.8109 19.3C16.9267 18.4248 16.4299 17.2378 16.4299 16.0001Z" stroke="white" stroke-width="3.5"/>
<path d="M7 25.3332C7 24.0955 7.49675 22.9085 8.38098 22.0333C9.2652 21.1582 10.4645 20.6665 11.7149 20.6665H16.4299V25.3332C16.4299 26.5708 15.9331 27.7578 15.0489 28.633C14.1647 29.5081 12.9654 29.9998 11.7149 29.9998C10.4645 29.9998 9.2652 29.5081 8.38098 28.633C7.49675 27.7578 7 26.5708 7 25.3332Z" stroke="white" stroke-width="3.5"/>
<path d="M16.4299 2V11.3333H21.1449C22.3954 11.3333 23.5946 10.8416 24.4788 9.96646C25.3631 9.09129 25.8598 7.90434 25.8598 6.66665C25.8598 5.42898 25.3631 4.242 24.4788 3.36683C23.5946 2.49166 22.3954 2 21.1449 2H16.4299Z" stroke="white" stroke-width="3.5"/>
<path d="M7 6.66665C7 7.90434 7.49675 9.09129 8.38098 9.96646C9.2652 10.8416 10.4645 11.3333 11.7149 11.3333H16.4299V2H11.7149C10.4645 2 9.2652 2.49166 8.38098 3.36683C7.49675 4.242 7 5.42898 7 6.66665Z" stroke="white" stroke-width="3.5"/>
<path d="M7 16.0001C7 17.2378 7.49675 18.4248 8.38098 19.3C9.2652 20.1751 10.4645 20.6668 11.7149 20.6668H16.4299V11.3335H11.7149C10.4645 11.3335 9.2652 11.8252 8.38098 12.7003C7.49675 13.5755 7 14.7625 7 16.0001Z" stroke="white" stroke-width="3.5"/>
</svg>
