<svg width="29" height="28" fill="none" xmlns="http://www.w3.org/2000/svg"><path fill-rule="evenodd" clip-rule="evenodd" d="M14.6 0A14.3 14.3 0 0 0 10 28c.7 0 1-.3 1-.7v-2.7c-3.7.7-4.6-.9-5-1.7-.1-.4-.8-1.7-1.4-2-.5-.3-1.3-1 0-1 1.1 0 1.9 1 2.2 1.5C8 23.6 10.2 23 11 22.6a3 3 0 0 1 1-2c-3.3-.3-6.7-1.5-6.7-7 0-1.6.6-2.9 1.5-3.8-.1-.4-.6-1.9.2-3.9 0 0 1.2-.4 4 1.5 2.3-.7 4.8-.7 7.2 0 2.8-1.9 4-1.5 4-1.5.8 2 .3 3.5.2 3.9.9 1 1.5 2.2 1.5 3.8 0 5.5-3.4 6.7-6.7 7 .6.5 1 1.4 1 2.7v4c0 .4.3.8 1 .7a14.2 14.2 0 0 0 4.7-24.5C21.3 1.3 18 0 14.6 0Z" fill="#fff"/></svg>