<svg width="32" height="32" viewBox="0 0 32 32" fill="none" xmlns="http://www.w3.org/2000/svg">
<g clip-path="url(#clip0_910_84)">
<path fill-rule="evenodd" clip-rule="evenodd" d="M16.0632 2.64257e-05C12.251 -0.00697019 8.56109 1.37559 5.65532 3.89973C2.74954 6.42385 0.818015 9.9244 0.207198 13.7735C-0.403619 17.6225 0.346234 21.5683 2.32226 24.9031C4.29829 28.2377 7.3712 30.7432 10.9898 31.9701C11.804 32.0982 12.086 31.6176 12.086 31.1691V28.1259C8.04599 28.8947 7.01254 27.1329 6.66804 26.2039C6.51146 25.7234 5.72853 24.2818 5.03955 23.8975C4.47584 23.5771 3.66159 22.8082 5.00823 22.8082C6.29224 22.7762 7.16911 23.9935 7.48228 24.4741C8.92288 26.9727 11.2404 26.268 12.1485 25.8194C12.3051 24.7624 12.7123 24.0576 13.182 23.6411C9.61185 23.2247 5.88511 21.8152 5.88511 15.5366C5.88511 13.7426 6.51146 12.269 7.5136 11.1479C7.35702 10.7314 6.79331 9.03363 7.67019 6.79125C7.67019 6.79125 9.01683 6.34277 12.086 8.45702C14.708 7.70651 17.481 7.70651 20.1031 8.45702C23.1722 6.34277 24.5188 6.79125 24.5188 6.79125C25.3958 9.03363 24.832 10.7314 24.6754 11.1479C25.7089 12.269 26.3352 13.7426 26.3352 15.5366C26.3352 21.8472 22.5771 23.2247 19.007 23.6411C19.602 24.1537 20.1031 25.1467 20.1031 26.6843L20.0718 31.1691C20.0718 31.6176 20.385 32.1302 21.1679 31.9701C24.751 30.7072 27.7823 28.1893 29.726 24.8614C31.6697 21.5336 32.4008 17.6099 31.7899 13.784C31.179 9.95816 29.2655 6.47634 26.3876 3.95399C23.5098 1.43163 19.8529 0.0311347 16.0632 2.64257e-05Z" fill="white"/>
</g>
<defs>
<clipPath id="clip0_910_84">
<rect width="32" height="32" fill="white"/>
</clipPath>
</defs>
</svg>
