<svg width="32" height="32" viewBox="0 0 32 32" fill="none" xmlns="http://www.w3.org/2000/svg">
<g clip-path="url(#clip0_910_86)">
<path d="M31.307 15.0568L17.2097 1.33053L15.8432 0L5.23131 10.3326L0.379399 15.0568C0.136457 15.2937 0 15.6147 0 15.9495C0 16.2842 0.136457 16.6053 0.379399 16.8421L10.0746 26.2821L15.8432 31.8989L26.4551 21.5663L26.6194 21.4063L31.307 16.8421C31.5499 16.6053 31.6864 16.2842 31.6864 15.9495C31.6864 15.6147 31.5499 15.2937 31.307 15.0568ZM15.8432 20.6653L11 15.9495L15.8432 11.2337L20.6864 15.9495L15.8432 20.6653Z" fill="white"/>
<path d="M15.8432 11.2339C14.3199 9.75051 13.4613 7.74057 13.4549 5.64293C13.4484 3.54528 14.2946 1.53034 15.8086 0.0380859L5.20972 10.3539L10.9784 15.9707L15.8432 11.2339Z" fill="url(#paint0_linear_910_86)"/>
<path d="M20.6995 15.937L15.8433 20.6654C16.6011 21.4029 17.2023 22.2785 17.6124 23.2423C18.0226 24.206 18.2337 25.239 18.2337 26.2823C18.2337 27.3255 18.0226 28.3585 17.6124 29.3223C17.2023 30.286 16.6011 31.1616 15.8433 31.8991L26.4681 21.5539L20.6995 15.937Z" fill="url(#paint1_linear_910_86)"/>
</g>
<defs>
<linearGradient id="paint0_linear_910_86" x1="14.9784" y1="6.46335" x2="8.39544" y2="13.2242" gradientUnits="userSpaceOnUse">
<stop offset="0.18" stop-color="#EDEDED"/>
<stop offset="1" stop-color="white"/>
</linearGradient>
<linearGradient id="paint1_linear_910_86" x1="16.7687" y1="25.3812" x2="23.339" y2="18.6334" gradientUnits="userSpaceOnUse">
<stop offset="0.18" stop-color="#EDEDED"/>
<stop offset="1" stop-color="white"/>
</linearGradient>
<clipPath id="clip0_910_86">
<rect width="32" height="32" fill="white"/>
</clipPath>
</defs>
</svg>
