<svg width="74" height="76" viewBox="0 0 74 76" fill="none" xmlns="http://www.w3.org/2000/svg">
<path d="M72.3974 35.76L39.7974 3.16L36.6374 0L12.0974 24.54L0.87736 35.76C0.315558 36.3225 0 37.085 0 37.88C0 38.675 0.315558 39.4375 0.87736 40L23.2974 62.42L36.6374 75.76L61.1774 51.22L61.5574 50.84L72.3974 40C72.9592 39.4375 73.2747 38.675 73.2747 37.88C73.2747 37.085 72.9592 36.3225 72.3974 35.76ZM36.6374 49.08L25.4374 37.88L36.6374 26.68L47.8374 37.88L36.6374 49.08Z" fill="white"/>
<path d="M36.6374 26.6801C33.1148 23.1571 31.1293 18.3835 31.1143 13.4016C31.0993 8.41967 33.0561 3.63419 36.5574 0.0900879L12.0474 24.5901L25.3874 37.9301L36.6374 26.6801Z" fill="url(#paint0_linear_7_20)"/>
<path d="M47.8674 37.8501L36.6374 49.0801C38.3899 50.8316 39.7801 52.9112 40.7286 55.2001C41.6771 57.489 42.1653 59.9424 42.1653 62.4201C42.1653 64.8978 41.6771 67.3512 40.7286 69.6401C39.7801 71.929 38.3899 74.0086 36.6374 75.7601V75.7601L61.2074 51.1901L47.8674 37.8501Z" fill="url(#paint1_linear_7_20)"/>
<defs>
<linearGradient id="paint0_linear_7_20" x1="34.6374" y1="15.3501" x2="18.9974" y2="30.9901" gradientUnits="userSpaceOnUse">
<stop offset="0.18" stop-color="#EDEDED"/>
<stop offset="1" stop-color="white"/>
</linearGradient>
<linearGradient id="paint1_linear_7_20" x1="38.7774" y1="60.2801" x2="54.3874" y2="44.6701" gradientUnits="userSpaceOnUse">
<stop offset="0.18" stop-color="#EDEDED"/>
<stop offset="1" stop-color="white"/>
</linearGradient>
</defs>
</svg>
