<svg width="32" height="32" viewBox="0 0 32 32" fill="none" xmlns="http://www.w3.org/2000/svg">
<path d="M2.87671 8.05895L16.4722 0.143066L30.0676 8.05895V23.8778L16.4722 31.7938L2.87671 23.8778V8.05895Z" fill="white"/>
<path d="M16.8533 15.9616L29.4958 8.68115L30.004 23.3565L16.8533 31.2978V15.9616Z" fill="#101010"/>
<path d="M29.6863 8.23682L29.6482 23.7889L16.4594 31.4379L16.3958 16.1526L29.6863 8.23682ZM18.594 17.4231L18.632 27.6388L23.0156 25.0848L23.0029 17.3851L25.2138 16.0763V23.8016L27.4246 22.5056L27.4373 12.1629L18.5938 17.4233L18.594 17.4231Z" fill="white"/>
<path d="M17.3362 0.257296C16.7262 -0.0857655 15.7478 -0.0857655 15.138 0.257296L3.09273 7.18207C2.48277 7.52514 2 8.38916 2 9.07527V22.9248C2 23.6236 2.4955 24.4749 3.09273 24.818L15.138 31.7427C15.7478 32.0858 16.7262 32.0858 17.3362 31.7427L29.3813 24.818C29.9912 24.4749 30.4741 23.6109 30.4741 22.9248V9.07527C30.4741 8.37642 29.9785 7.52514 29.3814 7.18207L17.3362 0.257296ZM28.0219 7.49967C28.6317 7.84274 28.6317 8.4145 28.0219 8.75757L17.4758 14.8184C16.8661 15.1613 15.8876 15.1613 15.2778 14.8184L4.57921 8.66868C3.96926 8.32561 3.96926 7.75384 4.57921 7.41077L15.1251 1.35002C15.7351 1.00696 16.7133 1.00696 17.3233 1.35002L28.0219 7.49967ZM2.94018 10.079C2.94018 9.38026 3.43579 9.10074 4.03291 9.44368L14.8204 15.6443C15.4301 15.9874 15.913 16.8514 15.913 17.5375V29.8369C15.913 30.5358 15.4175 30.8151 14.8204 30.4721L4.03291 24.2716C3.42306 23.9285 2.94018 23.0645 2.94018 22.3784V10.079ZM17.9714 30.2815C17.3615 30.6246 16.8787 30.3452 16.8787 29.6463V17.5375C16.8787 16.8386 17.3742 15.9874 17.9714 15.6443L28.4411 9.63432C29.0511 9.29125 29.5338 9.57078 29.5338 10.2696V22.3784C29.5338 23.0773 29.0383 23.9285 28.4411 24.2716L17.9714 30.2815Z" fill="#101010"/>
</svg>
