<svg width="200" height="225" viewBox="0 0 200 225" fill="none" xmlns="http://www.w3.org/2000/svg">
<path d="M6.1582 56.6046L101.652 1.00403L197.145 56.6046V167.715L101.652 223.316L6.1582 167.715V56.6046Z" fill="white"/>
<path d="M104.328 112.115L193.128 60.9775L196.698 164.056L104.328 219.835V112.115Z" fill="#101010"/>
<path d="M194.467 57.8541L194.199 167.091L101.562 220.817L101.115 113.454L194.467 57.8541ZM116.555 122.378L116.822 194.132L147.612 176.193L147.523 122.111L163.052 112.918V167.18L178.581 158.077L178.67 85.4308L116.554 122.379L116.555 122.378Z" fill="white"/>
<path d="M107.72 1.80723C103.436 -0.60241 96.5636 -0.60241 92.2801 1.80723L7.67523 50.4463C3.39091 52.856 0 58.9248 0 63.744V161.022C0 165.93 3.48033 171.91 7.67523 174.32L92.2801 222.958C96.5636 225.368 103.436 225.368 107.72 222.958L192.324 174.32C196.608 171.91 200 165.841 200 161.022V63.744C200 58.8353 196.519 52.856 192.325 50.4463L107.72 1.80723ZM182.776 52.6771C187.059 55.0868 187.059 59.1028 182.776 61.5125L108.701 104.083C104.418 106.492 97.5457 106.492 93.2621 104.083L18.1162 60.8881C13.8319 58.4784 13.8319 54.4624 18.1162 52.0527L92.1898 9.48246C96.4742 7.07282 103.345 7.07282 107.63 9.48246L182.774 52.6771H182.776ZM6.60376 70.7941C6.60376 65.8862 10.0849 63.9229 14.279 66.3317L90.0493 109.884C94.332 112.294 97.7237 118.363 97.7237 123.182V209.572C97.7237 214.481 94.2434 216.443 90.0493 214.034L14.279 170.482C9.99545 168.072 6.60376 162.003 6.60376 157.184V70.7941ZM112.182 212.695C107.898 215.105 104.507 213.142 104.507 208.233V123.182C104.507 118.273 107.987 112.294 112.182 109.884L185.72 67.6707C190.005 65.261 193.395 67.2244 193.395 72.1331V157.184C193.395 162.093 189.915 168.072 185.72 170.482L112.182 212.695Z" fill="#101010"/>
</svg>
