<svg width="32" height="32" viewBox="0 0 32 32" fill="none" xmlns="http://www.w3.org/2000/svg">
<path d="M19.75 1C18.7129 1 17.875 1.83789 17.875 2.875C17.875 3.91211 18.7129 4.75 19.75 4.75H24.5957L12.8008 16.5508C12.0684 17.2832 12.0684 18.4727 12.8008 19.2051C13.5332 19.9375 14.7227 19.9375 15.4551 19.2051L27.25 7.4043V12.25C27.25 13.2871 28.0879 14.125 29.125 14.125C30.1621 14.125 31 13.2871 31 12.25V2.875C31 1.83789 30.1621 1 29.125 1H19.75ZM5.6875 2.875C3.09766 2.875 1 4.97266 1 7.5625V26.3125C1 28.9023 3.09766 31 5.6875 31H24.4375C27.0273 31 29.125 28.9023 29.125 26.3125V19.75C29.125 18.7129 28.2871 17.875 27.25 17.875C26.2129 17.875 25.375 18.7129 25.375 19.75V26.3125C25.375 26.8281 24.9531 27.25 24.4375 27.25H5.6875C5.17187 27.25 4.75 26.8281 4.75 26.3125V7.5625C4.75 7.04687 5.17187 6.625 5.6875 6.625H12.25C13.2871 6.625 14.125 5.78711 14.125 4.75C14.125 3.71289 13.2871 2.875 12.25 2.875H5.6875Z" fill="white"/>
</svg>
