<svg width="512" height="512" viewBox="0 0 512 512" fill="none" xmlns="http://www.w3.org/2000/svg">
<g clip-path="url(#clip0_909_4)">
<path d="M320 0C302.3 0 288 14.3 288 32C288 49.7 302.3 64 320 64H402.7L201.4 265.4C188.9 277.9 188.9 298.2 201.4 310.7C213.9 323.2 234.2 323.2 246.7 310.7L448 109.3V192C448 209.7 462.3 224 480 224C497.7 224 512 209.7 512 192V32C512 14.3 497.7 0 480 0H320ZM80 32C35.8 32 0 67.8 0 112V432C0 476.2 35.8 512 80 512H400C444.2 512 480 476.2 480 432V320C480 302.3 465.7 288 448 288C430.3 288 416 302.3 416 320V432C416 440.8 408.8 448 400 448H80C71.2 448 64 440.8 64 432V112C64 103.2 71.2 96 80 96H192C209.7 96 224 81.7 224 64C224 46.3 209.7 32 192 32H80Z" fill="white"/>
</g>
<defs>
<clipPath id="clip0_909_4">
<rect width="512" height="512" fill="white"/>
</clipPath>
</defs>
</svg>
