<svg width="32" height="32" viewBox="0 0 32 32" fill="none" xmlns="http://www.w3.org/2000/svg">
<g clip-path="url(#clip0_910_65)">
<path d="M10.3062 1.53744C9.825 0.374944 8.55625 -0.243806 7.34375 0.0874444L1.84375 1.58744C0.75625 1.88744 0 2.87494 0 3.99994C0 19.4624 12.5375 31.9999 28 31.9999C29.125 31.9999 30.1125 31.2437 30.4125 30.1562L31.9125 24.6562C32.2438 23.4437 31.625 22.1749 30.4625 21.6937L24.4625 19.1937C23.4437 18.7687 22.2625 19.0624 21.5688 19.9187L19.0438 22.9999C14.6438 20.9187 11.0812 17.3562 9 12.9562L12.0813 10.4374C12.9375 9.73744 13.2312 8.56244 12.8062 7.54369L10.3062 1.54369V1.53744Z" fill="white"/>
</g>
<defs>
<clipPath id="clip0_910_65">
<rect width="32" height="32" fill="white"/>
</clipPath>
</defs>
</svg>
