<svg width="650" height="373" viewBox="0 0 650 373" fill="none" xmlns="http://www.w3.org/2000/svg">
<path d="M561.853 88.1179C560.955 85.9468 554.116 82.2121 535.561 82.2121C524.046 82.2121 508.026 83.6452 486.106 87.7858C436.229 97.1947 372.876 117.237 307.724 144.214C242.573 171.19 183.594 201.792 141.676 230.396C93.5544 263.218 86.8881 280.644 88.3426 284.167C90.5835 289.594 113.616 294.309 166.732 283.999C165.187 281.509 163.7 278.979 162.273 276.412C162.222 276.322 162.17 276.23 162.12 276.14C161.523 275.061 160.937 273.976 160.36 272.885C160.261 272.697 160.161 272.508 160.062 272.319C159.523 271.292 158.994 270.259 158.474 269.219C158.347 268.964 158.221 268.71 158.094 268.455C157.6 267.458 157.114 266.457 156.638 265.449C156.497 265.15 156.358 264.849 156.218 264.549C155.761 263.569 155.312 262.588 154.872 261.6C154.725 261.267 154.581 260.934 154.435 260.602C154.01 259.629 153.587 258.654 153.177 257.673C153.173 257.665 153.171 257.657 153.166 257.649C160.301 244.351 197.02 220.605 248.85 195.144C269.268 185.112 292.028 174.817 316.248 164.79C401.941 129.31 477.099 109.113 497.25 115.188C500.989 124.251 504.039 133.67 506.321 143.385C551.161 113.129 564.095 93.5199 561.853 88.1179Z" fill="#ABABAB"/>
<path d="M361.577 3.58229C362.771 3.82008 363.961 4.07208 365.147 4.33184C363.961 4.07208 362.771 3.82008 361.577 3.58229Z" fill="#23272F"/>
<path d="M370.181 5.50786C371.527 5.84386 372.868 6.19278 374.203 6.55851C372.869 6.19407 371.528 5.84386 370.181 5.50786Z" fill="#23272F"/>
<path d="M365.911 4.49855C367.178 4.78286 368.441 5.08009 369.698 5.39025C368.44 5.08139 367.178 4.78157 365.911 4.49855Z" fill="#23272F"/>
<path d="M511.212 189.808C511.236 188.571 511.258 187.333 511.258 186.091C511.258 185.075 511.229 184.069 511.213 183.057C511.197 183.067 511.183 183.076 511.167 183.085C511.101 179.074 510.893 175.101 510.567 171.161C510.587 171.148 510.605 171.136 510.624 171.124C509.843 161.683 508.351 152.447 506.205 143.461C506.245 143.435 506.284 143.407 506.324 143.38C504.041 133.664 500.992 124.244 497.253 115.183C477.101 109.109 401.944 129.307 316.25 164.784C292.031 174.812 269.27 185.108 248.853 195.138C245.947 208.201 244.401 221.777 244.401 235.715C244.401 288.917 266.774 336.866 302.584 370.782C270.179 366.878 240.342 354.651 215.26 336.317C215.244 336.32 215.229 336.324 215.214 336.328C246.01 358.866 283.985 372.183 325.08 372.183C418.18 372.183 495.318 303.878 509.074 214.67C508.987 214.722 508.902 214.775 508.814 214.827C510.089 206.63 511 198.31 511.212 189.808Z" fill="#23272F"/>
<path d="M434.882 35.8075C416.895 22.6556 396.459 12.6531 374.385 6.60762C396.439 12.6582 416.848 22.675 434.822 35.8217C434.842 35.8166 434.86 35.8114 434.882 35.8075Z" fill="#23272F"/>
<path d="M352.745 2.04573C353.795 2.2021 354.838 2.37398 355.883 2.54715C354.838 2.37398 353.795 2.2021 352.745 2.04573Z" fill="#23272F"/>
<path d="M348.247 1.43059C349.231 1.55206 350.211 1.69035 351.19 1.82862C350.211 1.69035 349.232 1.55206 348.247 1.43059Z" fill="#23272F"/>
<path d="M343.705 0.921417C344.618 1.01188 345.525 1.11914 346.433 1.22252C345.525 1.11914 344.616 1.01188 343.705 0.921417Z" fill="#23272F"/>
<path d="M339.11 0.520813C339.945 0.582845 340.776 0.661676 341.611 0.735339C340.776 0.662968 339.945 0.584137 339.11 0.520813Z" fill="#23272F"/>
<path d="M329.797 0.0568542C330.379 0.0710697 330.958 0.100797 331.538 0.121474C330.958 0.100797 330.379 0.0710697 329.797 0.0568542Z" fill="#23272F"/>
<path d="M334.476 0.232605C335.217 0.270082 335.953 0.323062 336.691 0.368293C335.953 0.323062 335.216 0.270082 334.476 0.232605Z" fill="#23272F"/>
<path d="M357.193 2.76427C358.314 2.9594 359.43 3.16876 360.544 3.38328C359.43 3.17005 358.314 2.9594 357.193 2.76427Z" fill="#23272F"/>
<path d="M166.741 283.996C165.195 281.505 163.703 278.978 162.273 276.41C163.702 278.978 165.188 281.507 166.732 283.997C166.736 283.997 166.738 283.997 166.741 283.996Z" fill="#23272F"/>
<path d="M154.874 261.597C155.313 262.586 155.763 263.566 156.219 264.546C155.763 263.568 155.313 262.586 154.874 261.597Z" fill="#23272F"/>
<path d="M158.475 269.217C158.995 270.256 159.524 271.288 160.063 272.317C159.524 271.29 158.995 270.256 158.475 269.217Z" fill="#23272F"/>
<path d="M160.36 272.883C160.937 273.973 161.523 275.06 162.12 276.137C161.523 275.06 160.939 273.973 160.36 272.883Z" fill="#23272F"/>
<path d="M156.639 265.446C157.116 266.454 157.602 267.455 158.095 268.453C157.602 267.455 157.117 266.452 156.639 265.446Z" fill="#23272F"/>
<path d="M153.18 257.67C153.589 258.652 154.011 259.627 154.438 260.599C154.011 259.627 153.589 258.651 153.18 257.67Z" fill="#23272F"/>
<path d="M244.401 235.716C244.401 221.778 245.947 208.203 248.853 195.14C197.023 220.601 160.303 244.349 153.169 257.645C153.174 257.653 153.176 257.661 153.18 257.668C153.589 258.651 154.012 259.625 154.438 260.599C154.584 260.93 154.728 261.265 154.874 261.596C155.314 262.585 155.764 263.566 156.221 264.545C156.36 264.844 156.499 265.145 156.641 265.444C157.117 266.452 157.603 267.454 158.097 268.452C158.224 268.706 158.35 268.961 158.477 269.216C158.997 270.254 159.526 271.288 160.064 272.316C160.163 272.504 160.263 272.693 160.363 272.882C160.94 273.972 161.525 275.058 162.123 276.135C162.173 276.228 162.225 276.318 162.275 276.408C163.705 278.976 165.197 281.504 166.744 283.994C166.811 283.981 166.874 283.97 166.942 283.957C171.823 291.825 177.278 299.293 183.238 306.318C183.314 306.302 183.389 306.287 183.466 306.27C186.013 309.268 188.593 312.225 191.321 315.054C191.269 315.066 191.22 315.075 191.168 315.086C198.618 322.821 206.725 329.918 215.412 336.278C215.361 336.292 215.314 336.302 215.263 336.315C240.344 354.651 270.182 366.877 302.586 370.781C266.774 336.868 244.401 288.918 244.401 235.716Z" fill="#191C22"/>
<path d="M434.822 35.8217C416.848 22.675 396.439 12.6582 374.385 6.60761C374.325 6.59081 374.265 6.5753 374.203 6.5585C372.869 6.19407 371.528 5.84386 370.181 5.50785C370.019 5.46779 369.859 5.42902 369.698 5.39025C368.44 5.08009 367.178 4.78286 365.911 4.49855C365.656 4.44169 365.402 4.3887 365.147 4.33313C363.961 4.07209 362.771 3.82137 361.577 3.58359C361.233 3.5151 360.888 3.45177 360.544 3.38586C359.43 3.17005 358.314 2.9607 357.193 2.76685C356.757 2.6906 356.319 2.62211 355.883 2.54974C354.84 2.37527 353.795 2.20469 352.745 2.04832C352.228 1.97078 351.708 1.90358 351.191 1.83121C350.212 1.69423 349.232 1.55595 348.248 1.43318C347.644 1.35823 347.038 1.2949 346.433 1.22511C345.524 1.12173 344.618 1.01446 343.705 0.923998C343.008 0.854216 342.308 0.799943 341.611 0.737911C340.778 0.66425 339.946 0.585417 339.11 0.523387C338.306 0.46394 337.498 0.419996 336.691 0.370888C335.953 0.325657 335.217 0.272678 334.476 0.2352C333.5 0.186093 332.519 0.157664 331.538 0.124063C330.958 0.104678 330.379 0.0749513 329.797 0.0594435C328.229 0.020674 326.657 0 325.08 0C231.951 0 154.794 68.3454 141.071 157.593C184.341 131.484 233.757 106.823 283.666 86.1613C335.62 64.6468 387.198 47.5378 434.822 35.8217Z" fill="#191C22"/>
<path d="M647.034 52.8002V52.795C634.934 23.6016 590.43 12.436 518.35 20.447C492.641 23.3095 464.526 28.5149 434.882 35.8062C434.862 35.8114 434.842 35.8165 434.822 35.8204C387.2 47.5366 335.622 64.6456 283.666 86.1575C233.757 106.819 184.341 131.48 141.071 157.589C49.0238 213.13 -15.1746 275.231 3.12269 319.391C12.6876 342.451 43.7383 354.173 91.2322 354.173C124.884 354.173 166.858 348.229 215.213 336.329C215.229 336.325 215.244 336.321 215.26 336.317C215.311 336.305 215.358 336.294 215.409 336.281C206.722 329.921 198.615 322.823 191.166 315.089C156.107 322.804 125.114 326.863 100.43 326.863C67.921 326.863 46.2556 319.924 40.2475 305.375C23.3051 264.349 137.382 178.358 295.044 113.311C396.797 71.3294 491.847 48.3313 551.011 48.3287C551.015 48.3287 551.023 48.3287 551.023 48.3287C583.526 48.3287 605.186 55.2698 611.194 69.8161C621.76 95.4031 581.357 138.48 511.212 183.057C511.229 184.067 511.258 185.075 511.258 186.091C511.258 187.334 511.241 188.574 511.212 189.808C511 198.31 510.089 206.63 508.814 214.829C508.902 214.775 508.986 214.722 509.074 214.67C611.755 152.556 663.336 92.16 647.034 52.8002Z" fill="#E4E4E4"/>
<path d="M298.99 122.867C128.044 193.395 38.6469 274.402 49.8086 301.431C53.7688 311.023 72.22 316.526 100.43 316.526C123.61 316.526 151.812 312.954 183.235 306.321C177.275 299.295 171.821 291.826 166.939 283.959C166.872 283.973 166.809 283.984 166.741 283.996C166.738 283.996 166.736 283.998 166.733 283.998C113.616 294.308 90.5844 289.593 88.3439 284.166C86.8894 280.642 93.5552 263.216 141.677 230.394C183.596 201.791 242.574 171.19 307.726 144.212C372.877 117.235 436.229 97.1938 486.108 87.7844C508.026 83.6452 524.048 82.2107 535.562 82.2107C554.118 82.2107 560.956 85.9468 561.855 88.1166C564.095 93.5181 551.161 113.127 506.326 143.381C506.286 143.408 506.246 143.435 506.206 143.463C508.353 152.448 509.845 161.684 510.626 171.125C576.692 128.147 608.564 90.5451 601.634 73.7616C597.673 64.17 579.226 58.6672 551.024 58.6672V48.3287L551.014 58.6672C490.633 58.6698 396.419 82.6707 298.99 122.867Z" fill="#E4E4E4"/>
<path d="M183.463 306.273C183.388 306.289 183.312 306.304 183.235 306.321C151.81 312.955 123.61 316.526 100.43 316.526C72.2212 316.526 53.77 311.024 49.8086 301.432C38.6468 274.402 128.044 193.395 298.99 122.867C396.419 82.6707 490.633 58.6698 551.012 58.6672L551.023 48.3287C551.023 48.3287 551.015 48.3287 551.011 48.3287C491.847 48.3313 396.797 71.3294 295.044 113.311C137.382 178.359 23.3051 264.35 40.2475 305.377C46.2556 319.926 67.921 326.865 100.43 326.865C125.114 326.865 156.107 322.805 191.166 315.09C191.217 315.078 191.266 315.068 191.318 315.058C188.59 312.228 186.01 309.27 183.463 306.273Z" fill="#ABABAB"/>
<path d="M601.632 73.7616C608.564 90.5451 576.691 128.147 510.624 171.125C510.605 171.138 510.587 171.15 510.567 171.162C510.893 175.102 511.101 179.077 511.167 183.086C511.182 183.077 511.197 183.067 511.212 183.058C581.357 138.481 621.759 95.404 611.194 69.8174C605.186 55.2711 583.526 48.3301 551.023 48.3301V58.6686C579.225 58.6673 597.672 64.1687 601.632 73.7616Z" fill="#ABABAB"/>
</svg>
