<svg width="32" height="32" viewBox="0 0 32 32" fill="none" xmlns="http://www.w3.org/2000/svg">
<path d="M3.99245 29.4869L3.00115 3.07343C2.96841 2.20109 3.63729 1.4618 4.50854 1.40735L26.9751 0.00318776C27.8619 -0.0522389 28.6257 0.621743 28.6812 1.50857C28.6833 1.54198 28.6843 1.57545 28.6843 1.60893V30.3911C28.6843 31.2797 27.964 32 27.0754 32C27.0514 32 27.0273 31.9995 27.0033 31.9984L5.528 31.0339C4.69163 30.9963 4.02385 30.3236 3.99245 29.4869Z" fill="white"/>
<mask id="mask0_910_67" style="mask-type:luminance" maskUnits="userSpaceOnUse" x="3" y="0" width="26" height="32">
<path d="M3.99245 29.4869L3.00115 3.07343C2.96841 2.20109 3.63729 1.4618 4.50854 1.40735L26.9751 0.00318776C27.8619 -0.0522389 28.6257 0.621743 28.6812 1.50857C28.6833 1.54198 28.6843 1.57545 28.6843 1.60893V30.3911C28.6843 31.2797 27.964 32 27.0754 32C27.0514 32 27.0273 31.9995 27.0033 31.9984L5.528 31.0339C4.69163 30.9963 4.02385 30.3236 3.99245 29.4869Z" fill="white"/>
</mask>
<g mask="url(#mask0_910_67)">
<path d="M21.966 3.93331L22.1194 0.242419L25.2048 0L25.3377 3.80629C25.3423 3.93876 25.2387 4.04989 25.1062 4.05452C25.0495 4.0565 24.9939 4.03832 24.9494 4.00319L23.7595 3.06591L22.3508 4.13449C22.2452 4.2146 22.0947 4.19393 22.0146 4.08833C21.9808 4.04387 21.9637 3.98906 21.966 3.93331ZM18.0202 12.0613C18.0202 12.6872 22.2365 12.3872 22.8024 11.9475C22.8024 7.68495 20.5153 5.44503 16.327 5.44503C12.1388 5.44503 9.79225 7.71982 9.79225 11.1319C9.79225 17.0747 17.8122 17.1884 17.8122 20.43C17.8122 21.3399 17.3667 21.8801 16.3865 21.8801C15.1092 21.8801 14.6042 21.2278 14.6636 19.01C14.6636 18.5288 9.79225 18.3788 9.64373 19.01C9.26552 24.3847 12.6141 25.9349 16.4459 25.9349C20.1588 25.9349 23.0698 23.9559 23.0698 20.3731C23.0698 14.0038 14.9309 14.1744 14.9309 11.0182C14.9309 9.73866 15.8815 9.56805 16.4459 9.56805C17.0399 9.56805 18.1093 9.67277 18.0202 12.0613Z" fill="#101010"/>
</g>
</svg>
