<svg width="28" height="28" viewBox="0 0 28 28" fill="none" xmlns="http://www.w3.org/2000/svg">
<path d="M25.1951 13.9133H23.2176C22.808 13.9133 22.476 14.2453 22.476 14.6549V23.6711C22.476 24.1497 22.0865 24.5391 21.6079 24.5391H4.32837C3.8499 24.5391 3.46072 24.1497 3.46072 23.6711V6.39186C3.46072 5.91319 3.8499 5.52371 4.32837 5.52371H13.8063C14.2158 5.52371 14.5479 5.19168 14.5479 4.78213V2.80457C14.5479 2.39502 14.2158 2.06299 13.8063 2.06299H4.32837C1.94166 2.06299 0 4.00495 0 6.39186V23.6712C0 26.0581 1.94176 27.9999 4.32837 27.9999H21.6078C23.9948 27.9999 25.9366 26.058 25.9366 23.6712V14.655C25.9367 14.2453 25.6047 13.9133 25.1951 13.9133Z" fill="white"/>
<path d="M27.2585 0H19.3925C18.9829 0 18.6509 0.332031 18.6509 0.741583V2.71914C18.6509 3.12869 18.9829 3.46072 19.3925 3.46072H22.0922L11.933 13.6197C11.6434 13.9093 11.6434 14.3788 11.933 14.6685L13.3314 16.0669C13.4705 16.2061 13.659 16.2842 13.8558 16.2842C14.0525 16.2842 14.2411 16.2061 14.3802 16.0669L24.5393 5.90775V8.60741C24.5393 9.01696 24.8714 9.34899 25.2809 9.34899H27.2585C27.668 9.34899 28.0001 9.01696 28.0001 8.60741V0.741583C28.0001 0.332031 27.668 0 27.2585 0Z" fill="white"/>
</svg>
