<svg width="52" height="65" viewBox="0 0 52 65" fill="none" xmlns="http://www.w3.org/2000/svg">
<path d="M2.00929 59.6987L0.00233263 6.22241C-0.0639493 4.45629 1.29024 2.95953 3.05416 2.84929L48.5395 0.00645388C50.335 -0.105762 51.8814 1.25877 51.9937 3.05423C51.9979 3.12187 52 3.18963 52 3.25741V61.5293C52 63.3283 50.5417 64.7866 48.7427 64.7866C48.694 64.7866 48.6452 64.7855 48.5966 64.7833L5.11815 62.8306C3.42484 62.7545 2.07286 61.3926 2.00929 59.6987Z" fill="white"/>
<mask id="mask0_694_4" style="mask-type:luminance" maskUnits="userSpaceOnUse" x="0" y="0" width="52" height="65">
<path d="M2.00929 59.6987L0.00233263 6.22241C-0.0639493 4.45629 1.29024 2.95953 3.05416 2.84929L48.5395 0.00645388C50.335 -0.105762 51.8814 1.25877 51.9937 3.05423C51.9979 3.12187 52 3.18963 52 3.25741V61.5293C52 63.3283 50.5417 64.7866 48.7427 64.7866C48.694 64.7866 48.6452 64.7855 48.5966 64.7833L5.11815 62.8306C3.42484 62.7545 2.07286 61.3926 2.00929 59.6987Z" fill="white"/>
</mask>
<g mask="url(#mask0_694_4)">
<path d="M38.3982 7.96331L38.7089 0.490797L44.9554 0L45.2245 7.70614C45.2339 7.97433 45.0241 8.19934 44.7559 8.2087C44.6411 8.21271 44.5285 8.1759 44.4383 8.10479L42.0294 6.20718L39.1774 8.37062C38.9636 8.5328 38.6588 8.49095 38.4966 8.27715C38.4283 8.18715 38.3935 8.07617 38.3982 7.96331ZM30.4096 24.419C30.4096 25.6862 38.9458 25.0789 40.0917 24.1887C40.0917 15.5588 35.4611 11.0239 26.9817 11.0239C18.5023 11.0239 13.7515 15.6294 13.7515 22.5375C13.7515 34.5692 29.9886 34.7994 29.9886 41.3622C29.9886 43.2043 29.0865 44.2981 27.102 44.2981C24.5161 44.2981 23.4937 42.9775 23.614 38.4872C23.614 37.5131 13.7515 37.2094 13.4508 38.4872C12.6851 49.3688 19.4645 52.5074 27.2223 52.5074C34.7395 52.5074 40.6329 48.5006 40.6329 41.247C40.6329 28.3519 24.1552 28.6973 24.1552 22.3072C24.1552 19.7167 26.0796 19.3713 27.2223 19.3713C28.425 19.3713 30.59 19.5833 30.4096 24.419Z" fill="#101010"/>
</g>
</svg>
