<svg width="24" height="29" viewBox="0 0 24 29" fill="none" xmlns="http://www.w3.org/2000/svg">
<path d="M7.20281 24.3618C5.77058 23.0699 5.3525 20.3553 5.9492 18.3887C6.98383 19.6286 8.41739 20.0214 9.90228 20.2431C12.1947 20.5852 14.4459 20.4573 16.5754 19.4233C16.819 19.3049 17.0442 19.1475 17.3104 18.9881C17.5102 19.5602 17.5621 20.1377 17.4924 20.7255C17.3227 22.157 16.6008 23.2628 15.4525 24.1011C14.9934 24.4363 14.5075 24.7361 14.0333 25.0522C12.5765 26.0239 12.1823 27.1632 12.7298 28.8206C12.7428 28.8609 12.7544 28.9013 12.7838 28.9998C12.04 28.6714 11.4967 28.1931 11.0827 27.5642C10.6454 26.9005 10.4374 26.1662 10.4264 25.3718C10.421 24.9852 10.421 24.5951 10.3683 24.214C10.2397 23.2847 9.7976 22.8687 8.96484 22.8447C8.11017 22.8201 7.43409 23.3415 7.2548 24.1626C7.24113 24.2256 7.22129 24.2879 7.20144 24.3611L7.20281 24.3618Z" fill="white"/>
<path d="M0 18.9909C0 18.9909 3.91616 17.0879 7.84326 17.0879L10.8042 7.94728C10.915 7.50522 11.2387 7.20484 11.6041 7.20484C11.9695 7.20484 12.2932 7.50522 12.404 7.94728L15.3649 17.0879C20.016 17.0879 23.2082 18.9909 23.2082 18.9909C23.2082 18.9909 16.5562 0.914886 16.5432 0.878621C16.3523 0.344195 16.03 0 15.5955 0H7.61335C7.17882 0 6.86953 0.344195 6.66559 0.878621C6.65122 0.914202 0 18.9909 0 18.9909Z" fill="white"/>
</svg>
