<svg width="42" height="53" viewBox="0 0 42 53" fill="none" xmlns="http://www.w3.org/2000/svg">
<g id="astro">
<path id="Vector" d="M13.035 44.0879C10.443 41.7499 9.68644 36.8374 10.7663 33.2783C12.6387 35.5222 15.233 36.233 17.9202 36.6343C22.0687 37.2534 26.1429 37.0219 29.9966 35.1507C30.4375 34.9365 30.8449 34.6516 31.3267 34.3631C31.6883 35.3984 31.7823 36.4435 31.6561 37.5073C31.3489 40.0979 30.0425 42.0991 27.9645 43.6161C27.1336 44.2229 26.2544 44.7653 25.3962 45.3374C22.7597 47.0958 22.0464 49.1577 23.0371 52.157C23.0607 52.2301 23.0817 52.3032 23.135 52.4814C21.7889 51.8871 20.8056 51.0215 20.0564 49.8834C19.2651 48.6822 18.8886 47.3534 18.8688 45.9157C18.8589 45.2161 18.8589 44.5102 18.7635 43.8204C18.5308 42.1388 17.7308 41.3858 16.2237 41.3424C14.677 41.2979 13.4535 42.2415 13.129 43.7275C13.1043 43.8415 13.0684 43.9542 13.0325 44.0866L13.035 44.0879Z" fill="white"/>
<path id="Vector_2" d="M0 34.3681C0 34.3681 7.08711 30.9242 14.194 30.9242L19.5524 14.3823C19.753 13.5823 20.3388 13.0387 21 13.0387C21.6613 13.0387 22.247 13.5823 22.4477 14.3823L27.806 30.9242C36.2231 30.9242 42 34.3681 42 34.3681C42 34.3681 29.962 1.65568 29.9384 1.59005C29.593 0.622892 29.0097 0 28.2233 0H13.7779C12.9916 0 12.4319 0.622892 12.0628 1.59005C12.0368 1.65444 0 34.3681 0 34.3681Z" fill="white"/>
</g>
</svg>
