<svg width="47" height="47" viewBox="0 0 47 47" fill="none" xmlns="http://www.w3.org/2000/svg">
<g id="Cypress_Logomark_Dark-Color 1" clip-path="url(#clip0_668_948)">
<g id="Group">
<path id="Vector" d="M16.6135 18.7143C18.4876 18.7143 20.0104 19.7165 20.7913 21.4568L20.8498 21.5937L23.9929 20.5231L23.9295 20.3618C22.7142 17.3894 19.9079 15.5464 16.6135 15.5464C14.2952 15.5464 12.4113 16.2895 10.8544 17.8196C9.30726 19.34 8.52637 21.2515 8.52637 23.5003C8.52637 25.7344 9.31214 27.6362 10.8544 29.1516C12.4113 30.6818 14.2952 31.4249 16.6135 31.4249C19.9079 31.4249 22.7093 29.577 23.9295 26.6095L23.9929 26.4482L20.845 25.3776L20.7913 25.5193C20.0885 27.2353 18.5267 28.257 16.6135 28.257C15.3104 28.257 14.2074 27.8024 13.3386 26.9028C12.4552 25.9935 12.0111 24.8447 12.0111 23.5003C12.0111 22.1461 12.4455 21.0217 13.3386 20.0684C14.2122 19.1689 15.3104 18.7143 16.6135 18.7143Z" fill="white"/>
<g id="Group_2">
<path id="Vector_2" d="M30.2593 45.6802L29.3223 42.5857C37.7754 40.0142 43.4564 32.3438 43.4564 23.5002C43.4564 21.0607 43.0221 18.675 42.1631 16.4164L45.1793 15.2676C46.1798 17.8977 46.6874 20.6647 46.6874 23.505C46.6825 33.7762 40.0839 42.6883 30.2593 45.6802Z" fill="url(#paint0_linear_668_948)"/>
</g>
<g id="Group_3">
<path id="Vector_3" d="M42.5831 17.6532C40.0013 9.21532 32.3339 3.54931 23.5001 3.54931C22.2994 3.54931 21.0988 3.65686 19.9275 3.86708L19.3564 0.68453C20.7132 0.440095 22.1091 0.312988 23.5001 0.312988C33.759 0.312988 42.6661 6.89807 45.6677 16.6999L42.5831 17.6532Z" fill="white"/>
</g>
<g id="Group_4">
<path id="Vector_4" d="M1.80108 31.6739C0.815202 29.0633 0.317383 26.311 0.317383 23.5C0.317383 11.5226 9.29277 1.60346 21.1965 0.430176L21.5137 3.64694C11.2694 4.6589 3.54345 13.1946 3.54345 23.5C3.54345 25.9199 3.97294 28.2909 4.81728 30.5348L1.80108 31.6739Z" fill="white"/>
</g>
<path id="Vector_5" d="M36.2969 15.8394L31.8214 27.2007L27.3118 15.8394H23.6221L29.9473 31.3463L25.34 42.5415L28.5661 43.1868L39.7817 15.8394H36.2969Z" fill="white"/>
<path id="Vector_6" d="M25.9213 41.1338L25.2429 42.7812C25.0867 43.1577 24.7305 43.4168 24.3303 43.4314C24.0521 43.4412 23.7787 43.451 23.4957 43.451C14.6374 43.451 6.7504 37.5112 4.31499 29.0049L1.21094 29.8946C4.04167 39.7747 13.2025 46.6775 23.4908 46.6824H23.4957C23.8178 46.6824 24.1399 46.6775 24.462 46.6629C26.1165 46.5944 27.5954 45.5531 28.2298 44.0132L29.1474 41.7791L25.9213 41.1338Z" fill="white"/>
</g>
</g>
<defs>
<linearGradient id="paint0_linear_668_948" x1="38.0048" y1="15.2676" x2="38.0048" y2="45.6802" gradientUnits="userSpaceOnUse">
<stop stop-color="white"/>
<stop offset="1" stop-color="white" stop-opacity="0.8"/>
</linearGradient>
<clipPath id="clip0_668_948">
<rect width="47" height="47" fill="white"/>
</clipPath>
</defs>
</svg>
