<svg width="42" height="48" viewBox="0 0 42 48" fill="none" xmlns="http://www.w3.org/2000/svg">
<g id="html" clip-path="url(#clip0_668_889)">
<path id="Vector" d="M3.82059 42.834L0 0H41.9824L38.1577 42.8273L20.9655 47.5915L3.82059 42.834Z" fill="white"/>
<path id="Vector_2" d="M20.9912 43.95L34.8832 40.1001L38.1519 3.50244H20.9912V43.95Z" fill="white"/>
<path id="Vector_3" d="M20.9916 19.3891H14.0369L13.5565 14.0096H20.9916V8.7561H7.8125L7.93845 10.1655L9.23018 24.6424H20.9916V19.3891ZM20.9916 33.0327L20.9685 33.039L15.1152 31.459L14.7409 27.2693H9.46505L10.2015 35.5179L20.9675 38.5053L20.9916 38.4985V33.0327Z" fill="#101010"/>
<path id="Vector_4" d="M20.9727 19.3891V24.6424H27.4446L26.8344 31.4558L20.9727 33.037V38.5026L31.7472 35.5179L31.8261 34.6302L33.0613 20.7999L33.1895 19.3891H31.7734H20.9727ZM20.9727 8.7561V14.0096H33.6678L33.7731 12.8287L34.0126 10.1655L34.1384 8.7561H20.9727Z" fill="#101010"/>
</g>
<defs>
<clipPath id="clip0_668_889">
<rect width="41.9824" height="47.6366" fill="white"/>
</clipPath>
</defs>
</svg>
