<svg width="48" height="48" viewBox="0 0 48 48" fill="none" xmlns="http://www.w3.org/2000/svg">
<g id="javascript" clip-path="url(#clip0_668_913)">
<path id="Vector" d="M0 0H47.2144V47.2144H0V0Z" fill="white"/>
<path id="Vector_2" d="M12.4141 39.456L16.0273 37.2694C16.7244 38.5053 17.3585 39.551 18.8794 39.551C20.3374 39.551 21.2566 38.9807 21.2566 36.7624V21.6763H25.6936V36.8251C25.6936 41.4206 22.9998 43.5124 19.0696 43.5124C15.5203 43.5124 13.4599 41.6741 12.4141 39.4556" fill="#101010"/>
<path id="Vector_3" d="M28.1035 38.9804L31.7162 36.8888C32.6673 38.4419 33.9033 39.5828 36.09 39.5828C37.9285 39.5828 39.1008 38.6636 39.1008 37.3958C39.1008 35.8746 37.8965 35.3357 35.8681 34.4486L34.7591 33.9729C31.5579 32.6103 29.4344 30.8988 29.4344 27.2858C29.4344 23.9579 31.9699 21.4224 35.9317 21.4224C38.7524 21.4224 40.7808 22.405 42.2385 24.9721L38.7839 27.1906C38.0232 25.8279 37.1995 25.2892 35.9317 25.2892C34.6322 25.2892 33.8082 26.1132 33.8082 27.1906C33.8082 28.5217 34.6322 29.0606 36.5337 29.8848L37.6429 30.3601C41.4143 31.9766 43.5378 33.6243 43.5378 37.3323C43.5378 41.326 40.4003 43.5126 36.1851 43.5126C32.0651 43.5126 29.4028 41.5477 28.1035 38.9804Z" fill="#101010"/>
</g>
<defs>
<clipPath id="clip0_668_913">
<rect width="47.2144" height="47.2144" fill="white"/>
</clipPath>
</defs>
</svg>
