<svg width="43" height="47" viewBox="0 0 43 47" fill="none" xmlns="http://www.w3.org/2000/svg">
<g id="Group">
<path id="Vector" d="M39.8925 23.1406C39.8925 20.7245 37.9339 18.7659 35.5178 18.7659C35.3624 18.7659 35.2091 18.7742 35.058 18.79L41.0666 1.06836H15.5321L21.5322 18.7747C21.4443 18.7694 21.3558 18.7659 21.2664 18.7659C18.8503 18.7659 16.8917 20.7245 16.8917 23.1406C16.8917 25.0935 18.1716 26.7469 19.9382 27.3094C19.0051 28.9256 17.8311 30.3812 16.4982 31.6386C14.6857 33.3485 12.6114 34.645 10.3681 35.4439C7.697 34.0718 6.4356 31.02 7.57382 28.3444C7.70232 28.0424 7.83348 27.736 7.95899 27.4311C9.89398 26.9795 11.3359 25.2446 11.3359 23.172C11.3359 20.7559 9.37732 18.7973 6.96124 18.7973C4.545 18.7973 2.5864 20.7559 2.5864 23.172C2.5864 24.6536 3.32366 25.9621 4.45041 26.7535C3.36754 29.219 1.776 31.799 1.28011 34.7892C0.685817 38.3731 1.27828 42.1773 4.37776 44.3256C11.5964 49.3286 19.4321 41.2241 27.6939 39.1867C30.688 38.4483 33.9747 38.5673 36.6127 37.0394C38.5937 35.8921 39.8997 33.9906 40.2704 31.8558C40.6364 29.747 40.1026 27.6472 38.8751 25.9446C39.51 25.1853 39.8925 24.2078 39.8925 23.1406ZM25.6407 23.156C25.6407 23.1509 25.6412 23.1457 25.6412 23.1406C25.6412 21.554 24.7964 20.1646 23.5323 19.3977L28.308 9.74091L33.0919 19.5002C31.9171 20.2845 31.143 21.622 31.143 23.1406C31.143 23.1725 31.1448 23.2039 31.1455 23.2356L25.6407 23.156Z" fill="white"/>
<path id="Vector_2" d="M40.9605 23.1406C40.9605 20.4833 39.0459 18.2661 36.524 17.7924L42.5565 0H14.0413L20.083 17.8285C17.6488 18.3703 15.8229 20.5457 15.8229 23.1406C15.8229 25.0894 16.8527 26.8011 18.3962 27.763C17.6538 28.8689 16.7734 29.9097 15.7645 30.8615C14.1647 32.3709 12.3821 33.5156 10.4604 34.2686C8.52494 33.0528 7.70672 30.76 8.55653 28.7626L8.62302 28.6063C8.66458 28.5085 8.7063 28.4105 8.74786 28.3124C10.8737 27.5711 12.4039 25.5475 12.4039 23.172C12.4039 20.1706 9.96205 17.7289 6.96066 17.7289C3.95926 17.7289 1.51758 20.1706 1.51758 23.172C1.51758 24.6869 2.14013 26.0587 3.14221 27.0465C2.96051 27.4338 2.7695 27.8275 2.57318 28.2308C1.65688 30.1127 0.618405 32.2459 0.225589 34.6146C-0.554559 39.3189 0.703685 43.0795 3.76858 45.2037C5.62844 46.4927 7.51705 46.9997 9.41763 46.9995C12.9965 46.9993 16.6167 45.2015 20.1575 43.4427C22.7077 42.1762 25.3446 40.8664 27.9493 40.2241C28.9185 39.985 29.9157 39.8412 30.9715 39.6889C33.0651 39.3869 35.2302 39.0747 37.1479 37.9641C39.3706 36.6766 40.8923 34.5168 41.3225 32.0387C41.6919 29.9114 41.2472 27.7809 40.163 25.9739C40.6686 25.1481 40.9605 24.1779 40.9605 23.1406ZM38.8237 23.1406C38.8237 24.9637 37.3405 26.447 35.5172 26.447C33.6943 26.447 32.211 24.9637 32.211 23.1406C32.211 21.3175 33.6943 19.8343 35.5172 19.8343C37.3405 19.8343 38.8237 21.3175 38.8237 23.1406ZM39.5757 2.1368L34.2487 17.8483C34.0178 17.9037 33.7927 17.9735 33.5741 18.0574L28.3117 7.32221L23.0341 17.9939C22.806 17.9153 22.5712 17.8506 22.3305 17.8028L17.0218 2.1368H39.5757ZM21.266 19.8343C23.0891 19.8343 24.5722 21.3175 24.5722 23.1406C24.5722 24.9637 23.0891 26.447 21.266 26.447C19.443 26.447 17.9597 24.9637 17.9597 23.1406C17.9597 21.3175 19.443 19.8343 21.266 19.8343ZM6.96066 19.8657C8.78394 19.8657 10.2671 21.3489 10.2671 23.172C10.2671 24.9951 8.78394 26.4785 6.96066 26.4785C5.13771 26.4785 3.65438 24.9951 3.65438 23.172C3.65438 21.3489 5.13771 19.8657 6.96066 19.8657ZM39.2172 31.6732C38.8955 33.5264 37.7508 35.1454 36.0768 36.1149C34.5163 37.0187 32.6463 37.2885 30.6665 37.5739C29.6059 37.7268 28.509 37.8851 27.4377 38.1494C24.6047 38.8479 21.8606 40.2109 19.207 41.529C13.8965 44.1667 9.31024 46.4445 4.98593 43.4474C1.8183 41.2521 1.96459 37.1901 2.33363 34.9642C2.67558 32.902 3.60019 31.0028 4.49437 29.166C4.64914 28.8482 4.79942 28.5368 4.94687 28.2274C5.39039 28.4048 5.862 28.5257 6.35356 28.5805C5.44342 31.5846 6.87488 34.8508 9.87927 36.3943L10.2904 36.6056L10.7259 36.4505C13.1011 35.6047 15.2896 34.2472 17.2309 32.4158C18.4858 31.232 19.5642 29.9222 20.4509 28.5227C20.7169 28.5627 20.989 28.5838 21.266 28.5838C24.2674 28.5838 26.7092 26.1422 26.7092 23.1406C26.7092 21.5264 26.0022 20.0749 24.8824 19.0771L28.3032 12.1597L31.7588 19.2089C30.722 20.2007 30.0742 21.5959 30.0742 23.1406C30.0742 26.1422 32.5158 28.5838 35.5172 28.5838C36.6704 28.5838 37.7402 28.2224 38.6212 27.6084C39.233 28.8606 39.4609 30.2697 39.2172 31.6732Z" fill="#101010"/>
</g>
</svg>
