<svg width="24" height="52" viewBox="0 0 24 52" fill="none" xmlns="http://www.w3.org/2000/svg">
<path d="M11.7 0L13.163 2.76199L14.138 4.062L17.388 7.8C21.048 12.773 23.193 18.698 23.563 24.862C23.692 28.783 22.873 32.676 21.175 36.213C19.478 39.749 16.952 42.823 13.813 45.175C13.325 45.175 13.163 44.85 13 44.362C12.513 43.875 12.35 43.062 12.188 42.412C12.017 41.557 11.963 40.682 12.025 39.812V39.487C12.025 39.487 11.538 0.487 11.7 0Z" fill="white"/>
<path d="M11.7 0H11.537C11.537 0.65 11.375 1.137 11.05 1.625L9.75 2.925C4.047 8.285 0.567 15.594 0 23.4C0 25.025 0.649988 30.712 1.29999 32.337C3.04399 37.662 6.39302 42.317 10.887 45.662L11.212 45.175C11.287 44.853 11.341 44.528 11.375 44.2L12.025 39.812L11.7 0Z" fill="#DEDEDE"/>
<path d="M13.1617 46.8001C13.1617 46.1501 13.4867 45.6631 13.8117 45.1751L12.9987 44.3631L12.5117 43.5501C12.1867 42.2501 12.0237 41.1131 12.0237 39.8131V39.1631L11.8617 40.3001C11.7897 41.6101 11.6267 42.9131 11.3737 44.2001L10.8867 45.6631C11.3737 47.2881 11.5367 48.9131 11.5367 50.5371V51.0251C11.5367 51.6751 11.5367 51.5121 12.1867 51.6751L12.8367 52.0001L12.9987 51.6751V48.2631V46.8001H13.1617Z" fill="#BFBFBF"/>
</svg>
