<svg width="51" height="51" viewBox="0 0 51 51" fill="none" xmlns="http://www.w3.org/2000/svg">
<g id="nextjs-icon-svgrepo-com 1" clip-path="url(#clip0_668_934)">
<g id="Group">
<path id="Vector" d="M23.8299 0.0137243C23.7202 0.0236935 23.3713 0.0585857 23.0572 0.0835087C15.8135 0.736492 9.02845 4.64442 4.73109 10.6509C2.33812 13.9906 0.807625 17.7789 0.229326 21.7915C0.0249267 23.1921 0 23.6059 0 25.505C0 27.4041 0.0249267 27.8179 0.229326 29.2185C1.61525 38.7939 8.4302 46.8391 17.673 49.8199C19.3282 50.3532 21.073 50.7171 23.0572 50.9364C23.8299 51.0212 27.1701 51.0212 27.9428 50.9364C31.3677 50.5576 34.2692 49.7102 37.1308 48.2497C37.5695 48.0254 37.6543 47.9656 37.5944 47.9158C37.5545 47.8859 35.685 45.3786 33.4416 42.348L29.3636 36.84L24.2537 29.2783C21.4419 25.1212 19.1287 21.7217 19.1088 21.7217C19.0889 21.7167 19.0689 25.0763 19.0589 29.1786C19.044 36.3615 19.039 36.6506 18.9493 36.82C18.8196 37.0643 18.7199 37.164 18.5106 37.2736C18.351 37.3534 18.2114 37.3684 17.4587 37.3684H16.5962L16.3669 37.2238C16.2173 37.1291 16.1076 37.0045 16.0328 36.8599L15.9282 36.6356L15.9381 26.6415L15.9531 16.6424L16.1076 16.448C16.1874 16.3433 16.3569 16.2087 16.4765 16.1439C16.6809 16.0442 16.7607 16.0342 17.6232 16.0342C18.6402 16.0342 18.8097 16.0741 19.0739 16.3632C19.1487 16.443 21.9155 20.6101 25.2258 25.6296C28.5361 30.6491 33.0628 37.5029 35.2862 40.8675L39.3243 46.9837L39.5287 46.8491C41.3384 45.6727 43.2528 43.9979 44.7683 42.2533C47.9938 38.5497 50.0727 34.0336 50.7707 29.2185C50.9751 27.8179 51 27.4041 51 25.505C51 23.6059 50.9751 23.1921 50.7707 21.7915C49.3848 12.216 42.5698 4.17088 33.327 1.19009C31.6968 0.661723 29.9619 0.297847 28.0176 0.0785241C27.539 0.0286781 24.2437 -0.0261526 23.8299 0.0137243ZM34.2692 15.4361C34.5085 15.5557 34.7029 15.785 34.7727 16.0243C34.8126 16.1539 34.8226 18.9253 34.8126 25.171L34.7977 34.1333L33.2173 31.7108L31.632 29.2883V22.7734C31.632 18.5614 31.6519 16.1938 31.6818 16.0791C31.7616 15.8 31.9361 15.5806 32.1754 15.451C32.3798 15.3464 32.4545 15.3364 33.2372 15.3364C33.9751 15.3364 34.1047 15.3464 34.2692 15.4361Z" fill="white"/>
</g>
</g>
<defs>
<clipPath id="clip0_668_934">
<rect width="51" height="51" fill="white"/>
</clipPath>
</defs>
</svg>
