<svg width="42" height="47" viewBox="0 0 42 47" fill="none" xmlns="http://www.w3.org/2000/svg">
<path d="M19.104 0.495C20.258 -0.165 21.742 -0.165 22.895 0.495L40.203 10.269C41.291 10.879 42.016 12.082 42 13.335V32.95C42 34.253 41.209 35.489 40.071 36.082C34.302 39.313 28.566 42.56 22.813 45.807C21.659 46.467 20.126 46.434 18.989 45.708L13.813 42.709C13.467 42.494 13.071 42.329 12.824 41.983C13.038 41.687 13.434 41.654 13.747 41.522C14.472 41.307 15.132 40.928 15.791 40.582C15.956 40.467 16.17 40.5 16.319 40.615C17.802 41.439 19.253 42.329 20.736 43.154C21.066 43.335 21.379 43.104 21.643 42.956L38.571 33.395C38.785 33.296 38.901 33.066 38.884 32.835V13.434C38.901 13.17 38.752 12.939 38.522 12.824L21.33 3.14802C21.232 3.08302 21.117 3.04801 21 3.04801C20.883 3.04801 20.768 3.08302 20.67 3.14802L3.478 12.841C3.247 12.939 3.08201 13.17 3.11501 13.434V32.868C3.10501 32.98 3.13 33.092 3.186 33.19C3.242 33.287 3.327 33.365 3.429 33.412L8.01099 36C8.88499 36.461 9.939 36.742 10.879 36.379C11.72 36.082 12.313 35.225 12.297 34.335V15.049C12.28 14.753 12.544 14.522 12.824 14.555H15.033C15.346 14.555 15.544 14.852 15.527 15.132L15.511 34.549C15.511 36.28 14.802 38.159 13.203 39C12.208 39.465 11.117 39.692 10.019 39.663C8.92001 39.635 7.84399 39.351 6.87399 38.835C5.19199 37.978 3.577 36.989 1.929 36.099C1.355 35.799 0.873005 35.349 0.533005 34.798C0.194005 34.247 0.01 33.614 0 32.967V13.352C0 12.082 0.742007 10.846 1.86301 10.236L19.104 0.510991V0.495Z" fill="white"/>
<path d="M24.1315 14.0769C26.6205 13.9119 29.3076 13.9779 31.5656 15.2139C32.4096 15.7169 33.1076 16.4319 33.5906 17.2869C34.0736 18.1429 34.3245 19.1099 34.3175 20.0929C34.2685 20.3569 33.9886 20.4889 33.7416 20.4719H31.5486C31.2196 20.4719 31.0546 20.1919 31.0216 19.9279C30.9386 19.4499 30.7535 18.9959 30.4765 18.5979C30.2005 18.1989 29.8406 17.8659 29.4226 17.6209C28.0876 16.9609 26.5216 16.9939 25.0706 17.0109C23.9756 16.9749 22.8915 17.2429 21.9385 17.7849C21.2465 18.2629 21.0325 19.2189 21.2795 19.9939C21.5265 20.5549 22.1535 20.7189 22.6805 20.8839C25.7135 21.6759 28.9115 21.6099 31.8785 22.6479C33.0985 23.0599 34.3015 23.8839 34.7135 25.1699C35.2745 26.9009 35.0436 28.9609 33.8066 30.3459C32.7606 31.4319 31.4005 32.1639 29.9165 32.4389C27.9915 32.8289 26.0166 32.9129 24.0656 32.6859C22.1876 32.5789 20.3876 31.8999 18.9056 30.7409C18.3176 30.2029 17.8565 29.5409 17.5545 28.8019C17.2525 28.0639 17.1175 27.2689 17.1585 26.4719C17.1585 26.2079 17.4386 26.0269 17.7026 26.0439H19.8945C20.1915 26.0269 20.3896 26.2739 20.4226 26.5379C20.5546 27.4279 20.8835 28.3509 21.6585 28.8949C23.1425 29.8509 25.0045 29.7849 26.7195 29.8019C28.1365 29.7519 29.7195 29.7359 30.8725 28.7959C31.4825 28.2689 31.6475 27.3789 31.4995 26.6039C31.3175 25.9449 30.6426 25.6639 30.0486 25.4499C27.0816 24.5109 23.8346 24.8569 20.8836 23.8019C19.6806 23.3729 18.5266 22.5659 18.0656 21.3289C17.7256 20.4529 17.6375 19.4989 17.8125 18.5749C17.9875 17.6519 18.4175 16.7959 19.0545 16.1039C20.4055 14.7689 22.3185 14.2409 24.1315 14.0769Z" fill="white"/>
</svg>
