<svg width="40" height="29" viewBox="0 0 40 29" fill="none" xmlns="http://www.w3.org/2000/svg">
<path d="M22.3076 7.93484L20.9593 10.2554L16.3835 2.32129L2.321 26.6794H11.8404C11.8404 27.2948 12.0848 27.8851 12.52 28.3203C12.9552 28.7555 13.5455 29 14.1609 29H2.31283C1.90614 28.9986 1.50695 28.8904 1.15526 28.6862C0.803561 28.4819 0.511715 28.1889 0.308959 27.8363C0.106203 27.4838 -0.000341361 27.0841 8.21631e-07 26.6774C0.000343004 26.2707 0.10756 25.8713 0.310908 25.5191L14.3816 1.16099C14.5852 0.808027 14.8782 0.514903 15.231 0.3111C15.5839 0.107297 15.9842 0 16.3917 0C16.7991 0 17.1994 0.107297 17.5523 0.3111C17.9052 0.514903 18.1981 0.808027 18.4018 1.16099L22.3076 7.94301V7.93484Z" fill="#00C58E"/>
<path d="M32.4561 25.5191L23.6395 10.2555L22.3076 7.93488L20.9675 10.2555L12.159 25.5191C11.9554 25.8719 11.8481 26.2721 11.8481 26.6795C11.8482 27.0869 11.9554 27.4871 12.1591 27.8399C12.3629 28.1927 12.6559 28.4856 13.0087 28.6893C13.3615 28.8929 13.7618 29.0001 14.1691 29H30.4542C30.8609 28.9986 31.2601 28.8904 31.6117 28.6862C31.9634 28.482 32.2553 28.1889 32.458 27.8364C32.6608 27.4838 32.7673 27.0842 32.767 26.6775C32.7667 26.2708 32.6594 25.8713 32.4561 25.5191ZM14.1528 26.6794L22.3076 12.5761L30.4542 26.6794H14.161H14.1528Z" fill="#2F495E"/>
<path d="M38.7561 27.8479C38.5513 28.1992 38.2579 28.4905 37.9051 28.6927C37.5523 28.8949 37.1526 29.0009 36.746 29H30.446C31.0601 28.9978 31.6482 28.7524 32.0817 28.3174C32.5151 27.8825 32.7585 27.2934 32.7585 26.6794H36.7378L25.4535 7.11774L23.6395 10.2554L22.3076 7.93485L23.4516 5.96562C23.6552 5.61265 23.9482 5.31953 24.301 5.11573C24.6539 4.91192 25.0542 4.80463 25.4617 4.80463C25.8692 4.80463 26.2695 4.91192 26.6223 5.11573C26.9752 5.31953 27.2681 5.61265 27.4718 5.96562L38.7642 25.5191C39.1728 26.2381 39.1728 27.1288 38.7642 27.8397L38.7561 27.8479Z" fill="#108775"/>
</svg>
