<svg width="55" height="41" viewBox="0 0 55 41" fill="none" xmlns="http://www.w3.org/2000/svg">
<g id="nuxt" clip-path="url(#clip0_668_1005)">
<g id="Group">
<path id="Vector" d="M31.3334 11.2915L29.4515 14.5523L23.0157 3.39763L3.25897 37.6362H16.6356C16.6356 39.4371 18.0946 40.897 19.8942 40.897H3.25898C2.09489 40.897 1.01934 40.2752 0.437393 39.2663C-0.144551 38.2575 -0.144492 37.0146 0.43755 36.0058L20.1943 1.76722C20.7764 0.758266 21.8522 0.136719 23.0164 0.136719C24.1806 0.136719 25.2564 0.758266 25.8385 1.76722L31.3334 11.2915Z" fill="white"/>
<path id="Vector_2" d="M45.5957 36.0048L33.2157 14.5513L31.3338 11.2905L29.452 14.5513L17.0733 36.0048C16.4913 37.0136 16.4912 38.2565 17.0731 39.2653C17.6551 40.2742 18.7306 40.896 19.8947 40.896H42.7702C43.9346 40.896 45.0106 40.2749 45.5928 39.2659C46.1751 38.257 46.1752 37.0138 45.593 36.0048H45.5957ZM19.8947 37.6352L31.3338 17.8122L42.7702 37.6352H19.8947L19.8947 37.6352Z" fill="#C1C1C1"/>
<path id="Vector_3" d="M54.4461 39.2656C53.8641 40.2743 52.7887 40.896 51.6247 40.896H42.7694C44.5691 40.896 46.028 39.4361 46.028 37.6352H51.6179L35.7566 10.1452L33.2149 14.5514L31.333 11.2905L32.9352 8.51478C33.5172 7.50582 34.593 6.88428 35.7573 6.88428C36.9215 6.88428 37.9973 7.50582 38.5794 8.51478L54.4461 36.0048C55.0282 37.0137 55.0282 38.2567 54.4461 39.2656Z" fill="white"/>
</g>
</g>
<defs>
<clipPath id="clip0_668_1005">
<rect width="54.9893" height="40.9946" fill="white"/>
</clipPath>
</defs>
</svg>
