<svg width="33" height="29" viewBox="0 0 33 29" fill="none" xmlns="http://www.w3.org/2000/svg">
<path d="M32.5644 14.5033C32.5644 12.3461 29.8629 10.3017 25.721 9.03387C26.6768 4.81231 26.252 1.45365 24.3802 0.378347C23.9487 0.126116 23.4443 0.00663757 22.8933 0.00663757V1.48684C23.1987 1.48684 23.4443 1.54658 23.65 1.65942C24.5528 2.17716 24.9444 4.14855 24.639 6.68414C24.566 7.30808 24.4466 7.96521 24.3005 8.63561C22.9995 8.31701 21.5791 8.07141 20.0856 7.91211C19.1895 6.68414 18.2602 5.56901 17.3243 4.59327C19.4882 2.58205 21.5193 1.4802 22.9 1.4802V0C21.0746 0 18.6851 1.30098 16.2689 3.55779C13.8528 1.31426 11.4633 0.0265508 9.6379 0.0265508V1.50675C11.0119 1.50675 13.0497 2.60197 15.2135 4.59991C14.2843 5.57565 13.355 6.68414 12.4722 7.91211C10.9721 8.07141 9.55161 8.31701 8.25063 8.64225C8.09796 7.97848 7.98512 7.33463 7.90547 6.71733C7.5935 4.18173 7.97848 2.21035 8.87457 1.68597C9.0737 1.56649 9.33257 1.51339 9.6379 1.51339V0.0331884C9.08034 0.0331884 8.57587 0.152666 8.13779 0.404898C6.2726 1.4802 5.85443 4.83223 6.81689 9.04051C2.68826 10.3149 0 12.3527 0 14.5033C0 16.6606 2.70153 18.705 6.84344 19.9728C5.88762 24.1943 6.31243 27.553 8.18425 28.6283C8.6157 28.8805 9.12017 29 9.67773 29C11.5031 29 13.8927 27.699 16.3088 25.4422C18.7249 27.6857 21.1144 28.9734 22.9398 28.9734C23.4974 28.9734 24.0018 28.854 24.4399 28.6017C26.3051 27.5264 26.7233 24.1744 25.7608 19.9661C29.8762 18.6983 32.5644 16.6539 32.5644 14.5033ZM23.9222 10.076C23.6766 10.9322 23.3712 11.8151 23.0261 12.6979C22.7539 12.1669 22.4685 11.6358 22.1566 11.1048C21.8512 10.5738 21.526 10.0561 21.2007 9.55161C22.1433 9.691 23.0526 9.86358 23.9222 10.076ZM20.8821 17.1451C20.3644 18.0412 19.8334 18.8908 19.2824 19.6807C18.2934 19.767 17.2911 19.8135 16.2822 19.8135C15.2799 19.8135 14.2776 19.767 13.2953 19.6873C12.7443 18.8975 12.2067 18.0545 11.6889 17.165C11.1845 16.2955 10.7265 15.4127 10.3083 14.5232C10.7198 13.6338 11.1845 12.7443 11.6823 11.8748C12.2 10.9787 12.7311 10.1291 13.282 9.33921C14.271 9.25292 15.2733 9.20645 16.2822 9.20645C17.2845 9.20645 18.2868 9.25292 19.2692 9.33257C19.8201 10.1225 20.3577 10.9654 20.8755 11.8549C21.3799 12.7244 21.8379 13.6072 22.2561 14.4967C21.8379 15.3861 21.3799 16.2756 20.8821 17.1451ZM23.0261 16.2822C23.3845 17.1717 23.6899 18.0611 23.9421 18.924C23.0726 19.1364 22.1566 19.3156 21.2074 19.455C21.5326 18.9439 21.8579 18.4195 22.1632 17.8819C22.4685 17.3509 22.7539 16.8132 23.0261 16.2822ZM16.2955 23.3646C15.6782 22.7274 15.0609 22.0172 14.4502 21.2406C15.0476 21.2671 15.6583 21.287 16.2756 21.287C16.8995 21.287 17.5168 21.2737 18.1209 21.2406C17.5235 22.0172 16.9062 22.7274 16.2955 23.3646ZM11.3571 19.455C10.4145 19.3156 9.50515 19.1431 8.63561 18.9306C8.88121 18.0744 9.18654 17.1916 9.5317 16.3088C9.80384 16.8398 10.0893 17.3708 10.4012 17.9018C10.7132 18.4328 11.0318 18.9506 11.3571 19.455ZM16.2623 5.64202C16.8796 6.27924 17.4969 6.98947 18.1076 7.76608C17.5102 7.73953 16.8995 7.71961 16.2822 7.71961C15.6583 7.71961 15.041 7.73289 14.4369 7.76608C15.0343 6.98947 15.6516 6.27924 16.2623 5.64202ZM11.3504 9.55161C11.0252 10.0627 10.6999 10.5871 10.3946 11.1247C10.0893 11.6558 9.80384 12.1868 9.5317 12.7178C9.17327 11.8283 8.86793 10.9389 8.6157 10.076C9.48524 9.87022 10.4012 9.691 11.3504 9.55161ZM5.34333 17.862C2.99359 16.8597 1.47356 15.5454 1.47356 14.5033C1.47356 13.4612 2.99359 12.1403 5.34333 11.1447C5.91417 10.8991 6.53811 10.68 7.18196 10.4742C7.56031 11.7752 8.05814 13.1293 8.67544 14.5166C8.06477 15.8972 7.57359 17.2447 7.20188 18.539C6.54475 18.3333 5.92081 18.1076 5.34333 17.862ZM8.9144 27.3472C8.01167 26.8295 7.62005 24.8581 7.92538 22.3225C7.9984 21.6986 8.11788 21.0414 8.26391 20.371C9.56489 20.6896 10.9854 20.9352 12.4788 21.0945C13.3749 22.3225 14.3042 23.4376 15.2401 24.4134C13.0762 26.4246 11.0451 27.5264 9.66445 27.5264C9.36576 27.5198 9.11353 27.4601 8.9144 27.3472ZM24.659 22.2893C24.9709 24.8249 24.5859 26.7963 23.6899 27.3207C23.4907 27.4401 23.2319 27.4932 22.9265 27.4932C21.5525 27.4932 19.5148 26.398 17.3509 24.4001C18.2802 23.4244 19.2094 22.3159 20.0922 21.0879C21.5924 20.9286 23.0128 20.683 24.3138 20.3577C24.4665 21.0282 24.5859 21.672 24.659 22.2893ZM27.2145 17.862C26.6436 18.1076 26.0197 18.3266 25.3758 18.5324C24.9975 17.2314 24.4997 15.8773 23.8824 14.49C24.493 13.1094 24.9842 11.762 25.3559 10.4676C26.013 10.6734 26.637 10.8991 27.2211 11.1447C29.5708 12.1469 31.0909 13.4612 31.0909 14.5033C31.0842 15.5454 29.5642 16.8663 27.2145 17.862Z" fill="#61DAFB"/>
<path d="M16.2756 17.5368C17.9509 17.5368 19.309 16.1787 19.309 14.5034C19.309 12.8281 17.9509 11.47 16.2756 11.47C14.6003 11.47 13.2422 12.8281 13.2422 14.5034C13.2422 16.1787 14.6003 17.5368 16.2756 17.5368Z" fill="#61DAFB"/>
</svg>
