<svg width="57" height="50" viewBox="0 0 57 50" fill="none" xmlns="http://www.w3.org/2000/svg">
<g id="react">
<path id="Vector" d="M56.1456 25.0057C56.1456 21.2863 51.4878 17.7615 44.3465 15.5756C45.9945 8.29709 45.2621 2.50629 42.0348 0.652323C41.2909 0.217441 40.4212 0.0114441 39.4713 0.0114441V2.56352C39.9977 2.56352 40.4212 2.66651 40.7759 2.86107C42.3323 3.75372 43.0076 7.15267 42.4811 11.5244C42.3552 12.6001 42.1492 13.7331 41.8975 14.889C39.6544 14.3397 37.2053 13.9162 34.6304 13.6416C33.0854 11.5244 31.4832 9.60174 29.8695 7.91943C33.6004 4.45182 37.1023 2.55207 39.4827 2.55207V0C36.3355 0 32.2156 2.24308 28.0499 6.13413C23.8842 2.26597 19.7642 0.0457772 16.6171 0.0457772V2.59785C18.986 2.59785 22.4994 4.48615 26.2303 7.93088C24.6281 9.61318 23.0259 11.5244 21.5038 13.6416C18.9174 13.9162 16.4683 14.3397 14.2252 14.9004C13.962 13.756 13.7675 12.6459 13.6301 11.5816C13.0922 7.20989 13.756 3.81094 15.301 2.90684C15.6443 2.70085 16.0906 2.60929 16.6171 2.60929V0.0572213C15.6558 0.0572213 14.786 0.263218 14.0307 0.6981C10.8148 2.55207 10.0938 8.33143 11.7533 15.5871C4.63493 17.7844 0 21.2978 0 25.0057C0 28.7251 4.65782 32.2499 11.799 34.4358C10.1511 41.7143 10.8835 47.5051 14.1108 49.3591C14.8547 49.794 15.7244 50 16.6857 50C19.8329 50 23.9529 47.7569 28.1186 43.8659C32.2843 47.734 36.4042 49.9542 39.5514 49.9542C40.5127 49.9542 41.3825 49.7482 42.1378 49.3133C45.3536 47.4594 46.0746 41.68 44.4152 34.4244C51.5106 32.2385 56.1456 28.7137 56.1456 25.0057ZM41.2451 17.3724C40.8217 18.8487 40.2953 20.3708 39.7002 21.8929C39.2309 20.9773 38.7388 20.0618 38.201 19.1463C37.6745 18.2307 37.1138 17.3381 36.553 16.4683C38.1781 16.7086 39.7459 17.0062 41.2451 17.3724ZM36.0037 29.5605C35.111 31.1055 34.1955 32.5704 33.2456 33.9323C31.5404 34.081 29.8123 34.1611 28.0728 34.1611C26.3447 34.1611 24.6166 34.081 22.9229 33.9437C21.973 32.5818 21.046 31.1284 20.1534 29.5949C19.2836 28.0957 18.4939 26.5736 17.7729 25.0401C18.4825 23.5065 19.2836 21.973 20.1419 20.4738C21.0346 18.9288 21.9501 17.4639 22.9 16.1021C24.6052 15.9533 26.3333 15.8732 28.0728 15.8732C29.8009 15.8732 31.529 15.9533 33.2227 16.0906C34.1726 17.4525 35.0996 18.9059 35.9922 20.4395C36.862 21.9387 37.6516 23.4607 38.3726 24.9943C37.6516 26.5278 36.862 28.0613 36.0037 29.5605ZM39.7002 28.0728C40.3181 29.6063 40.8446 31.1398 41.2795 32.6276C39.7803 32.9938 38.201 33.3028 36.5644 33.5431C37.1252 32.6619 37.686 31.7578 38.2124 30.8309C38.7388 29.9153 39.2309 28.9883 39.7002 28.0728ZM28.0957 40.2838C27.0314 39.1852 25.967 37.9606 24.9142 36.6217C25.9442 36.6674 26.997 36.7018 28.0613 36.7018C29.1371 36.7018 30.2014 36.6789 31.2429 36.6217C30.2129 37.9606 29.1486 39.1852 28.0957 40.2838ZM19.5811 33.5431C17.9561 33.3028 16.3882 33.0053 14.889 32.639C15.3124 31.1627 15.8389 29.6406 16.434 28.1186C16.9032 29.0341 17.3953 29.9496 17.9332 30.8652C18.471 31.7807 19.0204 32.6734 19.5811 33.5431ZM28.0385 9.72763C29.1028 10.8263 30.1671 12.0508 31.22 13.3898C30.19 13.344 29.1371 13.3097 28.0728 13.3097C26.997 13.3097 25.9327 13.3326 24.8913 13.3898C25.9213 12.0508 26.9856 10.8263 28.0385 9.72763ZM19.5697 16.4683C19.0089 17.3495 18.4482 18.2536 17.9217 19.1806C17.3953 20.0961 16.9032 21.0117 16.434 21.9272C15.816 20.3937 15.2895 18.8602 14.8547 17.3724C16.3539 17.0176 17.9332 16.7086 19.5697 16.4683ZM9.21264 30.7965C5.16137 29.0684 2.54063 26.8025 2.54063 25.0057C2.54063 23.209 5.16137 20.9316 9.21264 19.2149C10.1968 18.7915 11.2726 18.4138 12.3827 18.0591C13.035 20.3021 13.8933 22.6368 14.9577 25.0286C13.9048 27.409 13.0579 29.7322 12.417 31.9638C11.284 31.6091 10.2083 31.22 9.21264 30.7965ZM15.3697 47.1504C13.8132 46.2577 13.138 42.8588 13.6645 38.4871C13.7903 37.4113 13.9963 36.2783 14.2481 35.1225C16.4912 35.6718 18.9403 36.0952 21.5152 36.3699C23.0602 38.4871 24.6624 40.4097 26.276 42.092C22.5452 45.5596 19.0433 47.4594 16.6629 47.4594C16.1479 47.4479 15.713 47.3449 15.3697 47.1504ZM42.5155 38.4298C43.0533 42.8016 42.3896 46.2005 40.8446 47.1046C40.5013 47.3106 40.0549 47.4022 39.5285 47.4022C37.1595 47.4022 33.6461 45.5138 29.9153 42.0691C31.5175 40.3868 33.1197 38.4756 34.6418 36.3584C37.2282 36.0838 39.6773 35.6603 41.9203 35.0996C42.1836 36.2554 42.3896 37.3655 42.5155 38.4298ZM46.9215 30.7965C45.9373 31.22 44.8615 31.5976 43.7514 31.9524C43.0991 29.7093 42.2408 27.3747 41.1765 24.9828C42.2293 22.6024 43.0762 20.2792 43.7171 18.0476C44.8501 18.4024 45.9258 18.7915 46.9329 19.2149C50.9842 20.943 53.6049 23.209 53.6049 25.0057C53.5935 26.8025 50.9728 29.0799 46.9215 30.7965Z" fill="white"/>
<path id="Vector_2" d="M28.0611 30.2359C30.9495 30.2359 33.2911 27.8944 33.2911 25.0059C33.2911 22.1174 30.9495 19.7759 28.0611 19.7759C25.1726 19.7759 22.8311 22.1174 22.8311 25.0059C22.8311 27.8944 25.1726 30.2359 28.0611 30.2359Z" fill="white"/>
</g>
</svg>
