<svg width="42" height="42" viewBox="0 0 42 42" fill="none" xmlns="http://www.w3.org/2000/svg">
<mask id="mask0_695_18" style="mask-type:luminance" maskUnits="userSpaceOnUse" x="0" y="0" width="42" height="42">
<path d="M42 0H0V42H42V0Z" fill="white"/>
</mask>
<g mask="url(#mask0_695_18)">
<path d="M39.375 0H2.625C1.17525 0 0 1.17525 0 2.625V39.375C0 40.8247 1.17525 42 2.625 42H39.375C40.8247 42 42 40.8247 42 39.375V2.625C42 1.17525 40.8247 0 39.375 0Z" fill="white"/>
<path d="M12.9349 10.8813C12.9349 14.4902 15.2033 16.6375 19.7447 17.7698L24.5571 18.866C28.8551 19.8359 31.4725 22.2448 31.4725 26.1695C31.506 27.8793 30.9401 29.5484 29.87 30.8971C29.87 26.9815 27.8082 24.8658 22.8351 23.5937L18.11 22.5381C14.3263 21.69 11.4058 19.7096 11.4058 15.4466C11.3859 13.8003 11.9238 12.1943 12.9349 10.8813Z" fill="#101010"/>
<path d="M26.9135 25.2087C28.9661 26.4989 29.8661 28.3033 29.8661 30.8927C28.1671 33.0309 25.1823 34.2309 21.6741 34.2309C15.7689 34.2309 11.6362 31.3754 10.7178 26.4132H16.3888C17.1189 28.6913 19.0521 29.7469 21.6328 29.7469C24.7829 29.7469 26.8768 28.0958 26.9181 25.1997" fill="#515151"/>
<path d="M15.8831 16.2314C14.9458 15.6841 14.1768 14.8978 13.6578 13.9558C13.1388 13.0139 12.889 11.9514 12.9351 10.8812C14.5744 8.76099 17.426 7.46631 20.9021 7.46631C26.9175 7.46631 30.3982 10.588 31.2569 14.9818H25.8017C25.2001 13.2495 23.694 11.9007 20.948 11.9007C18.0137 11.9007 16.0117 13.5789 15.8969 16.2314" fill="#515151"/>
</g>
</svg>
