<svg width="56" height="42" viewBox="0 0 56 42" fill="none" xmlns="http://www.w3.org/2000/svg">
<g id="sass" clip-path="url(#clip0_668_921)">
<path id="Vector" d="M47.7246 23.7132C45.7967 23.724 44.1277 24.1862 42.7277 24.8742C42.2109 23.853 41.6939 22.9608 41.6078 22.2944C41.5111 21.5205 41.3925 21.0474 41.5111 20.123C41.6294 19.1985 42.1677 17.8871 42.1677 17.7796C42.1569 17.6828 42.0491 17.2099 40.94 17.1991C39.8309 17.1884 38.8726 17.4141 38.7648 17.7044C38.657 17.9946 38.4417 18.661 38.3018 19.349C38.1079 20.3594 36.0833 23.9389 34.931 25.82C34.5542 25.0891 34.2311 24.4442 34.1663 23.9281C34.0696 23.1542 33.951 22.6811 34.0696 21.7568C34.1882 20.8323 34.7265 19.521 34.7265 19.4135C34.7157 19.3167 34.6079 18.8438 33.4989 18.833C32.3898 18.8223 31.4314 19.048 31.3236 19.3382C31.2161 19.6285 31.0975 20.3164 30.8606 20.9829C30.6343 21.6493 27.9423 27.6259 27.2422 29.1845C26.8868 29.9801 26.5746 30.6142 26.3484 31.0442C26.1222 31.4741 26.3376 31.0763 26.3161 31.1196C26.1222 31.485 26.0145 31.6891 26.0145 31.6891V31.6999C25.8638 31.9686 25.7022 32.2266 25.6267 32.2266C25.5729 32.2266 25.4652 31.5066 25.6483 30.5176C26.0468 28.4429 27.0159 25.2075 27.0053 25.0892C27.0053 25.0355 27.1882 24.4657 26.3806 24.1755C25.5944 23.8853 25.3146 24.369 25.2499 24.369C25.1852 24.369 25.1314 24.541 25.1314 24.541C25.1314 24.541 26.0037 20.8971 23.4622 20.8971C21.8685 20.8971 19.6716 22.6277 18.584 24.2079C17.8948 24.5841 16.4302 25.3794 14.8795 26.2287C14.2872 26.5512 13.6734 26.8952 13.0919 27.2069L12.9735 27.0777C9.89366 23.7992 4.19694 21.4773 4.43386 17.0701C4.52 15.4685 5.07998 11.244 15.3751 6.12735C23.8071 1.93513 30.5592 3.0853 31.7328 5.64363C33.4019 9.29839 28.1251 16.0919 19.3595 17.0701C16.0212 17.4464 14.2658 16.1565 13.8244 15.6727C13.3613 15.1675 13.2967 15.146 13.1244 15.2428C12.8444 15.3932 13.0167 15.8447 13.1244 16.1134C13.3828 16.7907 14.4597 17.9946 16.2904 18.5965C17.8949 19.1232 21.8148 19.4135 26.5531 17.5861C31.8622 15.533 36.008 9.83585 34.7911 5.07392C33.5529 0.225995 25.4977 -1.3649 17.8842 1.33317C13.3504 2.94556 8.43986 5.4609 4.9077 8.76092C0.707857 12.6737 0.04019 16.0919 0.320179 17.5108C1.30025 22.5738 8.28908 25.8738 11.089 28.3138C10.949 28.3892 10.8198 28.4642 10.7013 28.5288C9.30137 29.2166 3.9708 32.0008 2.63547 34.9461C1.12784 38.2783 2.8724 40.6757 4.03541 40.9981C7.63221 41.9976 11.3151 40.2025 13.3074 37.2466C15.2887 34.2904 15.0519 30.453 14.1365 28.7008L14.1041 28.6363L15.2026 27.9913C15.9134 27.5722 16.6134 27.1852 17.2271 26.8519C16.8826 27.7872 16.6348 28.8942 16.5057 30.5068C16.3549 32.3986 17.1303 34.8495 18.1533 35.8168C18.6056 36.236 19.1441 36.2468 19.4779 36.2468C20.6625 36.2468 21.2009 35.2683 21.7932 34.0968C22.5255 32.6673 23.1716 31.0118 23.1716 31.0118C23.1716 31.0118 22.3639 35.4944 24.5715 35.4944C25.3792 35.4944 26.1868 34.4517 26.553 33.9142V33.925C26.553 33.925 26.5745 33.8926 26.6176 33.8175C26.6628 33.7508 26.7059 33.6826 26.7468 33.6134V33.5918C27.0699 33.0327 27.7913 31.7537 28.8682 29.6361C30.2574 26.9057 31.5929 23.4875 31.5929 23.4875C31.5929 23.4875 31.722 24.3259 32.1204 25.7018C32.3573 26.5189 32.8741 27.4109 33.2725 28.2817C32.9494 28.7332 32.7558 28.9911 32.7558 28.9911L32.7666 29.0019C32.5081 29.346 32.2171 29.7114 31.916 30.0768C30.8174 31.3883 29.5035 32.8826 29.3312 33.3125C29.1267 33.8175 29.1697 34.1937 29.5684 34.4949C29.859 34.7098 30.376 34.7528 30.9252 34.7098C31.916 34.6453 32.605 34.3982 32.9497 34.2475C33.488 34.0541 34.102 33.7638 34.6941 33.3338C35.7711 32.5385 36.428 31.4099 36.3634 29.9051C36.331 29.0773 36.0617 28.2603 35.7281 27.4864C35.8248 27.3467 35.9221 27.2068 36.0188 27.0564C37.7202 24.5732 39.0341 21.843 39.0341 21.843C39.0341 21.843 39.1632 22.6815 39.5616 24.0574C39.7661 24.7561 40.1756 25.5194 40.5416 26.2719C38.9479 27.5725 37.9463 29.0773 37.6017 30.0663C36.9663 31.8938 37.4617 32.7213 38.3988 32.915C38.8185 33.0009 39.4217 32.8075 39.8739 32.6138C40.4338 32.4313 41.1124 32.1193 41.7369 31.6573C42.8138 30.8619 43.8476 29.7546 43.7938 28.2603C43.7614 27.5725 43.5785 26.8953 43.3308 26.2504C44.6876 25.6914 46.4429 25.3689 48.6721 25.6376C53.4643 26.1966 54.4118 29.1848 54.229 30.4317C54.0458 31.6789 53.0442 32.3667 52.7104 32.5817C52.3765 32.7859 52.269 32.8612 52.3011 33.0117C52.3444 33.2374 52.4951 33.2266 52.7857 33.1837C53.1842 33.1191 55.3057 32.1626 55.3918 29.8624C55.5209 26.9058 52.7104 23.6811 47.7246 23.7132ZM10.7659 36.1501C9.1829 37.8807 6.95376 38.5364 6.00611 37.9774C4.98306 37.3862 5.3814 34.8387 7.33068 33.0006C8.51525 31.8828 10.0552 30.8508 11.0674 30.2164C11.2936 30.0768 11.6382 29.8726 12.0474 29.6253C12.112 29.5823 12.1551 29.5607 12.1551 29.5607C12.2305 29.5178 12.3166 29.464 12.4028 29.4103C13.1243 32.0332 12.4351 34.3334 10.7659 36.1501ZM22.3424 28.2925C21.7932 29.6361 20.6301 33.0865 19.9302 32.8931C19.327 32.7319 18.961 30.1198 19.8116 27.54C20.2423 26.2392 21.1577 24.6914 21.6961 24.0893C22.5685 23.1219 23.5161 22.7994 23.7531 23.1971C24.0331 23.7132 22.687 27.4539 22.3424 28.2925ZM31.8944 32.8501C31.6575 32.9684 31.4419 33.0543 31.3452 32.99C31.2698 32.9468 31.4419 32.7856 31.4419 32.7856C31.4419 32.7856 32.6372 31.5066 33.111 30.9154C33.3803 30.5716 33.7033 30.1738 34.048 29.7222V29.851C34.048 31.3991 32.5621 32.431 31.8944 32.8501ZM39.2602 31.1733C39.0878 31.0442 39.1095 30.6464 39.6907 29.3995C39.9171 28.905 40.4338 28.0775 41.3276 27.2927C41.4354 27.6152 41.5 27.9268 41.4892 28.2171C41.4786 30.1519 40.1002 30.8722 39.2602 31.1733Z" fill="white"/>
</g>
<defs>
<clipPath id="clip0_668_921">
<rect width="55.4133" height="41.2773" fill="white"/>
</clipPath>
</defs>
</svg>
