<svg width="48" height="48" viewBox="0 0 48 48" fill="none" xmlns="http://www.w3.org/2000/svg">
<g id="Group 17">
<path id="Vector" d="M0 16.64C0 8.79584 0 4.87374 2.43687 2.43687C4.87374 0 8.79584 0 16.64 0H31.36C39.2042 0 43.1262 0 45.5631 2.43687C48 4.87374 48 8.79584 48 16.64V31.36C48 39.2042 48 43.1262 45.5631 45.5631C43.1262 48 39.2042 48 31.36 48H16.64C8.79584 48 4.87374 48 2.43687 45.5631C0 43.1262 0 39.2042 0 31.36V16.64Z" fill="white"/>
<path id="Vector_2" fill-rule="evenodd" clip-rule="evenodd" d="M33.12 14.5601H16.96V22.8001H25.2V31.0401H33.44V14.8801C33.44 14.7033 33.2967 14.5601 33.12 14.5601Z" fill="#101010"/>
<path id="Vector_3" d="M25.1999 22.8003H24.8799V23.1203H25.1999V22.8003Z" fill="#101010"/>
<path id="Vector_4" d="M16.96 22.8003H24.88C25.0567 22.8003 25.2 22.9436 25.2 23.1203V31.0403H17.28C17.1032 31.0403 16.96 30.897 16.96 30.7203V22.8003Z" fill="#101010"/>
<path id="Vector_5" d="M25.2002 31.04H33.4402L25.4733 39.0069C25.3725 39.1077 25.2002 39.0363 25.2002 38.8938V31.04Z" fill="#101010"/>
<path id="Vector_6" d="M16.9604 22.8001H9.1066C8.96404 22.8001 8.89268 22.6277 8.99348 22.5269L16.9604 14.5601V22.8001Z" fill="#101010"/>
</g>
</svg>
