<svg width="29" height="29" viewBox="0 0 29 29" fill="none" xmlns="http://www.w3.org/2000/svg">
<path d="M0 14.5V29H29V0H0V14.5ZM23.3695 13.3497C24.1081 13.5313 24.6712 13.8582 25.1858 14.391C25.4522 14.6756 25.8518 15.1962 25.876 15.3173C25.8881 15.3537 24.6288 16.2013 23.8599 16.6795C23.8357 16.6977 23.7267 16.5766 23.5996 16.395C23.2242 15.8501 22.8367 15.614 22.2374 15.5716C21.3595 15.5111 20.7843 15.9712 20.7964 16.7401C20.7964 16.9701 20.8267 17.1033 20.9175 17.285C21.1113 17.6845 21.4745 17.9267 22.6006 18.4111C24.6772 19.3071 25.5672 19.8944 26.1121 20.7359C26.4226 21.265 26.6138 21.8556 26.6724 22.4663C26.7309 23.077 26.6554 23.6931 26.4511 24.2716C25.991 25.4764 24.8528 26.2937 23.2424 26.5662C22.5096 26.6494 21.7694 26.6413 21.0386 26.542C19.9148 26.3583 18.8793 25.8193 18.0841 25.0042C17.7833 24.6661 17.5288 24.2894 17.3273 23.8841L17.5998 23.7146L18.6775 23.0971L19.5069 22.6127L19.6885 22.8731C19.9307 23.2424 20.4635 23.757 20.7783 23.9265C21.7106 24.4109 22.982 24.3443 23.6056 23.7812C23.872 23.539 23.981 23.2848 23.981 22.9094C23.981 22.5764 23.9386 22.4251 23.7691 22.1768C23.539 21.8559 23.0789 21.5835 21.7712 21.0144C20.2758 20.3727 19.634 19.9731 19.0468 19.3374C18.7017 18.9681 18.3808 18.3808 18.2476 17.8843C18.131 17.2757 18.1126 16.6523 18.1931 16.0378C18.5019 14.5848 19.5977 13.5797 21.1718 13.2831C21.6804 13.1862 22.867 13.2225 23.3695 13.3436V13.3497ZM16.5645 14.5605L16.5706 15.7411H12.7987V26.4693H10.1288V15.7411H6.35094V14.5787L6.38726 13.38C6.39937 13.3618 8.69395 13.3557 11.4789 13.3557L16.5463 13.3739L16.5645 14.5545V14.5605Z" fill="#007ACC"/>
</svg>
