<svg width="48" height="48" viewBox="0 0 48 48" fill="none" xmlns="http://www.w3.org/2000/svg">
<g id="typescript" clip-path="url(#clip0_668_1014)">
<path id="Vector" d="M0 23.6079V47.2144H47.2144V0H0V23.6079ZM38.0485 21.7268C39.2472 22.0264 40.162 22.5589 41.0015 23.4279C41.4367 23.8927 42.0808 24.7396 42.1331 24.9417C42.1479 25.0008 40.0949 26.3802 38.8504 27.1526C38.8061 27.1821 38.6253 26.9881 38.4225 26.6879C37.8154 25.8026 37.1787 25.4213 36.2042 25.354C34.7731 25.2568 33.8436 26.0062 33.8584 27.2574C33.8584 27.6248 33.91 27.8416 34.0604 28.1426C34.3754 28.7947 34.9605 29.1842 36.7958 29.9795C40.176 31.4328 41.6219 32.3918 42.5204 33.7565C43.5237 35.2776 43.7494 37.7062 43.0678 39.5121C42.3183 41.4758 40.46 42.8096 37.8449 43.2523C37.0356 43.3946 35.1169 43.3725 34.2478 43.2153C32.3519 42.8782 30.5534 41.9413 29.444 40.7123C29.0087 40.2328 28.1626 38.981 28.2149 38.8902C28.237 38.8607 28.4325 38.7405 28.6502 38.6128L30.4036 37.6022L31.761 36.815L32.0458 37.2355C32.4427 37.8426 33.3124 38.674 33.837 38.9514C35.3433 39.746 37.4119 39.633 38.4306 38.7191C38.8658 38.3221 39.0451 37.9098 39.0451 37.3026C39.0451 36.7553 38.9787 36.5155 38.6932 36.1039C38.3259 35.5802 37.5764 35.1375 35.4473 34.2154C33.0115 33.1664 31.9624 32.5143 31.0034 31.48C30.4487 30.8802 29.9242 29.9212 29.7065 29.1194C29.5266 28.4525 29.4815 26.7808 29.6239 26.1065C30.1256 23.7459 31.902 22.1119 34.4654 21.625C35.2976 21.4679 37.2319 21.5276 38.0477 21.7298L38.0485 21.7268ZM26.9645 23.6965L26.9792 25.6292H20.8342V43.0907H16.4877V25.6292H10.3426V23.7334L10.3943 21.7859C10.4163 21.7563 14.1565 21.7416 18.6904 21.7489L26.9416 21.7711L26.9645 23.6965Z" fill="white"/>
</g>
<defs>
<clipPath id="clip0_668_1014">
<rect width="47.2144" height="47.2144" fill="white"/>
</clipPath>
</defs>
</svg>
