<svg width="830" height="830" fill="none" xmlns="http://www.w3.org/2000/svg"><g filter="url(#a)"><path d="M414 745c185.57 0 336-150.43 336-336S599.57 73 414 73 78 223.43 78 409s150.43 336 336 336Z" fill="url(#b)"/></g><g filter="url(#c)"><path d="M413.5 563c83.67 0 151.5-67.83 151.5-151.5S497.17 260 413.5 260 262 327.83 262 411.5 329.83 563 413.5 563Z" fill="url(#d)"/></g><path d="M414.6 500.38a89.78 89.78 0 1 0 0-179.56 89.78 89.78 0 0 0 0 179.56Z" fill="url(#e)"/><g><path d="M413.5 798C628.62 798 803 623.62 803 408.5S628.62 19 413.5 19 24 193.38 24 408.5 198.38 798 413.5 798Z" stroke="url(#f)" stroke-width="2" stroke-dasharray="25 25"/><g fill="#8CC84B"><path d="M145.29 657.58a4.53 4.53 0 0 1 4.42 0l20.2 11.4a4.13 4.13 0 0 1 2.09 3.58v22.88c0 1.52-.92 2.96-2.25 3.65-6.73 3.77-13.42 7.56-20.13 11.35a4.4 4.4 0 0 1-4.47-.11l-6.03-3.5c-.4-.25-.87-.45-1.16-.85.25-.35.71-.38 1.08-.54.84-.25 1.61-.7 2.38-1.1.2-.13.45-.09.62.04 1.73.97 3.42 2 5.15 2.97.39.2.75-.06 1.06-.24L168 695.97a.66.66 0 0 0 .36-.65v-22.64a.74.74 0 0 0-.42-.7l-20.06-11.3a.7.7 0 0 0-.76 0l-20.06 11.31a.67.67 0 0 0-.43.7v22.67a.64.64 0 0 0 .37.63l5.35 3.02c1.02.54 2.25.87 3.34.44a2.54 2.54 0 0 0 1.66-2.38v-22.5a.56.56 0 0 1 .61-.58h2.58c.36 0 .6.35.58.67l-.02 22.66c0 2.02-.83 4.2-2.7 5.19a8.26 8.26 0 0 1-7.38-.2c-1.96-1-3.85-2.15-5.77-3.18a4.2 4.2 0 0 1-2.25-3.66v-22.88c0-1.48.87-2.93 2.17-3.64l20.12-11.34v-.02Z"/><path d="M151.15 673.42c2.9-.19 6.04-.11 8.68 1.33a6.58 6.58 0 0 1 3.2 5.7c-.05.3-.38.45-.66.43h-2.56c-.39 0-.58-.32-.62-.63a3.86 3.86 0 0 0-1.86-2.7c-1.56-.76-3.39-.72-5.08-.7a6.93 6.93 0 0 0-3.65.9c-.81.56-1.06 1.67-.77 2.58.28.65 1.02.84 1.63 1.03 3.54.93 7.27.85 10.73 2.06 1.43.48 2.83 1.44 3.31 2.95.65 2.01.38 4.42-1.06 6.03a8.43 8.43 0 0 1-4.54 2.45c-2.24.45-4.55.55-6.82.28-2.2-.12-4.3-.91-6.02-2.27a6.28 6.28 0 0 1-2.04-4.98c0-.3.33-.51.63-.5h2.56c.35-.01.58.27.62.58.15 1.04.53 2.12 1.44 2.75 1.73 1.12 3.9 1.04 5.9 1.06 1.66-.06 3.5-.08 4.85-1.17.71-.62.9-1.66.73-2.56-.21-.77-1-1.1-1.7-1.35-3.45-1.1-7.24-.69-10.69-1.92-1.4-.5-2.75-1.44-3.28-2.89a5.86 5.86 0 0 1 1.15-6.1c1.58-1.55 3.8-2.17 5.92-2.36Z"/></g><path d="M503.5 812a26.5 26.5 0 1 0 0-53 26.5 26.5 0 0 0 0 53Z" fill="url(#g)"/><path d="M506.32 771.67a7.1 7.1 0 0 1 4.45-2.06 65.16 65.16 0 0 0 12.22-2.06A26.43 26.43 0 0 0 503.5 759c-5.53 0-10.67 1.7-14.91 4.6a5.1 5.1 0 0 0-.73 7.8 2.88 2.88 0 0 0 4.07 0 2.88 2.88 0 0 1 4.05-.01l.31.3a7.11 7.11 0 0 0 10.03-.02Z" fill="url(#h)"/><path d="M503.5 778.3a2.34 2.34 0 0 0 2.4 2.34c7.13-.18 13.79-1.14 18.95-2.76a31.8 31.8 0 0 0 3.59-1.36 26.35 26.35 0 0 0-1.97-4.24c-.83.38-1.83.76-3.03 1.13-4.76 1.5-10.96 2.4-17.66 2.56a2.34 2.34 0 0 0-2.28 2.33Z" fill="url(#i)"/><path d="M503.5 759c-.7 0-1.4.03-2.08.08 2.9.23 5.68.92 8.25 2 8.83 3.75 6.36 16.9-3.23 17.2-.97.04-1.95.05-2.94.05-9.98 0-18.78-1.57-24.05-3.97A26.4 26.4 0 0 0 477 785.5v.05c0 2.7 1.02 5.29 2.83 7.3l.69.77a3.99 3.99 0 0 0 4.54.97 4 4 0 0 1 4.01.52c2.17 1.7 5 2.31 7.64 1.55l2.6-.75c1.55-.44 3.2 0 4.34 1.13a4.4 4.4 0 0 0 3.1 1.27h2c2.04 0 3.99-.83 5.44-2.27a7.66 7.66 0 0 1 4.04-2.1c.5-.08 1-.18 1.36-.25a2.91 2.91 0 0 1 3.18 4.2l-.05.1a2.94 2.94 0 0 1-1.89 1.46c-3.2.78-6.89 1.34-10.84 1.62-1.61.12-3.24-.02-4.82-.4-1.52-.38-3.09-.52-4.65-.43l-5.76.35a5.5 5.5 0 0 1-3.16-.78l-1.25-.75a5.5 5.5 0 0 0-4.86-.4c-.62.24-1.3.27-1.93.07a25.3 25.3 0 0 1-3.83-1.52 26.57 26.57 0 0 0 4.62 6.6c5.4 1.4 12.1 2.17 19.15 2.17h.15c3.43 0 3.88 4.96.5 5.58-.9.17-1.8.29-2.73.36A26.5 26.5 0 1 0 503.5 759Z" fill="url(#j)"/><path d="M525 800.99c-5.33 1.82-12.99 2.97-21.5 2.97-8.5 0-16.17-1.15-21.5-2.97.71 1 1.5 1.94 2.35 2.82 5.4 1.4 12.1 2.17 19.15 2.17h.15c3.41 0 3.9 4.96.54 5.58-.9.17-1.83.29-2.77.36A26.46 26.46 0 0 0 525 800.99Z" fill="url(#k)"/><path d="M530 785.5c0 1.3-.1 2.57-.27 3.81-.85.33-1.7.63-2.51.89-6.37 2-14.8 3.1-23.72 3.1-1.83 0-3.65-.05-5.43-.14a2.28 2.28 0 0 1-2.16-2.28c0-1.16-.87-2.14-2.03-2.27a61.34 61.34 0 0 1-11.73-2.3c-1.69-.53-3.5-1.22-5.12-2.11.09-1.75.34-3.44.75-5.08.51.42 2.11 1.2 3.19 1.72.68.32 1.27.81 1.73 1.42l.18.25a4.66 4.66 0 0 0 5.07 1.67 4.37 4.37 0 0 1 3.63.52l.47.3c1.11.73 2.56.68 3.63-.12.6-.45 1.35-.67 2.1-.63 1.87.12 3.78.18 5.72.18 7.57 0 14.65-.91 19.95-2.58 3.02-.95 4.79-1.93 5.77-2.73a26.5 26.5 0 0 1 .78 6.38Z" fill="url(#l)"/><path d="M516.28 785.62a82.45 82.45 0 0 1-13.98.93 2.34 2.34 0 0 0-.05 4.68l1.25.01c4.76 0 9.36-.35 13.51-1a2.34 2.34 0 0 0-.73-4.63Z" fill="url(#m)"/><path d="M524.22 783.73a37.17 37.17 0 0 1-1.32.42 2.34 2.34 0 0 0 1.33 4.48 56.03 56.03 0 0 0 1.5-.47 2.33 2.33 0 0 0-1.5-4.43Z" fill="url(#n)"/><path d="M523.44 773.41a56.47 56.47 0 0 1-10.73 2.1 8.7 8.7 0 0 1-6.27 2.78c-.97.03-1.95.04-2.94.04a2.34 2.34 0 0 0 2.4 2.31c7.13-.18 13.79-1.14 18.95-2.76a32 32 0 0 0 3.59-1.36 26.35 26.35 0 0 0-1.97-4.24 28 28 0 0 1-3.03 1.13Z" fill="url(#o)"/><path d="M501.42 759.08c2.9.23 5.68.92 8.24 2a8.64 8.64 0 0 1 5.46 8.06c2.9-.4 5.55-.94 7.87-1.59a26.43 26.43 0 0 0-21.57-8.47Z" fill="url(#p)"/><g><path d="M767.02 295.4a19.5 19.5 0 0 0 30.69-17.7 91.67 91.67 0 0 1-14.54 10.24c-5.13 3.01-10.54 5.5-16.15 7.46Z" fill="#6E76E5"/><path d="M767.02 295.4a91.28 91.28 0 0 0 16.15-7.46 91.67 91.67 0 0 0 14.54-10.24c6.66-5.87 10.14-11.34 8.45-14.29-1.7-2.94-8.17-2.66-16.6.19.95.66 1.83 1.41 2.64 2.24 4-1.12 6.81-1.16 7.56.14.72 1.25-.6 3.54-3.35 6.31a79.04 79.04 0 0 1-15.68 11.43 79.07 79.07 0 0 1-17.74 7.86c-3.78 1.02-6.42 1-7.14-.25-.75-1.3.69-3.7 3.65-6.61a18.82 18.82 0 0 1-.62-3.42c-6.67 5.87-10.15 11.34-8.45 14.29 1.7 2.94 8.17 2.66 16.6-.19Z" fill="#D5B4EB"/><path d="M763 291.58a79.07 79.07 0 0 0 17.73-7.86 79.08 79.08 0 0 0 15.68-11.43 19.15 19.15 0 0 0-6.85-8.7 19.5 19.5 0 0 0-26.57 28Z" fill="#6E76E5"/></g><g><path d="m159.7 80 1.46 2.76.98 1.3 3.25 3.74a32.02 32.02 0 0 1 6.17 17.06 24.37 24.37 0 0 1-9.75 20.31c-.49 0-.65-.32-.81-.8-.49-.5-.65-1.3-.81-1.96a9.73 9.73 0 0 1-.16-2.6v-.32s-.5-39-.33-39.49Z" fill="#599636"/><path d="M159.7 80h-.16c0 .65-.16 1.14-.49 1.63l-1.3 1.3A31.2 31.2 0 0 0 148 103.4c0 1.63.65 7.31 1.3 8.94a27.14 27.14 0 0 0 9.59 13.32l.32-.48c.08-.33.13-.65.16-.98l.66-4.39L159.7 80Z" fill="#6CAC48"/><path d="M161.16 126.8c0-.65.33-1.14.65-1.63l-.81-.8-.49-.82c-.32-1.3-.49-2.44-.49-3.74v-.65l-.16 1.14a28.26 28.26 0 0 1-.49 3.9l-.48 1.46c.48 1.63.65 3.25.65 4.88v.49c0 .65 0 .48.65.65l.65.32.16-.32v-4.88h.16Z" fill="#C2BFBF"/></g><path d="M648.13 101h-3.23v-6.7h-6.28v6.7h-3.22V85.36h3.22v6.34h6.28v-6.34h3.23V101Zm14.27-13.03h-4.79V101h-3.22V87.97h-4.73v-2.61h12.74v2.61Zm6.06-2.61 4.02 11.34 4-11.34h4.23V101h-3.24v-4.28l.33-7.38-4.23 11.66h-2.2l-4.22-11.64.32 7.36V101h-3.22V85.36h4.21Zm18.28 13.05h6.85V101h-10.07V85.36h3.22V98.4Zm-45.28 19.84h3.87v2.8h-3.88v4.38h-2.95v-4.38h-3.89v-2.8h3.9v-4.2h2.95v4.2Zm23.7 3.54c-.12 1.68-.74 3-1.87 3.97a6.53 6.53 0 0 1-4.42 1.45c-2 0-3.59-.67-4.74-2.02-1.14-1.35-1.72-3.2-1.72-5.56v-.95c0-1.5.27-2.83.8-3.98a5.94 5.94 0 0 1 5.7-3.56c1.8 0 3.26.49 4.36 1.45a5.95 5.95 0 0 1 1.91 4.08h-3.22c-.08-1.01-.36-1.74-.85-2.2-.48-.45-1.21-.68-2.2-.68-1.07 0-1.88.38-2.42 1.16-.53.76-.8 1.96-.81 3.57v1.19c0 1.69.25 2.92.76 3.7.52.78 1.32 1.17 2.43 1.17 1 0 1.74-.22 2.22-.67.5-.46.78-1.17.85-2.12h3.22Zm10.23 1.1c0-.6-.22-1.07-.64-1.39a8.26 8.26 0 0 0-2.33-1.03c-1.11-.37-2-.72-2.65-1.08-1.77-.95-2.66-2.25-2.66-3.87 0-.85.23-1.6.7-2.26a4.7 4.7 0 0 1 2.06-1.56c.9-.37 1.9-.56 3-.56 1.12 0 2.12.2 3 .62.87.4 1.54.97 2.02 1.7.49.74.73 1.58.73 2.52h-3.22a2.1 2.1 0 0 0-.68-1.67c-.45-.4-1.08-.6-1.9-.6-.79 0-1.4.17-1.84.5-.43.34-.65.77-.65 1.32 0 .5.25.93.76 1.28.52.34 1.27.66 2.27.96 1.83.55 3.17 1.24 4 2.05a4.09 4.09 0 0 1 1.26 3.06c0 1.35-.5 2.41-1.53 3.19a6.74 6.74 0 0 1-4.14 1.15c-1.2 0-2.3-.22-3.29-.66a4.66 4.66 0 0 1-3.04-4.48h3.24c0 1.73 1.03 2.59 3.1 2.59.76 0 1.36-.16 1.78-.46.43-.32.65-.75.65-1.31Zm13.53 0c0-.6-.21-1.07-.64-1.39a8.24 8.24 0 0 0-2.32-1.03c-1.12-.37-2-.72-2.65-1.08-1.78-.95-2.67-2.25-2.67-3.87 0-.85.24-1.6.71-2.26a4.68 4.68 0 0 1 2.05-1.56c.9-.37 1.9-.56 3.01-.56 1.12 0 2.11.2 2.99.62a4.46 4.46 0 0 1 2.76 4.22h-3.22a2.1 2.1 0 0 0-.68-1.67c-.45-.4-1.09-.6-1.9-.6-.79 0-1.4.17-1.84.5-.44.34-.65.77-.65 1.32 0 .5.25.93.76 1.28.51.34 1.27.66 2.26.96 1.84.55 3.17 1.24 4.01 2.05a4.09 4.09 0 0 1 1.26 3.06c0 1.35-.51 2.41-1.54 3.19a6.74 6.74 0 0 1-4.13 1.15c-1.2 0-2.3-.22-3.3-.66a4.65 4.65 0 0 1-3.04-4.48h3.24c0 1.73 1.03 2.59 3.1 2.59.76 0 1.36-.16 1.79-.46.43-.32.64-.75.64-1.31Z" fill="#fff"/><g><path d="m688.28 672.35-45.93-.35-.35 45.93 45.93.35.35-45.93Z" fill="#F7DF1E"/><path d="m657.61 709.49 2.76-1.66c.52.92.98 1.76 2.2 1.77 1.06 0 1.75-.44 1.76-2.12l.1-11.58 3.42.03-.09 11.5c-.03 3.5-2.1 5.09-5.14 5.07a5.26 5.26 0 0 1-5-3.09v.08Zm11.97-.3 2.75-1.57c.75 1.22 1.66 2.07 3.33 2.08 1.38.01 2.3-.75 2.3-1.66.01-1.14-.9-1.53-2.5-2.3l-.75-.31c-2.5-1.09-4.1-2.32-4.08-5.14.02-2.51 1.94-4.48 4.99-4.45 2.13.01 3.73.78 4.78 2.77l-2.6 1.66c-.6-1.07-1.21-1.46-2.2-1.46-1-.01-1.6.6-1.62 1.5 0 .92.6 1.38 2.05 2l.83.4c2.89 1.23 4.55 2.46 4.53 5.36-.02 3.04-2.47 4.62-5.67 4.6-3.2-.02-5.17-1.56-6.14-3.47Z" fill="#000"/></g></g><g><path d="M413.5 697C572.83 697 702 568.06 702 409S572.83 121 413.5 121 125 249.94 125 409s129.17 288 288.5 288Z" stroke="#004382" stroke-width="2"/><path d="M218.5 217a21.5 21.5 0 1 0 0-43 21.5 21.5 0 0 0 0 43Z" fill="#87DCFF"/><path d="m221 174.15-.88 2.76a2.08 2.08 0 0 1-1.44 1.38l-2.22.6c-.18.06-.37.08-.55.08h-3.33a.7.7 0 0 0-.7.6l-.37 2.87-2.13.11a.7.7 0 0 0-.66.66l-.07 1.85a.7.7 0 0 0 .75.72l1.42-.12c.36-.03.7-.21.9-.51l1.32-1.83 2.8-.1a.84.84 0 0 1 .8 1.14c-.48 1.26-.48 1.36-.48 1.47a.7.7 0 0 0 1.38.12c.04-.16.26-.71.53-1.42.12-.29.52-.33.7-.07l.17.27c.33.5.95.74 1.53.57l1.24-.34c.34-.1.62-.35.75-.69l.23-.63c.17-.44.56-.77 1.02-.86l.8-.17c.55-.11 1.13.22 1.22.76a.97.97 0 0 1-.84 1.14l-1.93.05c-.4 0-.71.32-.72.72v.18c0 .15.07.29.2.35l1.12.57a.79.79 0 0 1-.36 1.5h-5.85c-.16 0-.31-.04-.45-.1l-4.91-1.93a1.02 1.02 0 0 0-1.07.2l-4.65 4.3c-.37.34-.53.86-.4 1.35l.94 3.84c.15.6.66 1.02 1.27 1.06l5.24.28c1.03.05 1.87.86 1.96 1.88l.4 4.32c.03.32.12.63.26.93a28.8 28.8 0 0 0 2.04 3.74c.74.93 2.55.96 3.16.4l4.27-3.48c.35-.32.58-.76.65-1.24l.5-3.42 3.39-3.73a.7.7 0 0 0-.24-1.1l-.06.04a1.84 1.84 0 0 1-2.57-.55l-2.58-4.1a.7.7 0 0 1 1.17-.74l2.58 4.1a.45.45 0 0 0 .62.13l3.5-1.9a.67.67 0 0 0-.4-1.26l-.73.09a.7.7 0 0 1-.55-.18l-2.2-1.96a.7.7 0 0 1 .93-1.03l1.97 1.75 1.2-.13c.24-.03.48.07.63.28l.23.31 1.16-.14c.57-.07 1.12.22 1.39.72l2.35 4.34c.17.32.45.55.8.66l.84.3.01-.41a21.5 21.5 0 0 0-19-21.35Zm8.99 11.87a.7.7 0 0 1-.96-.19l-1.45-2.14a.7.7 0 1 1 1.15-.77l1.44 2.14a.7.7 0 0 1-.18.96Z" fill="#BEE86E"/><path d="M225.55 209.95a21.5 21.5 0 0 1-18.31-32.76A21.48 21.48 0 0 0 218.5 217c7.74 0 14.53-4.1 18.31-10.24a21.4 21.4 0 0 1-11.26 3.19Z" fill="#00C3FF"/><g fill="#BEE86E"><path d="M227.86 206.86a.7.7 0 0 1-.53-1.14l1.82-2.17a.7.7 0 0 1 1.06.9l-1.82 2.16a.7.7 0 0 1-.53.25ZM212.59 174.83l-.62 1.84a.7.7 0 0 0 1.31.44l.9-2.68c-.54.11-1.07.25-1.6.4Z"/></g><path d="m200.6 207.41.6-5.45c.05-.43-.1-.86-.41-1.16l-3.7-3.46c.3 3.7 1.56 7.14 3.51 10.07Z" fill="#AFD755"/><path d="M218.5 174c-.78 0-1.54.04-2.3.12l-.07 1.63a1.04 1.04 0 1 0 1.97.66l.8-2.4-.4-.01Z" fill="#BEE86E"/><g><path d="m419.9 99.8-2.48 3.98L409.48 90l-24.42 42.4h16.61c0 2.24 1.74 4.1 3.97 4.1h-20.58a4.08 4.08 0 0 1-3.48-6.2l24.43-42.28a4.08 4.08 0 0 1 7.07 0l6.81 11.78Z" fill="#00C58E"/><path d="m437.5 130.43-15.37-26.66-2.23-3.96-2.48 3.96-15.25 26.66a4.1 4.1 0 0 0 3.47 6.08h28.39a4.08 4.08 0 0 0 3.47-6.2v.12Zm-31.86 1.98 14.26-24.54 14.13 24.54h-28.52.13Z" fill="#2F495E"/><path d="M448.54 134.52a4.16 4.16 0 0 1-3.6 1.99h-10.91a4.02 4.02 0 0 0 3.97-4.1h6.94l-19.59-34.1-3.22 5.47-2.24-3.97 1.99-3.47a4.1 4.1 0 0 1 6.94 0l19.72 34.1a4.73 4.73 0 0 1 0 4.08Z" fill="#108775"/></g><g><path d="M137.86 372H148l-25.45 44.04L97 372h19.58l5.97 10.24 5.86-10.24h9.45Z" fill="#41B883"/><path d="m97 372 25.55 44.04L148 372h-10.14l-15.31 26.44-15.4-26.44H97Z" fill="#41B883"/><path d="m107.14 372 15.41 26.54 15.3-26.54h-9.44l-5.96 10.24-5.97-10.24h-9.34Z" fill="#35495E"/></g><g><path d="M673 387.5V409h43.1v-43h-43v21.5h-.1Zm34.71-1.73c1.1.27 2 .73 2.73 1.55l1 1.37s-1.82 1.36-3 2l-.37-.37c-.54-.9-1.09-1.18-2-1.27-1.28 0-2.19.64-2.19 1.82l.19.73c.36.64.9.91 2.55 1.73 3.1 1.28 4.37 2.19 5.19 3.37a6.68 6.68 0 0 1 .55 5.29c-.73 1.82-2.46 3-4.83 3.37-.73.18-2.46.18-3.28 0a7.93 7.93 0 0 1-4.38-2.28c-.43-.5-.8-1.05-1.09-1.64l.37-.27 1.64-.92 1.18-.72.27.36a5.23 5.23 0 0 0 1.64 1.55c1.37.73 3.28.64 4.2-.18.45-.37.54-.73.54-1.28s0-.73-.27-1.1c-.37-.45-1-.9-3-1.72-2.2-.91-3.1-1.55-4.02-2.46a6.37 6.37 0 0 1-1.18-2.19 6.9 6.9 0 0 1 0-2.73c.36-2.19 2-3.65 4.37-4.1 1.06-.13 2.14-.1 3.19.09Zm-10.02 1.82v1.82h-5.65v15.85h-3.92v-15.94h-5.64v-3.55h15.12v1.82h.09Z" fill="#007ACC"/></g><g><path d="M451.98 691.48c-2.13 0-3.91.45-5.59 1.23-.56-1.12-1.11-2.12-1.11-2.9-.23-.79-.34-1.35-.23-2.35l.78-2.68s-.1-.56-1.34-.67c-1.23 0-2.34.33-2.45.55l-.56 1.9c-.23 1.12-2.46 5.14-3.69 7.26a8.37 8.37 0 0 1-.9-2.23c-.1-.78-.21-1.34-.1-2.35.1-1.11.78-2.45.78-2.56 0-.12-.22-.67-1.45-.67-1.12 0-2.24.22-2.35.55-.22.34-.33 1.12-.56 1.8l-4.02 9.15-1.11 2.12c-.12.45 0 0 0 0l-.34.67-.33.67c-.12 0-.23-.9 0-1.9l1.45-6.14s.22-.67-.67-1c-.9-.34-1.12.22-1.23.22l-.11.22s.9-4.13-1.9-4.13c-1.79 0-4.25 2.01-5.47 3.8l-4.14 2.23-2 1.12-.12-.23c-3.35-3.68-9.83-6.25-9.5-11.16 0-1.8.68-6.48 12.18-12.29 9.38-4.58 16.98-3.35 18.32-.45 1.78 4.02-4.02 11.62-13.85 12.74-3.69.44-5.7-1.01-6.14-1.57-.56-.56-.67-.56-.79-.44-.33.1-.22.66 0 1 .23.67 1.46 2.01 3.47 2.68 1.78.67 6.14 1 11.5-1.12 5.92-2.23 10.5-8.6 9.16-13.96-1.34-5.36-10.39-7.14-18.88-4.13a42.88 42.88 0 0 0-14.51 8.27c-4.7 4.46-5.37 8.15-5.14 9.82 1.11 5.59 8.93 9.27 12.06 12.07l-.45.22c-1.56.78-7.48 3.8-8.93 7.15-1.68 3.68.22 6.36 1.56 6.7 4.02 1.12 8.04-.9 10.28-4.13 2.23-3.35 2-7.6 1-9.6l1.12-.79 2.23-1.23a23.26 23.26 0 0 0-.78 4.02c-.11 2.24.78 4.92 1.9 6.03.45.45 1.12.45 1.45.45 1.34 0 1.9-1.12 2.57-2.46.9-1.56 1.56-3.35 1.56-3.35s-.89 4.92 1.57 4.92c.89 0 1.78-1.12 2.23-1.68v-.11l.22-.22 2.35-4.47c1.56-3.13 3.01-6.93 3.01-6.93l.56 2.46c.34 1 .9 2.01 1.34 2.9l-.56.79-1 1.23c-1.12 1.45-2.68 3.12-2.8 3.68-.22.56-.22.9.23 1.23.34.33.9.33 1.56.33a7.82 7.82 0 0 0 4.13-1.67 3.95 3.95 0 0 0 1.9-3.8c0-.9-.33-1.78-.66-2.68l.22-.45c1.9-2.79 3.35-5.8 3.35-5.8l.67 2.45c.22.79.67 1.68 1.12 2.46a10.72 10.72 0 0 0-3.35 4.25c-.67 2-.12 3.01.89 3.23l1.68-.33a7.82 7.82 0 0 0 2.12-1.12c1.11-.9 2.23-2.12 2.23-3.8 0-.78-.22-1.56-.44-2.23 1.45-.67 3.34-1 5.91-.67 5.37.56 6.37 3.91 6.26 5.36-.23 1.34-1.34 2.24-1.79 2.35-.33.22-.45.33-.45.56 0 .22.23.22.56.1.45 0 2.8-1.1 2.9-3.68.23-3.35-3-6.92-8.48-6.81h-.11Zm-41.33 13.85c-1.67 1.9-4.13 2.68-5.25 2-1.11-.66-.67-3.45 1.57-5.58a29.54 29.54 0 0 1 4.13-3.01l1.12-.67v-.11l.33-.12c.9 2.9 0 5.48-1.79 7.49h-.1Zm13.07-8.83c-.67 1.57-1.9 5.37-2.68 5.14-.67-.1-1.12-3.01-.22-5.92a13.4 13.4 0 0 1 2.23-3.9c.9-1.12 1.9-1.46 2.23-1.01.34.67-1.11 4.8-1.56 5.7Zm10.61 5.14c-.22.11-.45.23-.56.11-.11 0 0-.22 0-.22l1.9-2.01 1.12-1.34c0 1.79-1.68 3.02-2.46 3.35v.11Zm8.27-1.9c-.23-.1-.23-.56.44-2 .22-.57.9-1.46 1.9-2.24l.11 1c0 2.13-1.56 2.9-2.45 3.36v-.12Z" fill="#CF649A"/></g></g><defs><linearGradient id="f" x1="413.5" y1="19" x2="413.5" y2="798" gradientUnits="userSpaceOnUse"><stop stop-color="#456EFF"/><stop offset="1" stop-color="#006984"/></linearGradient><linearGradient id="g" x1="476.14" y1="785.5" x2="529.81" y2="785.5" gradientUnits="userSpaceOnUse"><stop stop-color="#60B7FF"/><stop offset=".59" stop-color="#0182FC"/><stop offset="1" stop-color="#2740B0"/></linearGradient><linearGradient id="h" x1="466.71" y1="766.38" x2="527.23" y2="766.38" gradientUnits="userSpaceOnUse"><stop stop-color="#60B7FF"/><stop offset=".59" stop-color="#0182FC"/><stop offset="1" stop-color="#2740B0"/></linearGradient><linearGradient id="i" x1="493.32" y1="776.46" x2="523.77" y2="776.46" gradientUnits="userSpaceOnUse"><stop stop-color="#60B7FF"/><stop offset=".59" stop-color="#0182FC"/><stop offset="1" stop-color="#2740B0"/></linearGradient><linearGradient id="j" x1="465.38" y1="785.5" x2="525.71" y2="785.5" gradientUnits="userSpaceOnUse"><stop stop-color="#60B7FF"/><stop offset=".59" stop-color="#0182FC"/><stop offset="1" stop-color="#2740B0"/></linearGradient><linearGradient id="k" x1="452.58" y1="806.49" x2="520.89" y2="806.49" gradientUnits="userSpaceOnUse"><stop stop-color="#60B7FF"/><stop offset=".59" stop-color="#0182FC"/><stop offset="1" stop-color="#2740B0"/></linearGradient><linearGradient id="l" x1="465.67" y1="786.21" x2="539.08" y2="786.21" gradientUnits="userSpaceOnUse"><stop stop-color="#60B7FF"/><stop offset=".59" stop-color="#0182FC"/><stop offset="1" stop-color="#2740B0"/></linearGradient><linearGradient id="m" x1="466.12" y1="788.41" x2="524.39" y2="788.41" gradientUnits="userSpaceOnUse"><stop stop-color="#60B7FF"/><stop offset=".59" stop-color="#0182FC"/><stop offset="1" stop-color="#2740B0"/></linearGradient><linearGradient id="n" x1="466.12" y1="786.17" x2="524.39" y2="786.17" gradientUnits="userSpaceOnUse"><stop stop-color="#60B7FF"/><stop offset=".59" stop-color="#0182FC"/><stop offset="1" stop-color="#2740B0"/></linearGradient><linearGradient id="o" x1="441.36" y1="776.46" x2="524.85" y2="776.46" gradientUnits="userSpaceOnUse"><stop stop-color="#60B7FF"/><stop offset=".59" stop-color="#0182FC"/><stop offset="1" stop-color="#2740B0"/></linearGradient><linearGradient id="p" x1="476.38" y1="764.07" x2="521.48" y2="764.07" gradientUnits="userSpaceOnUse"><stop stop-color="#60B7FF"/><stop offset=".59" stop-color="#0182FC"/><stop offset="1" stop-color="#2740B0"/></linearGradient><radialGradient id="b" cx="0" cy="0" r="1" gradientUnits="userSpaceOnUse" gradientTransform="rotate(179.81 206.67 204.84) scale(384.716)"><stop stop-color="#fff" stop-opacity=".9"/><stop offset=".21" stop-color="#CBCCD0" stop-opacity=".6"/><stop offset=".53" stop-color="#7C7F87" stop-opacity=".25"/><stop offset="1" stop-color="#060C1B" stop-opacity=".03"/></radialGradient><radialGradient id="d" cx="0" cy="0" r="1" gradientUnits="userSpaceOnUse" gradientTransform="rotate(90 1 412.5) scale(151.5)"><stop stop-color="#005EEC"/><stop offset="1" stop-color="#8AA4FF" stop-opacity=".05"/></radialGradient><radialGradient id="e" cx="0" cy="0" r="1" gradientUnits="userSpaceOnUse" gradientTransform="rotate(85.18 -16.05 431.22) scale(89.3155)"><stop stop-color="#fff"/><stop offset="1" stop-color="#C4C4C4"/></radialGradient><filter id="a" x="58" y="53" width="712" height="712" filterUnits="userSpaceOnUse" color-interpolation-filters="sRGB"><feFlood flood-opacity="0" result="BackgroundImageFix"/><feBlend in="SourceGraphic" in2="BackgroundImageFix" result="shape"/><feGaussianBlur stdDeviation="10" result="effect1_foregroundBlur"/></filter><filter id="c" x="232" y="230" width="363" height="363" filterUnits="userSpaceOnUse" color-interpolation-filters="sRGB"><feFlood flood-opacity="0" result="BackgroundImageFix"/><feBlend in="SourceGraphic" in2="BackgroundImageFix" result="shape"/><feGaussianBlur stdDeviation="15" result="effect1_foregroundBlur"/></filter></defs></svg>