<svg width="850" height="850" viewBox="0 0 850 850" fill="none" xmlns="http://www.w3.org/2000/svg">
<g id="solar-system">
<g id="sun">
<g id="sun-effect" filter="url(#filter0_f_315:2)">
<path d="M424 754C609.568 754 760 603.568 760 418C760 232.432 609.568 82 424 82C238.432 82 88 232.432 88 418C88 603.568 238.432 754 424 754Z" fill="url(#paint0_radial_315:2)"/>
</g>
<g id="sun-outer" filter="url(#filter1_f_315:2)">
<path d="M423.5 572C507.171 572 575 504.171 575 420.5C575 336.829 507.171 269 423.5 269C339.829 269 272 336.829 272 420.5C272 504.171 339.829 572 423.5 572Z" fill="url(#paint1_radial_315:2)"/>
</g>
<path id="sun_2" d="M424.598 509.375C474.181 509.375 514.375 469.181 514.375 419.598C514.375 370.016 474.181 329.822 424.598 329.822C375.016 329.822 334.821 370.016 334.821 419.598C334.821 469.181 375.016 509.375 424.598 509.375Z" fill="url(#paint2_radial_315:2)"/>
</g>
<g id="outer-ring">
<path id="outer-ring_2" d="M423.5 807C638.615 807 813 632.615 813 417.5C813 202.385 638.615 28 423.5 28C208.385 28 34 202.385 34 417.5C34 632.615 208.385 807 423.5 807Z" stroke="url(#paint3_linear_315:2)" stroke-width="2" stroke-dasharray="25 25"/>
<g id="nodejs">
<path id="Vector_22" d="M155.288 666.577C156.634 665.808 158.365 665.808 159.711 666.577L179.903 677.98C181.173 678.692 182.018 680.096 182 681.557V704.441C182 705.962 181.077 707.404 179.749 708.095C173.019 711.865 166.327 715.653 159.615 719.441C158.269 720.211 156.48 720.173 155.154 719.326L149.115 715.827C148.711 715.576 148.249 715.383 147.961 714.98C148.211 714.634 148.673 714.596 149.038 714.442C149.884 714.191 150.654 713.749 151.423 713.345C151.615 713.211 151.865 713.25 152.039 713.384C153.769 714.345 155.462 715.384 157.192 716.346C157.577 716.557 157.942 716.288 158.25 716.115L177.999 704.961C178.249 704.845 178.384 704.577 178.364 704.307V681.673C178.384 681.365 178.21 681.095 177.942 680.961L157.885 669.673C157.77 669.597 157.636 669.556 157.5 669.556C157.363 669.556 157.229 669.597 157.115 669.673L137.058 680.981C136.788 681.095 136.596 681.365 136.634 681.673V704.346C136.622 704.476 136.652 704.607 136.717 704.721C136.782 704.835 136.881 704.926 137 704.98L142.346 708C143.366 708.538 144.595 708.865 145.692 708.442C146.673 708.095 147.365 707.096 147.346 706.057V683.557C147.327 683.212 147.635 682.942 147.961 682.981H150.538C150.904 682.981 151.135 683.327 151.115 683.654L151.096 706.307C151.096 708.326 150.269 710.519 148.403 711.5C147.243 712.042 145.97 712.307 144.689 712.273C143.407 712.241 142.151 711.909 141.02 711.307C139.057 710.307 137.173 709.154 135.25 708.115C134.581 707.765 134.018 707.24 133.622 706.597C133.226 705.955 133.012 705.216 133 704.461V681.577C133 680.096 133.866 678.654 135.173 677.942L155.288 666.596V666.577Z" fill="#8CC84B"/>
<path id="Vector_23" d="M161.154 682.423C164.058 682.231 167.193 682.308 169.827 683.75C170.812 684.336 171.626 685.171 172.19 686.168C172.753 687.167 173.046 688.295 173.038 689.442C172.981 689.75 172.654 689.904 172.366 689.884H169.807C169.424 689.884 169.231 689.557 169.193 689.249C169.096 688.692 168.88 688.162 168.557 687.698C168.235 687.232 167.815 686.844 167.327 686.558C165.77 685.788 163.943 685.826 162.25 685.846C160.972 685.804 159.708 686.117 158.596 686.749C157.788 687.307 157.539 688.422 157.827 689.326C158.115 689.981 158.847 690.172 159.461 690.365C163 691.288 166.731 691.212 170.192 692.423C171.616 692.903 173.019 693.864 173.5 695.365C174.154 697.384 173.885 699.788 172.442 701.403C171.221 702.67 169.635 703.524 167.903 703.845C165.658 704.3 163.353 704.398 161.077 704.133C158.886 704.009 156.786 703.216 155.057 701.864C154.371 701.237 153.833 700.464 153.481 699.602C153.129 698.741 152.971 697.814 153.019 696.884C153.019 696.576 153.346 696.365 153.654 696.385H156.211C156.558 696.365 156.789 696.653 156.827 696.961C156.981 697.999 157.365 699.076 158.269 699.711C160 700.826 162.173 700.749 164.174 700.769C165.827 700.71 167.674 700.692 169.019 699.595C169.73 698.98 169.923 697.942 169.75 697.038C169.538 696.269 168.75 695.941 168.057 695.692C164.596 694.596 160.808 695 157.365 693.769C155.961 693.268 154.615 692.327 154.077 690.884C153.681 689.862 153.578 688.749 153.782 687.671C153.986 686.594 154.488 685.595 155.231 684.788C156.807 683.23 159.039 682.614 161.154 682.423Z" fill="#8CC84B"/>
</g>
<g id="neptune">
<g id="Group">
<path id="Vector" d="M513.5 821C528.136 821 540 809.136 540 794.5C540 779.864 528.136 768 513.5 768C498.864 768 487 779.864 487 794.5C487 809.136 498.864 821 513.5 821Z" fill="url(#paint4_linear_315:2)"/>
</g>
<g id="Group_2">
<path id="Vector_2" d="M516.318 780.666C517.51 779.475 519.087 778.743 520.767 778.608C525.381 778.236 529.555 777.52 532.993 776.55C528.15 771.294 521.21 768 513.5 768C507.97 768 502.835 769.695 498.587 772.593C495.951 774.391 495.604 778.147 497.861 780.404C498.984 781.527 500.805 781.527 501.928 780.404C503.046 779.286 504.856 779.28 505.982 780.39C506.084 780.491 506.188 780.594 506.293 780.698C509.076 783.445 513.553 783.431 516.318 780.666V780.666Z" fill="url(#paint5_linear_315:2)"/>
<path id="Vector_3" d="M513.5 787.303C513.5 788.619 514.586 789.673 515.902 789.64C523.033 789.463 529.687 788.497 534.846 786.875C536.021 786.506 537.253 786.058 538.438 785.52C537.906 784.043 537.248 782.626 536.474 781.284C535.641 781.656 534.642 782.038 533.444 782.414C528.685 783.909 522.48 784.801 515.776 784.966C514.509 784.997 513.5 786.036 513.5 787.303V787.303Z" fill="url(#paint6_linear_315:2)"/>
</g>
<path id="Vector_4" d="M513.5 768C512.8 768 512.107 768.028 511.421 768.081C514.325 768.306 517.099 769 519.665 770.087C528.503 773.829 526.031 786.985 516.437 787.286C515.471 787.316 514.491 787.332 513.5 787.332C503.522 787.332 494.716 785.759 489.45 783.359C487.879 786.746 487 790.52 487 794.5V794.548C487.005 797.244 488.025 799.84 489.826 801.847L490.517 802.616C491.66 803.89 493.481 804.25 495.058 803.585C496.393 803.022 497.928 803.225 499.07 804.114C501.244 805.805 504.065 806.421 506.711 805.659L509.314 804.909C510.857 804.465 512.511 804.903 513.65 806.035C514.473 806.853 515.587 807.312 516.748 807.312H518.746C520.79 807.312 522.735 806.481 524.187 805.043C525.29 803.951 526.698 803.22 528.226 802.946C528.731 802.856 529.222 802.764 529.588 802.688C532.006 802.185 533.925 804.715 532.768 806.897C532.753 806.925 532.738 806.953 532.723 806.981C532.329 807.717 531.642 808.252 530.832 808.451C527.627 809.235 523.942 809.786 519.995 810.073C518.376 810.191 516.748 810.048 515.172 809.663C513.65 809.29 512.081 809.148 510.518 809.242L504.757 809.585C503.649 809.651 502.547 809.381 501.595 808.809C501.204 808.574 500.772 808.315 500.347 808.059C498.878 807.176 497.081 807.028 495.487 807.659C494.874 807.902 494.195 807.926 493.565 807.729L493.555 807.726C491.946 807.22 490.694 806.705 489.725 806.214C490.927 808.649 492.49 810.872 494.347 812.814C499.757 814.218 506.456 814.982 513.5 814.982C513.549 814.982 513.598 814.982 513.647 814.982C517.079 814.977 517.529 819.944 514.153 820.564C513.257 820.728 512.346 820.847 511.421 820.919C512.107 820.972 512.8 821 513.5 821C528.136 821 540 809.136 540 794.5C540 779.864 528.136 768 513.5 768V768Z" fill="url(#paint7_linear_315:2)"/>
<path id="Vector_5" d="M535.005 809.986C529.668 811.811 522.01 812.955 513.5 812.955C504.991 812.955 497.333 811.811 491.996 809.986C492.715 810.983 493.5 811.928 494.347 812.814C499.758 814.218 506.456 814.982 513.5 814.982C513.549 814.982 513.598 814.982 513.647 814.982C517.064 814.977 517.548 819.936 514.188 820.557C513.281 820.725 512.358 820.846 511.421 820.919C512.107 820.972 512.8 821 513.5 821C522.354 821 530.193 816.657 535.005 809.986V809.986Z" fill="url(#paint8_linear_315:2)"/>
<path id="Vector_6" d="M540 794.5C540 795.795 539.905 797.067 539.726 798.312C538.884 798.642 538.039 798.936 537.219 799.195C530.847 801.198 522.423 802.3 513.5 802.3C511.665 802.3 509.851 802.254 508.073 802.161C506.861 802.099 505.914 801.094 505.914 799.881C505.914 798.715 505.036 797.735 503.877 797.611C499.521 797.149 495.519 796.371 492.153 795.313C490.462 794.781 488.651 794.085 487.033 793.196C487.118 791.454 487.37 789.756 487.775 788.119C488.293 788.537 489.891 789.328 490.966 789.84C491.65 790.165 492.244 790.653 492.697 791.261L492.879 791.505C494.05 793.075 496.076 793.745 497.952 793.184C499.179 792.816 500.506 793.006 501.58 793.703L502.046 794.005C503.163 794.729 504.613 794.679 505.677 793.88C506.284 793.426 507.032 793.205 507.788 793.253C509.645 793.37 511.557 793.431 513.5 793.431C521.068 793.431 528.151 792.515 533.445 790.851C536.471 789.9 538.236 788.917 539.225 788.119C539.629 789.756 539.884 791.453 539.968 793.195C539.989 793.627 540 794.063 540 794.5V794.5Z" fill="url(#paint9_linear_315:2)"/>
<g id="Group_3">
<path id="Vector_7" d="M526.283 794.615C522.382 795.235 518.027 795.563 513.5 795.563C513.097 795.563 512.695 795.561 512.295 795.555C510.994 795.539 509.932 796.59 509.932 797.892V797.894C509.932 799.175 510.963 800.215 512.243 800.232C512.66 800.237 513.079 800.24 513.5 800.24C518.258 800.24 522.859 799.891 527.011 799.232C528.147 799.051 528.984 798.073 528.984 796.923C528.984 795.487 527.702 794.389 526.283 794.615V794.615Z" fill="url(#paint10_linear_315:2)"/>
<path id="Vector_8" d="M534.216 792.73C533.969 792.814 533.711 792.899 533.444 792.983C533.266 793.039 533.086 793.094 532.904 793.148C531.914 793.443 531.234 794.354 531.234 795.387V795.39C531.234 796.952 532.739 798.076 534.236 797.631C534.442 797.569 534.645 797.507 534.846 797.444C535.136 797.353 535.43 797.257 535.725 797.156C536.668 796.834 537.298 795.944 537.298 794.948V794.945C537.298 793.348 535.729 792.215 534.216 792.73Z" fill="url(#paint11_linear_315:2)"/>
</g>
<path id="Vector_9" d="M533.444 782.414C530.381 783.377 526.717 784.089 522.708 784.518C521.231 786.118 519.11 787.202 516.436 787.286C515.47 787.317 514.491 787.332 513.5 787.332C513.516 788.634 514.596 789.673 515.902 789.64C523.032 789.463 529.686 788.497 534.846 786.876C536.021 786.506 537.253 786.058 538.438 785.52C537.906 784.043 537.247 782.626 536.473 781.284C535.641 781.656 534.642 782.038 533.444 782.414V782.414Z" fill="url(#paint12_linear_315:2)"/>
<path id="Vector_10" d="M511.423 768.081C514.326 768.307 517.098 769 519.663 770.086C523.378 771.659 525.094 774.893 525.124 778.138C528.021 777.742 530.675 777.204 532.993 776.55C528.15 771.294 521.21 768 513.5 768C512.801 768 512.108 768.028 511.423 768.081Z" fill="url(#paint13_linear_315:2)"/>
</g>
<g id="saturn">
<path id="Vector_11" d="M777.021 304.403C782.967 308.624 790.773 309.172 797.251 305.825C803.729 302.476 807.797 295.792 807.793 288.5C807.793 287.886 807.763 287.291 807.705 286.696C803.203 290.575 798.334 294.007 793.167 296.944C788.041 299.95 782.633 302.448 777.021 304.403V304.403Z" fill="#6E76E5"/>
<path id="Vector_12" d="M777.021 304.403C782.633 302.448 788.041 299.95 793.167 296.944C798.334 294.007 803.203 290.575 807.705 286.696C814.374 280.826 817.855 275.357 816.158 272.412C814.462 269.468 807.988 269.75 799.564 272.597C800.51 273.259 801.392 274.01 802.196 274.84C806.204 273.719 809.011 273.679 809.762 274.976C810.484 276.234 809.168 278.516 806.408 281.294C801.671 285.733 796.405 289.571 790.73 292.722C785.163 296.06 779.206 298.699 772.994 300.581C769.211 301.595 766.568 301.585 765.847 300.327C765.096 299.03 766.539 296.622 769.504 293.716C769.191 292.601 768.982 291.458 768.879 290.304C762.21 296.174 758.73 301.643 760.426 304.588C762.123 307.532 768.597 307.25 777.021 304.403V304.403Z" fill="#D5B4EB"/>
<path id="Vector_13" d="M772.994 300.581C779.206 298.699 785.163 296.06 790.73 292.722C796.405 289.571 801.671 285.733 806.408 281.295C805.456 278.88 804.023 276.684 802.196 274.84C801.392 274.01 800.511 273.259 799.564 272.597C793.617 268.376 785.812 267.827 779.334 271.175C772.855 274.524 768.788 281.208 768.792 288.5C768.792 289.114 768.821 289.709 768.88 290.304C768.982 291.458 769.191 292.601 769.504 293.717C770.191 296.217 771.378 298.553 772.994 300.581V300.581Z" fill="#6E76E5"/>
</g>
<g id="mongodb">
<path id="Vector_24" d="M169.7 89L171.163 91.762L172.138 93.062L175.388 96.8C179.048 101.773 181.193 107.698 181.563 113.862C181.692 117.783 180.873 121.676 179.175 125.213C177.478 128.749 174.952 131.823 171.813 134.175C171.325 134.175 171.163 133.85 171 133.362C170.513 132.875 170.35 132.062 170.188 131.412C170.017 130.557 169.963 129.682 170.025 128.812V128.487C170.025 128.487 169.538 89.487 169.7 89Z" fill="#599636"/>
<path id="Vector_25" d="M169.7 89H169.537C169.537 89.65 169.375 90.137 169.05 90.625L167.75 91.925C162.047 97.285 158.567 104.594 158 112.4C158 114.025 158.65 119.712 159.3 121.337C161.044 126.662 164.393 131.317 168.887 134.662L169.212 134.175C169.287 133.853 169.341 133.528 169.375 133.2L170.025 128.812L169.7 89Z" fill="#6CAC48"/>
<path id="Vector_26" d="M171.162 135.8C171.162 135.15 171.487 134.663 171.812 134.175L170.999 133.363L170.512 132.55C170.187 131.25 170.024 130.113 170.024 128.813V128.163L169.862 129.3C169.79 130.61 169.627 131.913 169.374 133.2L168.887 134.663C169.374 136.288 169.537 137.913 169.537 139.537V140.025C169.537 140.675 169.537 140.512 170.187 140.675L170.837 141L170.999 140.675V137.263V135.8H171.162Z" fill="#C2BFBF"/>
</g>
<path id="HTML + CSS" d="M658.126 110H654.903V103.297H648.619V110H645.396V94.3594H648.619V100.697H654.903V94.3594H658.126V110ZM672.402 96.9697H667.611V110H664.389V96.9697H659.662V94.3594H672.402V96.9697ZM678.461 94.3594L682.479 105.703L686.475 94.3594H690.707V110H687.474V105.725L687.796 98.3447L683.574 110H681.361L677.15 98.3555L677.473 105.725V110H674.25V94.3594H678.461ZM696.744 107.411H703.587V110H693.521V94.3594H696.744V107.411ZM651.455 127.245H655.333V130.049H651.455V134.432H648.501V130.049H644.612V127.245H648.501V123.045H651.455V127.245ZM675.163 130.79C675.041 132.473 674.418 133.798 673.294 134.765C672.177 135.731 670.701 136.215 668.868 136.215C666.863 136.215 665.284 135.542 664.131 134.195C662.985 132.842 662.412 130.987 662.412 128.631V127.675C662.412 126.171 662.677 124.846 663.207 123.7C663.737 122.554 664.493 121.677 665.474 121.068C666.462 120.452 667.608 120.145 668.911 120.145C670.716 120.145 672.17 120.628 673.272 121.595C674.375 122.562 675.013 123.919 675.185 125.666H671.962C671.883 124.656 671.6 123.926 671.113 123.475C670.633 123.016 669.899 122.787 668.911 122.787C667.837 122.787 667.031 123.174 666.494 123.947C665.964 124.714 665.692 125.906 665.678 127.524V128.706C665.678 130.396 665.932 131.632 666.44 132.412C666.956 133.193 667.765 133.583 668.868 133.583C669.864 133.583 670.605 133.357 671.092 132.906C671.586 132.448 671.869 131.743 671.94 130.79H675.163ZM685.39 131.896C685.39 131.288 685.175 130.822 684.745 130.5C684.315 130.171 683.542 129.827 682.425 129.469C681.308 129.104 680.423 128.745 679.771 128.395C677.995 127.435 677.107 126.142 677.107 124.517C677.107 123.672 677.344 122.92 677.816 122.261C678.296 121.595 678.98 121.076 679.868 120.703C680.763 120.331 681.766 120.145 682.876 120.145C683.993 120.145 684.989 120.349 685.862 120.757C686.736 121.158 687.413 121.727 687.893 122.465C688.38 123.202 688.623 124.04 688.623 124.979H685.4C685.4 124.262 685.175 123.707 684.724 123.313C684.272 122.912 683.639 122.712 682.822 122.712C682.035 122.712 681.422 122.88 680.985 123.217C680.549 123.546 680.33 123.983 680.33 124.527C680.33 125.036 680.584 125.462 681.093 125.806C681.608 126.149 682.364 126.472 683.359 126.772C685.193 127.324 686.528 128.008 687.366 128.824C688.204 129.641 688.623 130.658 688.623 131.875C688.623 133.229 688.111 134.292 687.087 135.065C686.063 135.832 684.684 136.215 682.951 136.215C681.748 136.215 680.652 135.996 679.664 135.56C678.676 135.116 677.92 134.51 677.397 133.744C676.882 132.978 676.624 132.09 676.624 131.08H679.857C679.857 132.806 680.889 133.669 682.951 133.669C683.717 133.669 684.315 133.515 684.745 133.207C685.175 132.892 685.39 132.455 685.39 131.896ZM698.925 131.896C698.925 131.288 698.71 130.822 698.28 130.5C697.851 130.171 697.077 129.827 695.96 129.469C694.843 129.104 693.958 128.745 693.307 128.395C691.531 127.435 690.643 126.142 690.643 124.517C690.643 123.672 690.879 122.92 691.352 122.261C691.831 121.595 692.515 121.076 693.403 120.703C694.299 120.331 695.301 120.145 696.411 120.145C697.528 120.145 698.524 120.349 699.397 120.757C700.271 121.158 700.948 121.727 701.428 122.465C701.915 123.202 702.158 124.04 702.158 124.979H698.936C698.936 124.262 698.71 123.707 698.259 123.313C697.808 122.912 697.174 122.712 696.357 122.712C695.57 122.712 694.957 122.88 694.521 123.217C694.084 123.546 693.865 123.983 693.865 124.527C693.865 125.036 694.119 125.462 694.628 125.806C695.144 126.149 695.899 126.472 696.895 126.772C698.728 127.324 700.063 128.008 700.901 128.824C701.739 129.641 702.158 130.658 702.158 131.875C702.158 133.229 701.646 134.292 700.622 135.065C699.598 135.832 698.219 136.215 696.486 136.215C695.283 136.215 694.188 135.996 693.199 135.56C692.211 135.116 691.455 134.51 690.933 133.744C690.417 132.978 690.159 132.09 690.159 131.08H693.393C693.393 132.806 694.424 133.669 696.486 133.669C697.253 133.669 697.851 133.515 698.28 133.207C698.71 132.892 698.925 132.455 698.925 131.896Z" fill="white"/>
<g id="js">
<path id="Rectangle 1" d="M698.278 681.347L652.347 681L652 726.931L697.931 727.278L698.278 681.347Z" fill="#F7DF1E"/>
<path id="Vector_8_2" d="M667.614 718.487L670.369 716.832C670.895 717.75 671.346 718.591 672.565 718.601C673.631 718.609 674.32 718.157 674.333 716.481L674.42 704.903L677.847 704.929L677.76 716.431C677.734 719.935 675.665 721.519 672.619 721.496C671.572 721.538 670.537 721.267 669.645 720.718C668.754 720.168 668.046 719.365 667.614 718.411L667.614 718.487ZM679.575 718.197L682.33 716.617C683.082 717.842 683.989 718.687 685.665 718.7C687.036 718.71 687.956 717.955 687.963 717.041C687.972 715.898 687.06 715.511 685.466 714.737L684.707 714.426C682.202 713.341 680.612 712.111 680.633 709.292C680.652 706.778 682.571 704.812 685.617 704.835C687.75 704.851 689.344 705.625 690.396 707.614L687.793 709.27C687.192 708.199 686.585 707.814 685.595 707.806C684.605 707.799 683.991 708.403 683.984 709.318C683.977 710.232 684.583 710.693 686.025 711.314L686.861 711.701C689.746 712.942 691.413 714.172 691.391 717.067C691.368 720.114 688.918 721.694 685.719 721.67C682.52 721.646 680.551 720.108 679.575 718.197Z" fill="black"/>
</g>
</g>
<g id="inner-ring">
<path id="inner-ring_2" d="M423.5 706C582.834 706 712 577.058 712 418C712 258.942 582.834 130 423.5 130C264.166 130 135 258.942 135 418C135 577.058 264.166 706 423.5 706Z" stroke="#004382" stroke-width="2"/>
<g id="earth">
<path id="Vector_14" d="M228.5 226C240.374 226 250 216.374 250 204.5C250 192.626 240.374 183 228.5 183C216.626 183 207 192.626 207 204.5C207 216.374 216.626 226 228.5 226Z" fill="#87DCFF"/>
<path id="Vector_15" d="M231.003 183.15L230.116 185.915C229.901 186.584 229.363 187.1 228.685 187.286L226.458 187.896C226.279 187.946 226.094 187.97 225.908 187.97H222.576C222.229 187.97 221.935 188.228 221.889 188.572L221.507 191.438L219.378 191.55C219.021 191.568 218.736 191.857 218.722 192.215L218.648 194.064C218.631 194.481 218.983 194.818 219.399 194.783L220.816 194.665C221.181 194.634 221.514 194.446 221.727 194.148L223.038 192.32L225.843 192.219C226.443 192.198 226.866 192.802 226.649 193.361C226.16 194.616 226.159 194.723 226.159 194.834C226.159 195.217 226.469 195.527 226.853 195.527C227.195 195.527 227.481 195.278 227.536 194.952C227.583 194.792 227.795 194.238 228.073 193.534C228.188 193.24 228.587 193.197 228.761 193.461L228.941 193.732C229.272 194.234 229.889 194.465 230.469 194.304L231.707 193.96C232.053 193.865 232.331 193.61 232.458 193.275L232.695 192.644C232.863 192.199 233.247 191.871 233.713 191.775L234.513 191.61C235.058 191.497 235.635 191.827 235.73 192.375C235.827 192.935 235.433 193.443 234.887 193.506L232.957 193.558C232.565 193.568 232.249 193.884 232.24 194.277L232.236 194.462C232.232 194.61 232.314 194.748 232.446 194.815L233.556 195.381C233.978 195.597 234.116 196.134 233.849 196.526C233.703 196.742 233.459 196.871 233.198 196.871H227.345C227.191 196.871 227.04 196.842 226.897 196.786L221.986 194.851C221.622 194.708 221.209 194.785 220.922 195.051L216.27 199.35C215.9 199.692 215.744 200.21 215.865 200.7L216.811 204.542C216.957 205.135 217.473 205.563 218.083 205.596L223.324 205.877C224.355 205.933 225.189 206.736 225.284 207.764L225.681 212.08C225.711 212.403 225.796 212.714 225.936 213.006C226.378 213.928 227.407 216.022 227.98 216.745C228.717 217.677 230.532 217.714 231.144 217.157L235.405 213.671C235.761 213.346 235.994 212.909 236.063 212.432L236.562 209.008L239.946 205.279C240.275 204.916 240.127 204.359 239.708 204.179L239.647 204.22C239.391 204.392 239.095 204.496 238.788 204.523C238.734 204.528 238.68 204.531 238.626 204.531C237.999 204.531 237.417 204.212 237.079 203.674L234.496 199.573C234.292 199.248 234.39 198.82 234.713 198.616C235.04 198.413 235.466 198.51 235.67 198.833L238.253 202.935C238.342 203.078 238.499 203.155 238.667 203.141C238.741 203.135 238.814 203.109 238.876 203.068L242.368 201.154C242.731 200.955 242.828 200.475 242.569 200.151C242.425 199.97 242.199 199.877 241.97 199.903L241.236 199.987C241.039 200.01 240.842 199.947 240.694 199.815L238.498 197.85C238.213 197.595 238.188 197.157 238.444 196.871C238.698 196.585 239.137 196.562 239.423 196.817L241.387 198.574L242.581 198.436C242.828 198.406 243.073 198.514 243.22 198.716L243.45 199.03L244.613 198.891C245.178 198.823 245.727 199.107 245.998 199.608L248.347 203.951C248.518 204.266 248.803 204.503 249.144 204.612L249.989 204.909C249.992 204.773 250 204.637 250 204.5C250 193.473 241.697 184.391 231.003 183.15ZM239.985 195.018C239.866 195.099 239.731 195.137 239.597 195.137C239.374 195.137 239.156 195.03 239.022 194.832L237.578 192.693C237.363 192.376 237.446 191.945 237.764 191.731C238.08 191.516 238.513 191.6 238.726 191.917L240.171 194.055C240.386 194.372 240.302 194.804 239.985 195.018Z" fill="#BEE86E"/>
<path id="Vector_16" d="M235.551 218.949C223.677 218.949 214.051 209.323 214.051 197.449C214.051 193.319 215.218 189.462 217.237 186.186C211.096 189.971 207 196.756 207 204.5C207 216.374 216.626 226 228.5 226C236.244 226 243.029 221.904 246.814 215.763C243.538 217.782 239.681 218.949 235.551 218.949Z" fill="#00C3FF"/>
<g id="Group_4">
<path id="Vector_17" d="M237.862 215.857C237.705 215.857 237.546 215.803 237.416 215.694C237.123 215.448 237.085 215.01 237.332 214.717L239.152 212.55C239.398 212.257 239.836 212.218 240.13 212.465C240.423 212.712 240.461 213.149 240.214 213.442L238.394 215.61C238.257 215.773 238.06 215.857 237.862 215.857Z" fill="#BEE86E"/>
<path id="Vector_18" d="M222.585 183.831L221.968 185.669C221.846 186.032 222.042 186.426 222.405 186.548C222.478 186.572 222.552 186.584 222.626 186.584C222.915 186.584 223.186 186.401 223.283 186.111L224.182 183.434C223.641 183.544 223.11 183.681 222.585 183.831Z" fill="#BEE86E"/>
</g>
<path id="Vector_19" d="M210.601 216.41L211.201 210.958C211.249 210.53 211.095 210.104 210.785 209.805L207.084 206.344C207.399 210.047 208.648 213.481 210.601 216.41Z" fill="#AFD755"/>
<path id="Vector_20" d="M228.5 183C227.722 183 226.955 183.044 226.198 183.124L226.126 184.751C225.944 185.297 226.238 185.886 226.784 186.067C226.893 186.104 227.004 186.121 227.113 186.121C227.548 186.121 227.955 185.845 228.1 185.41L228.899 183.01C228.766 183.008 228.634 183 228.5 183Z" fill="#BEE86E"/>
</g>
<g id="nuxt">
<path id="Vector_27" d="M429.895 108.807L427.416 112.775L419.481 99.0126L395.056 141.414H411.67C411.67 143.646 413.406 145.506 415.637 145.506H395.056C394.336 145.5 393.628 145.303 393.008 144.935C392.387 144.568 391.875 144.043 391.523 143.414C391.169 142.784 390.99 142.073 391 141.352C391.013 140.63 391.213 139.925 391.585 139.307L416.01 97.0289C416.37 96.4114 416.885 95.8993 417.506 95.5433C418.126 95.1873 418.828 95 419.543 95C420.258 95 420.961 95.1873 421.581 95.5433C422.2 95.8993 422.716 96.4114 423.077 97.0289L429.895 108.807Z" fill="#00C58E"/>
<path id="Vector_28" d="M447.501 139.431L432.127 112.774L429.896 108.807L427.416 112.774L412.166 139.431C411.825 140.046 411.649 140.738 411.653 141.441C411.657 142.145 411.843 142.835 412.191 143.446C412.54 144.056 413.041 144.567 413.645 144.927C414.248 145.288 414.934 145.487 415.638 145.506H444.03C444.751 145.499 445.458 145.303 446.078 144.935C446.699 144.568 447.211 144.043 447.565 143.414C447.917 142.784 448.096 142.073 448.086 141.351C448.075 140.63 447.873 139.925 447.501 139.307V139.431ZM415.638 141.414L429.896 116.866L444.03 141.414H415.514H415.638Z" fill="#2F495E"/>
<path id="Vector_29" d="M458.535 143.522C457.791 144.762 456.427 145.506 454.94 145.506H444.029C446.261 145.506 447.996 143.646 447.996 141.414H454.94L435.35 107.319L432.127 112.775L429.895 108.807L431.879 105.336C432.246 104.746 432.758 104.26 433.365 103.923C433.973 103.586 434.656 103.409 435.35 103.409C436.045 103.409 436.728 103.586 437.336 103.923C437.943 104.26 438.454 104.746 438.822 105.336L458.535 139.431C459.155 140.671 459.155 142.158 458.535 143.522Z" fill="#108775"/>
</g>
<g id="vue">
<path id="Vector_21" d="M147.859 381H158L132.55 425.041L107 381H126.585L132.55 391.239L138.415 381H147.859Z" fill="#41B883"/>
<path id="Vector_2_2" d="M107 381L132.55 425.041L158 381H147.859L132.55 407.445L117.141 381H107Z" fill="#41B883"/>
<path id="Vector_3_2" d="M117.14 381L132.55 407.543L147.859 381H138.415L132.45 391.239L126.485 381H117.14Z" fill="#35495E"/>
</g>
<g id="ts">
<path id="Vector_18_2" d="M683 396.501V418H726.091V375H683.091V396.501H683ZM717.71 394.77C718.804 395.043 719.714 395.498 720.443 396.318L721.445 397.685C721.445 397.685 719.624 399.051 718.439 399.688L718.074 399.325C717.528 398.413 716.981 398.14 716.07 398.049C714.795 398.049 713.884 398.687 713.884 399.871L714.066 400.599C714.43 401.237 714.977 401.511 716.617 402.33C719.714 403.606 720.99 404.518 721.81 405.701C722.721 407.159 722.903 409.346 722.356 410.986C721.628 412.808 719.897 413.991 717.528 414.356C716.799 414.538 715.068 414.538 714.249 414.356C712.585 414.081 711.054 413.283 709.875 412.079C709.441 411.583 709.073 411.031 708.782 410.439L709.146 410.166L710.787 409.255L711.97 408.526L712.244 408.89C712.608 409.436 713.428 410.256 713.884 410.439C715.25 411.167 717.163 411.077 718.074 410.256C718.529 409.893 718.621 409.528 718.621 408.981C718.621 408.435 718.621 408.252 718.348 407.888C717.983 407.432 717.346 406.977 715.342 406.157C713.155 405.246 712.244 404.608 711.333 403.697C710.787 403.15 710.422 402.24 710.149 401.511C709.967 400.873 709.967 399.415 710.149 398.778C710.513 396.591 712.153 395.133 714.522 394.678C715.583 394.552 716.658 394.583 717.71 394.77ZM707.688 396.591V398.413H702.04V414.265H698.123V398.322H692.475V394.77H707.598V396.591H707.688Z" fill="#007ACC"/>
</g>
<g id="sass">
<path id="Vector_30" d="M461.977 700.479C459.855 700.479 458.068 700.926 456.393 701.708C455.834 700.591 455.276 699.586 455.276 698.804C455.052 698.022 454.941 697.463 455.052 696.458L455.834 693.777C455.834 693.777 455.722 693.219 454.494 693.107C453.265 693.107 452.148 693.442 452.036 693.665L451.478 695.564C451.254 696.681 449.021 700.702 447.792 702.824C447.345 701.931 447.01 701.261 446.899 700.591C446.787 699.809 446.675 699.25 446.787 698.245C446.899 697.128 447.569 695.788 447.569 695.676C447.569 695.564 447.345 695.006 446.117 695.006C445 695.006 443.883 695.229 443.772 695.564C443.548 695.899 443.436 696.681 443.213 697.351L439.193 706.51L438.076 708.632C437.964 709.079 438.076 708.632 438.076 708.632L437.741 709.302L437.406 709.972C437.294 709.972 437.182 709.079 437.406 708.074L438.857 701.931C438.857 701.931 439.081 701.261 438.187 700.926C437.294 700.591 437.071 701.149 436.959 701.149L436.847 701.373C436.847 701.373 437.741 697.24 434.949 697.24C433.162 697.24 430.705 699.25 429.476 701.038L425.344 703.271L423.333 704.388L423.222 704.165C419.871 700.479 413.393 697.91 413.728 692.995C413.728 691.208 414.398 686.518 425.902 680.71C435.284 676.131 442.878 677.36 444.218 680.263C446.005 684.284 440.198 691.878 430.369 692.995C426.684 693.442 424.674 691.99 424.227 691.432C423.668 690.873 423.557 690.873 423.445 690.985C423.11 691.097 423.222 691.655 423.445 691.99C423.668 692.66 424.897 694 426.907 694.671C428.694 695.341 433.05 695.676 438.411 693.554C444.33 691.32 448.909 684.954 447.569 679.593C446.229 674.232 437.182 672.445 428.694 675.461C423.36 677.238 418.426 680.045 414.175 683.726C409.484 688.193 408.813 691.878 409.037 693.554C410.154 699.139 417.973 702.824 421.1 705.617L420.653 705.84C419.089 706.622 413.169 709.637 411.717 712.988C410.042 716.673 411.941 719.354 413.281 719.689C417.302 720.806 421.323 718.795 423.557 715.556C425.79 712.206 425.567 707.962 424.562 705.952L425.679 705.17L427.912 703.941C427.577 705.058 427.354 706.175 427.131 707.962C427.019 710.196 427.912 712.876 429.029 713.993C429.476 714.44 430.146 714.44 430.481 714.44C431.821 714.44 432.38 713.323 433.05 711.983C433.943 710.419 434.613 708.632 434.613 708.632C434.613 708.632 433.72 713.546 436.177 713.546C437.07 713.546 437.964 712.429 438.411 711.871V711.759L438.634 711.536L440.979 707.068C442.543 703.941 443.995 700.144 443.995 700.144L444.553 702.601C444.888 703.606 445.447 704.611 445.894 705.505L445.335 706.287L444.33 707.515C443.213 708.967 441.65 710.642 441.538 711.201C441.314 711.759 441.314 712.094 441.761 712.429C442.096 712.764 442.655 712.764 443.325 712.764C444.096 712.708 444.852 712.519 445.558 712.206C446.241 711.925 446.88 711.549 447.457 711.089C448.686 710.307 449.467 709.079 449.356 707.292C449.356 706.398 449.021 705.505 448.686 704.611L448.909 704.165C450.808 701.373 452.26 698.357 452.26 698.357L452.93 700.814C453.153 701.596 453.6 702.489 454.047 703.271C452.586 704.376 451.432 705.837 450.696 707.515C450.026 709.525 450.584 710.531 451.59 710.754L453.265 710.419C453.935 710.196 454.605 709.861 455.387 709.302C456.504 708.409 457.621 707.18 457.621 705.505C457.621 704.723 457.398 703.941 457.175 703.271C458.626 702.601 460.525 702.266 463.094 702.601C468.455 703.16 469.46 706.51 469.348 707.962C469.125 709.302 468.008 710.196 467.561 710.307C467.226 710.531 467.114 710.642 467.114 710.866C467.114 711.089 467.338 711.089 467.673 710.977C468.12 710.977 470.465 709.861 470.577 707.292C470.8 703.941 467.561 700.367 462.089 700.479H461.977ZM420.653 714.328C418.978 716.227 416.52 717.008 415.403 716.338C414.286 715.668 414.733 712.876 416.967 710.754C418.196 709.637 419.983 708.409 421.1 707.739L422.217 707.068V706.957L422.552 706.845C423.445 709.749 422.552 712.318 420.765 714.328H420.653ZM433.72 705.505C433.05 707.068 431.821 710.866 431.04 710.642C430.369 710.531 429.923 707.627 430.816 704.723C431.335 703.303 432.09 701.982 433.05 700.814C433.943 699.697 434.949 699.362 435.284 699.809C435.619 700.479 434.167 704.611 433.72 705.505ZM444.33 710.642C444.107 710.754 443.883 710.866 443.772 710.754C443.66 710.754 443.772 710.531 443.772 710.531L445.67 708.52L446.787 707.18C446.787 708.967 445.112 710.196 444.33 710.531V710.642ZM452.595 708.744C452.371 708.632 452.371 708.185 453.042 706.733C453.265 706.175 453.935 705.282 454.941 704.5L455.052 705.505C455.052 707.627 453.489 708.409 452.595 708.855V708.744Z" fill="#CF649A"/>
</g>
</g>
</g>
<defs>
<filter id="filter0_f_315:2" x="68" y="62" width="712" height="712" filterUnits="userSpaceOnUse" color-interpolation-filters="sRGB">
<feFlood flood-opacity="0" result="BackgroundImageFix"/>
<feBlend mode="normal" in="SourceGraphic" in2="BackgroundImageFix" result="shape"/>
<feGaussianBlur stdDeviation="10" result="effect1_foregroundBlur_315:2"/>
</filter>
<filter id="filter1_f_315:2" x="242" y="239" width="363" height="363" filterUnits="userSpaceOnUse" color-interpolation-filters="sRGB">
<feFlood flood-opacity="0" result="BackgroundImageFix"/>
<feBlend mode="normal" in="SourceGraphic" in2="BackgroundImageFix" result="shape"/>
<feGaussianBlur stdDeviation="15" result="effect1_foregroundBlur_315:2"/>
</filter>
<radialGradient id="paint0_radial_315:2" cx="0" cy="0" r="1" gradientUnits="userSpaceOnUse" gradientTransform="translate(424 418) rotate(179.814) scale(384.716)">
<stop stop-color="white" stop-opacity="0.9"/>
<stop offset="0.208333" stop-color="#CBCCD0" stop-opacity="0.6"/>
<stop offset="0.526042" stop-color="#7C7F87" stop-opacity="0.25"/>
<stop offset="1" stop-color="#060C1B" stop-opacity="0.03"/>
</radialGradient>
<radialGradient id="paint1_radial_315:2" cx="0" cy="0" r="1" gradientUnits="userSpaceOnUse" gradientTransform="translate(423.5 420.5) rotate(90) scale(151.5)">
<stop stop-color="#005EEC"/>
<stop offset="1" stop-color="#8AA4FF" stop-opacity="0.05"/>
</radialGradient>
<radialGradient id="paint2_radial_315:2" cx="0" cy="0" r="1" gradientUnits="userSpaceOnUse" gradientTransform="translate(425 420) rotate(85.1831) scale(89.3155)">
<stop stop-color="white"/>
<stop offset="1" stop-color="#C4C4C4"/>
</radialGradient>
<linearGradient id="paint3_linear_315:2" x1="423.5" y1="28" x2="423.5" y2="807" gradientUnits="userSpaceOnUse">
<stop stop-color="#456EFF"/>
<stop offset="1" stop-color="#006984"/>
</linearGradient>
<linearGradient id="paint4_linear_315:2" x1="486.142" y1="794.5" x2="539.806" y2="794.5" gradientUnits="userSpaceOnUse">
<stop stop-color="#60B7FF"/>
<stop offset="0.5857" stop-color="#0182FC"/>
<stop offset="1" stop-color="#2740B0"/>
</linearGradient>
<linearGradient id="paint5_linear_315:2" x1="476.712" y1="775.375" x2="537.226" y2="775.375" gradientUnits="userSpaceOnUse">
<stop stop-color="#60B7FF"/>
<stop offset="0.5857" stop-color="#0182FC"/>
<stop offset="1" stop-color="#2740B0"/>
</linearGradient>
<linearGradient id="paint6_linear_315:2" x1="503.316" y1="785.462" x2="533.766" y2="785.462" gradientUnits="userSpaceOnUse">
<stop stop-color="#60B7FF"/>
<stop offset="0.5857" stop-color="#0182FC"/>
<stop offset="1" stop-color="#2740B0"/>
</linearGradient>
<linearGradient id="paint7_linear_315:2" x1="475.378" y1="794.5" x2="535.706" y2="794.5" gradientUnits="userSpaceOnUse">
<stop stop-color="#60B7FF"/>
<stop offset="0.5857" stop-color="#0182FC"/>
<stop offset="1" stop-color="#2740B0"/>
</linearGradient>
<linearGradient id="paint8_linear_315:2" x1="462.579" y1="815.493" x2="530.893" y2="815.493" gradientUnits="userSpaceOnUse">
<stop stop-color="#60B7FF"/>
<stop offset="0.5857" stop-color="#0182FC"/>
<stop offset="1" stop-color="#2740B0"/>
</linearGradient>
<linearGradient id="paint9_linear_315:2" x1="475.672" y1="795.21" x2="549.08" y2="795.21" gradientUnits="userSpaceOnUse">
<stop stop-color="#60B7FF"/>
<stop offset="0.5857" stop-color="#0182FC"/>
<stop offset="1" stop-color="#2740B0"/>
</linearGradient>
<linearGradient id="paint10_linear_315:2" x1="476.123" y1="797.412" x2="534.393" y2="797.412" gradientUnits="userSpaceOnUse">
<stop stop-color="#60B7FF"/>
<stop offset="0.5857" stop-color="#0182FC"/>
<stop offset="1" stop-color="#2740B0"/>
</linearGradient>
<linearGradient id="paint11_linear_315:2" x1="476.123" y1="795.167" x2="534.393" y2="795.167" gradientUnits="userSpaceOnUse">
<stop stop-color="#60B7FF"/>
<stop offset="0.5857" stop-color="#0182FC"/>
<stop offset="1" stop-color="#2740B0"/>
</linearGradient>
<linearGradient id="paint12_linear_315:2" x1="451.355" y1="785.462" x2="534.847" y2="785.462" gradientUnits="userSpaceOnUse">
<stop stop-color="#60B7FF"/>
<stop offset="0.5857" stop-color="#0182FC"/>
<stop offset="1" stop-color="#2740B0"/>
</linearGradient>
<linearGradient id="paint13_linear_315:2" x1="486.377" y1="773.069" x2="531.479" y2="773.069" gradientUnits="userSpaceOnUse">
<stop stop-color="#60B7FF"/>
<stop offset="0.5857" stop-color="#0182FC"/>
<stop offset="1" stop-color="#2740B0"/>
</linearGradient>
</defs>
</svg>
