<svg width="426" height="479" fill="none" xmlns="http://www.w3.org/2000/svg"><path d="m385.5 432-172.8 46.6L39.9 432 0 0h425.3l-39.8 432Z" fill="#2062AF"/><path d="M212.7 35v406.4l.4.2 139.8-37.7 32.3-369H212.7v.1Z" fill="#3C9CD7"/><path d="M212.5 143 88.8 194.5l4.1 51 119.6-51.1L339.7 140l5.3-52.2L212.5 143Z" fill="#fff"/><path d="m88.8 194.5 4.1 51 119.6-51.1V143L88.8 194.5Z" fill="url(#a)"/><path d="M345 87.8 212.5 143v51.4L339.7 140l5.3-52.2Z" fill="url(#b)"/><path d="m89 194.5 4.1 51 183.5.6-4.1 68-60.4 17-58-14.6-3.5-42.2h-54l7 81.4L212.8 388l108.4-31.7 14.1-161.8H89Z" fill="url(#c)"/><path opacity=".1" d="M212.5 194.5H88.8l4.1 51 119.6.4v-51.4Zm0 136.5-.6.1-58-14.6-3.5-42.2h-54l7 81.4L212.6 388v-57h-.1Z" fill="#000"/><path d="M77.7 87.8H345l-5.3 52.2H84.2l-6.5-52.2Z" fill="url(#d)"/><path opacity=".1" d="M212.5 87.8H77.7l6.5 52.2h128.3V87.8Z" fill="#000"/><defs><linearGradient id="a" x1="150.7" y1="245.5" x2="150.7" y2="143" gradientUnits="userSpaceOnUse"><stop offset=".4" stop-color="#D1D3D4" stop-opacity="0"/><stop offset="1" stop-color="#D1D3D4"/></linearGradient><linearGradient id="b" x1="278.7" y1="194.4" x2="278.7" y2="87.8" gradientUnits="userSpaceOnUse"><stop offset=".4" stop-color="#D1D3D4" stop-opacity="0"/><stop offset="1" stop-color="#D1D3D4"/></linearGradient><linearGradient id="c" x1="89" y1="291.3" x2="335.2" y2="291.3" gradientUnits="userSpaceOnUse"><stop stop-color="#E8E7E5"/><stop offset="1" stop-color="#fff"/></linearGradient><linearGradient id="d" x1="77.7" y1="113.9" x2="345" y2="113.9" gradientUnits="userSpaceOnUse"><stop stop-color="#E8E7E5"/><stop offset="1" stop-color="#fff"/></linearGradient></defs></svg>