<svg width="422" height="479" fill="none" xmlns="http://www.w3.org/2000/svg"><path d="M38.4 430.7 0 0h422l-38.4 430.6-172.9 48-172.3-47.9Z" fill="#E44D26"/><path d="m211 442 139.6-38.8 32.9-368H211V442Z" fill="#F16529"/><path d="M211 195h-70l-4.7-54.1H211V88H78.5l1.3 14.2 13 145.6H211V195Zm0 137.2h-.2l-58.9-15.9-3.7-42.1h-53l7.3 83 108.3 30h.2v-55Z" fill="#EBEBEB"/><path d="M210.8 195v52.8h65l-6 68.5-59 15.9v55l108.3-30 .8-9 12.4-139 1.3-14.2H210.8Zm0-107v53h127.6l1-12 2.5-26.7 1.3-14.2H210.8V88Z" fill="#fff"/></svg>