<svg width="422" height="479" viewBox="0 0 422 479" fill="none" xmlns="http://www.w3.org/2000/svg">
<path d="M38.4 430.7L0 0H422L383.6 430.6L210.7 478.6L38.4 430.7Z" fill="#E44D26"/>
<path d="M211 442L350.6 403.2L383.5 35.2H211V442Z" fill="#F16529"/>
<path d="M211 195H141L136.3 140.9H211V88H78.5L79.8 102.2L92.8 247.8H211V195ZM211 332.2H210.8L151.9 316.3L148.2 274.2H95.2L102.5 357.2L210.8 387.2H211V332.2Z" fill="#EBEBEB"/>
<path d="M210.8 195V247.8H275.8L269.8 316.3L210.8 332.2V387.2L319.1 357.2L319.9 348.2L332.3 209.2L333.6 195H210.8ZM210.8 88V141H338.4L339.4 129L341.9 102.3L343.2 88.1H210.8V88Z" fill="white"/>
</svg>
