<svg width="479" height="479" fill="none" xmlns="http://www.w3.org/2000/svg"><path d="M0 0h479v479H0V0Z" fill="#F7DF1E"/><path d="m126 400.3 36.6-22.2c7 12.5 13.5 23.2 29 23.2 14.7 0 24-5.8 24-28.3V220h45v153.6c0 46.6-27.3 67.8-67.1 67.8-36 0-57-18.6-67.6-41.1h.1Zm159.1-4.8 36.7-21.3c9.6 15.8 22.2 27.4 44.3 27.4 18.7 0 30.6-9.4 30.6-22.2 0-15.4-12.2-21-32.8-30l-11.3-4.7c-32.4-13.9-54-31.2-54-67.9 0-33.7 25.7-59.5 66-59.5 28.6 0 49.1 10 64 36L393.4 276c-7.7-13.9-16.1-19.3-29-19.3-13.1 0-21.5 8.3-21.5 19.3 0 13.5 8.4 19 27.6 27.3L382 308c38.3 16.4 59.8 33.1 59.8 70.7 0 40.6-31.8 62.7-74.6 62.7-41.8 0-68.8-19.9-82-46l-.1.1Z" fill="#000"/></svg>