<svg width="479" height="479" viewBox="0 0 479 479" fill="none" xmlns="http://www.w3.org/2000/svg">
<path d="M0 0H479V479H0V0Z" fill="#F7DF1E"/>
<path d="M126 400.3L162.6 378.1C169.6 390.6 176.1 401.3 191.6 401.3C206.3 401.3 215.6 395.5 215.6 373V220H260.6V373.6C260.6 420.2 233.3 441.4 193.5 441.4C157.5 441.4 136.5 422.8 125.9 400.3H126ZM285.1 395.5L321.8 374.2C331.4 390 344 401.6 366.1 401.6C384.8 401.6 396.7 392.2 396.7 379.4C396.7 364 384.5 358.4 363.9 349.4L352.6 344.7C320.2 330.8 298.6 313.5 298.6 276.8C298.6 243.1 324.3 217.3 364.6 217.3C393.2 217.3 413.7 227.3 428.6 253.3L393.4 276C385.7 262.1 377.3 256.7 364.4 256.7C351.3 256.7 342.9 265 342.9 276C342.9 289.5 351.3 295 370.5 303.3L382 308C420.3 324.4 441.8 341.1 441.8 378.7C441.8 419.3 410 441.4 367.2 441.4C325.4 441.4 298.4 421.5 285.2 395.4L285.1 395.5Z" fill="black"/>
</svg>
