<svg width="64" height="64" fill="none" xmlns="http://www.w3.org/2000/svg"><path d="m31.8 0 1.8 3.4L34.8 5l4 4.6a39.4 39.4 0 0 1 7.6 21 30 30 0 0 1-12 25c-.6 0-.8-.4-1-1-.6-.6-.8-1.6-1-2.4a12 12 0 0 1-.2-3.2v-.4S31.6.6 31.8 0Z" fill="#599636"/><path d="M31.8 0h-.2c0 .8-.2 1.4-.6 2l-1.6 1.6a38.4 38.4 0 0 0-12 25.2c0 2 .8 9 1.6 11a33.4 33.4 0 0 0 11.8 16.4l.4-.6.2-1.2.8-5.4-.4-49Z" fill="#6CAC48"/><path d="M33.6 57.6c0-.8.4-1.4.8-2l-1-1-.6-1c-.4-1.6-.6-3-.6-4.6v-.8l-.2 1.4c0 1.6-.3 3.2-.6 4.8l-.6 1.8c.6 2 .8 4 .8 6v.6c0 .8 0 .6.8.8l.8.4.2-.4v-6h.2Z" fill="#C2BFBF"/></svg>