<svg width="2270" height="2500" fill="none" xmlns="http://www.w3.org/2000/svg"><path d="M1032.8 32a208.7 208.7 0 0 1 203.9 0l930.9 525.6a190 190 0 0 1 96.6 165v1054.9c0 70-42.6 136.5-103.7 168.4-310.3 173.8-618.8 348.4-928.2 523a203.4 203.4 0 0 1-205.7-5.3l-278.4-161.3c-18.6-11.5-39.9-20.4-53.2-39 11.6-16 32.8-17.7 49.7-24.8 39-11.6 74.4-32 110-50.6 8.8-6.2 20.3-4.4 28.3 1.8 79.8 44.3 157.8 92.2 237.6 136.5 17.7 9.8 34.5-2.6 48.7-10.6l910.5-514.2a30.5 30.5 0 0 0 16.8-30.1V727.8c1-14.1-7-26.6-19.5-32.8l-924.6-520.4a32 32 0 0 0-35.5 0L192.4 696a31 31 0 0 0-19.5 32V1773a29.3 29.3 0 0 0 16.8 29.2l246.5 139.2c47 24.8 103.7 39.9 154.2 20.4a117 117 0 0 0 76.3-110V814.8a25.6 25.6 0 0 1 28.3-26.6h118.8c16.9 0 27.5 16 26.6 31l-.9 1044.4c0 93-38 194.1-124 239.3A381.2 381.2 0 0 1 375 2094c-90.4-46.1-177.3-99.3-266-147.2A193.3 193.3 0 0 1 5.3 1778.4v-1055c0-68.3 40-134.7 100.2-167.5l927.3-523.1v-.9Z" fill="#8CC84B"/><path d="M1303.2 762.4c133.9-8.9 278.4-5.3 399.8 61.2a303.2 303.2 0 0 1 148 262.4c-2.6 14.2-17.7 21.3-31 20.4h-117.9c-17.7 0-26.6-15-28.3-29.3a179 179 0 0 0-86-124c-71.8-35.5-156-33.8-234-32.9-59-2-117.3 12.5-168.5 41.7-37.3 25.7-48.8 77.1-35.5 118.8 13.3 30.1 47 39 75.4 47.8 163.1 42.6 335 39 494.7 94.9 65.6 22.2 130.3 66.5 152.4 135.6 30.2 93.1 17.8 204-48.7 278.4a389.2 389.2 0 0 1-209.2 112.6 1003.6 1003.6 0 0 1-314.8 13.3 496.5 496.5 0 0 1-277.4-104.6 290.9 290.9 0 0 1-94-229.6c0-14.2 15-24 29.2-23h118c16-1 26.5 12.3 28.3 26.5 7.1 47.9 24.8 97.5 66.5 126.8 79.8 51.4 180 47.9 272.2 48.8 76.2-2.7 161.3-3.6 223.4-54.1 32.8-28.4 41.7-76.3 33.7-118-9.8-35.4-46.1-50.5-78-62-159.6-50.5-334.3-31.9-493-88.6-64.7-23-126.7-66.5-151.5-133a270.4 270.4 0 0 1 53.1-281c72.7-71.9 175.6-100.2 273-109Z" fill="#8CC84B"/></svg>