<svg width="2270" height="2500" viewBox="0 0 2270 2500" fill="none" xmlns="http://www.w3.org/2000/svg">
<path d="M1032.8 31.9148C1094.86 -3.54616 1174.65 -3.54616 1236.7 31.9148L2167.55 557.624C2226.06 590.426 2265.07 655.142 2264.18 722.518V1777.48C2264.18 1847.52 2221.63 1914.01 2160.46 1945.92C1850.18 2119.68 1541.67 2294.33 1232.27 2468.97C1170.21 2504.43 1087.77 2502.66 1026.6 2463.65L748.227 2302.31C729.61 2290.78 708.333 2281.92 695.036 2263.3C706.56 2247.34 727.837 2245.57 744.681 2238.48C783.688 2226.95 819.149 2206.56 854.61 2187.94C863.475 2181.74 875 2183.51 882.979 2189.72C962.766 2234.04 1040.78 2281.91 1120.57 2326.24C1138.3 2335.99 1155.14 2323.58 1169.33 2315.6L2079.79 1801.42C2091.31 1796.1 2097.52 1783.69 2096.63 1771.28V727.837C2097.52 713.652 2089.54 701.241 2077.13 695.035L1152.48 174.645C1147.23 171.139 1141.06 169.267 1134.75 169.267C1128.44 169.267 1122.27 171.139 1117.02 174.645L192.376 695.922C179.965 701.241 171.099 713.652 172.872 727.837V1773.05C172.313 1779.07 173.633 1785.11 176.649 1790.35C179.665 1795.59 184.23 1799.77 189.716 1802.3L436.17 1941.49C483.156 1966.31 539.894 1981.38 590.426 1961.88C635.638 1945.92 667.553 1899.82 666.667 1851.95V814.716C665.78 798.759 679.965 786.348 695.036 788.121H813.83C830.674 788.121 841.312 804.078 840.426 819.149L839.539 1863.48C839.539 1956.56 801.418 2057.62 715.426 2102.84C661.878 2127.85 603.249 2140.07 544.168 2138.53C485.087 2136.99 427.173 2121.74 375 2093.97C284.574 2047.87 197.695 1994.68 109.043 1946.81C78.1833 1930.68 52.2546 1906.51 33.9969 1876.87C15.7392 1847.22 5.8309 1813.18 5.31915 1778.37V723.404C5.31915 655.142 45.2128 588.652 105.496 555.851L1032.8 32.8014V31.9148Z" fill="#8CC84B"/>
<path d="M1303.19 762.411C1437.06 753.546 1581.56 757.092 1703.01 823.582C1748.42 850.624 1785.97 889.066 1811.94 935.095C1837.91 981.125 1851.4 1033.14 1851.06 1085.99C1848.4 1100.18 1833.33 1107.27 1820.04 1106.38H1702.13C1684.4 1106.38 1675.53 1091.31 1673.76 1077.13C1669.33 1051.43 1659.34 1027 1644.48 1005.56C1629.63 984.127 1610.27 966.192 1587.77 953.014C1515.96 917.553 1431.74 919.326 1353.72 920.213C1294.81 918.279 1236.5 932.701 1185.28 961.879C1148.05 987.589 1136.52 1039.01 1149.82 1080.67C1163.12 1110.82 1196.81 1119.68 1225.18 1128.55C1388.3 1171.1 1560.28 1167.55 1719.86 1223.4C1785.46 1245.57 1850.18 1289.89 1872.34 1359.04C1902.48 1452.13 1890.07 1562.94 1823.58 1637.41C1767.28 1695.83 1694.13 1735.2 1614.36 1750C1510.81 1770.97 1404.6 1775.46 1299.65 1763.3C1198.65 1757.51 1101.84 1721.01 1022.16 1658.69C990.534 1629.72 965.707 1594.1 949.46 1554.41C933.214 1514.71 925.951 1471.91 928.192 1429.08C928.192 1414.89 943.262 1405.14 957.447 1406.03H1075.35C1091.31 1405.14 1101.95 1418.44 1103.72 1432.62C1110.82 1480.5 1128.55 1530.14 1170.21 1559.4C1250 1610.82 1350.18 1607.27 1442.38 1608.16C1518.62 1605.5 1603.72 1604.61 1665.78 1554.08C1698.58 1525.71 1707.45 1477.84 1699.47 1436.17C1689.72 1400.71 1653.37 1385.64 1621.45 1374.11C1461.88 1323.58 1287.23 1342.2 1128.55 1285.46C1063.83 1262.41 1001.77 1218.97 976.95 1152.48C958.657 1105.35 953.944 1054.03 963.346 1004.36C972.748 954.684 995.889 908.64 1030.14 871.454C1102.84 799.645 1205.67 771.277 1303.19 762.411Z" fill="#8CC84B"/>
</svg>
