<svg width="479" height="357" fill="none" xmlns="http://www.w3.org/2000/svg"><g clip-path="url(#a)"><path d="m273 98.3-16.5 28.4-56-97.1L28.4 327.7h116.5a28.4 28.4 0 0 0 28.4 28.4h-145a28.4 28.4 0 0 1-24.5-42.6L176 15.4a28.4 28.4 0 0 1 49.2 0l47.8 83v-.1Z" fill="#00C58E"/><path d="M397.2 313.5 289.3 126.7 273 98.3l-16.4 28.4-107.8 186.8a28.4 28.4 0 0 0 24.6 42.6h199.3a28.4 28.4 0 0 0 24.5-42.6Zm-224 14.2L273 155.1l99.7 172.6H173.2Z" fill="#2F495E"/><path d="M474.3 342a28.4 28.4 0 0 1-24.6 14.1h-77.1a28.4 28.4 0 0 0 28.3-28.4h48.7L311.5 88.3l-22.2 38.4L273 98.3l14-24.1a28.4 28.4 0 0 1 49.2 0l138.2 239.3c5 8.8 5 19.7 0 28.4l-.1.1Z" fill="#108775"/></g><defs><clipPath id="a"><path fill="#fff" d="M0 0h479v357H0z"/></clipPath></defs></svg>