<svg width="479" height="479" fill="none" xmlns="http://www.w3.org/2000/svg"><path d="M0 239.5V479h479V0H0v239.5Zm386-19c12.2 3 21.5 8.4 30 17.2a74 74 0 0 1 11.4 15.3c.2.6-20.6 14.6-33.3 22.5-.4.3-2.2-1.7-4.3-4.7-6.2-9-12.6-12.9-22.5-13.6-14.5-1-24 6.6-23.8 19.3 0 3.8.5 6 2 9 3.2 6.6 9.2 10.6 27.8 18.6 34.3 14.8 49 24.5 58 38.4a69.6 69.6 0 0 1 5.6 58.4c-7.6 19.9-26.4 33.4-53 37.9a147 147 0 0 1-36.4-.4 88 88 0 0 1-48.8-25.4c-5-5.6-9.2-11.8-12.5-18.5l4.5-2.8 17.8-10.2 13.7-8 3 4.3c4 6.1 12.8 14.6 18 17.4 15.4 8 36.4 6.9 46.7-2.4 4.4-4 6.2-8.2 6.2-14.4 0-5.5-.7-8-3.5-12.1-3.8-5.3-11.4-9.8-33-19.2-24.7-10.6-35.3-17.2-45-27.7a62 62 0 0 1-13.2-24c-2-10-2.2-20.3-.9-30.5 5.1-24 23.2-40.6 49.2-45.5 8.4-1.6 28-1 36.3 1v.1Zm-112.4 20 .1 19.5h-62.3v177.2h-44.1V260h-62.4v-19.2l.6-19.8c.2-.3 38.1-.4 84.1-.4l83.7.3.3 19.5v.1Z" fill="#007ACC"/></svg>